ISO-10303-21;
HEADER;
/* Generated by software containing ST-Developer
 * from STEP Tools, Inc. (www.steptools.com) 
 */

FILE_DESCRIPTION(
/* description */ (''),
/* implementation_level */ '2;1');

FILE_NAME(
/* name */ 'Fiber_Clamp_Koheron.step',
/* time_stamp */ '2026-07-08T16:56:39-05:00',
/* author */ (''),
/* organization */ (''),
/* preprocessor_version */ 'ST-DEVELOPER v20.1',
/* originating_system */ 'Autodesk Translation Framework v15.8.0.0',
/* authorisation */ '');

FILE_SCHEMA (('AUTOMOTIVE_DESIGN { 1 0 10303 214 3 1 1 }'));
ENDSEC;

DATA;
#10=MECHANICAL_DESIGN_GEOMETRIC_PRESENTATION_REPRESENTATION('',(#13),#1124);
#11=SHAPE_REPRESENTATION_RELATIONSHIP('SRR','None',#1131,#12);
#12=ADVANCED_BREP_SHAPE_REPRESENTATION('',(#14),#1123);
#13=STYLED_ITEM('',(#1141),#14);
#14=MANIFOLD_SOLID_BREP('Body1',#658);
#15=FACE_BOUND('',#123,.T.);
#16=FACE_BOUND('',#124,.T.);
#17=FACE_BOUND('',#125,.T.);
#18=FACE_BOUND('',#126,.T.);
#19=FACE_BOUND('',#127,.T.);
#20=FACE_BOUND('',#130,.T.);
#21=FACE_BOUND('',#132,.T.);
#22=FACE_BOUND('',#137,.T.);
#23=FACE_BOUND('',#143,.T.);
#24=FACE_BOUND('',#144,.T.);
#25=FACE_BOUND('',#147,.T.);
#26=FACE_BOUND('',#155,.T.);
#27=FACE_BOUND('',#158,.T.);
#28=CYLINDRICAL_SURFACE('',#683,1.70815);
#29=CYLINDRICAL_SURFACE('',#686,1.70815);
#30=CYLINDRICAL_SURFACE('',#689,1.70815);
#31=CYLINDRICAL_SURFACE('',#692,1.70815);
#32=CYLINDRICAL_SURFACE('',#708,3.5);
#33=CYLINDRICAL_SURFACE('',#712,3.5);
#34=CYLINDRICAL_SURFACE('',#715,2.1845);
#35=CYLINDRICAL_SURFACE('',#716,2.1845);
#36=CYLINDRICAL_SURFACE('',#718,1.5);
#37=CYLINDRICAL_SURFACE('',#721,1.5);
#38=CYLINDRICAL_SURFACE('',#724,1.85);
#39=CYLINDRICAL_SURFACE('',#726,1.5);
#40=CYLINDRICAL_SURFACE('',#728,1.5);
#41=CYLINDRICAL_SURFACE('',#730,1.5);
#42=CYLINDRICAL_SURFACE('',#732,1.5);
#43=CYLINDRICAL_SURFACE('',#734,1.5);
#44=CIRCLE('',#674,1.5);
#45=CIRCLE('',#675,1.5);
#46=CIRCLE('',#676,1.5);
#47=CIRCLE('',#677,1.5);
#48=CIRCLE('',#678,1.5);
#49=CIRCLE('',#679,1.5);
#50=CIRCLE('',#680,1.5);
#51=CIRCLE('',#681,1.85);
#52=CIRCLE('',#684,1.70815);
#53=CIRCLE('',#685,1.70815);
#54=CIRCLE('',#687,1.70815);
#55=CIRCLE('',#688,1.70815);
#56=CIRCLE('',#690,1.70815);
#57=CIRCLE('',#691,1.70815);
#58=CIRCLE('',#693,1.70815);
#59=CIRCLE('',#694,1.70815);
#60=CIRCLE('',#699,2.1845);
#61=CIRCLE('',#700,2.1845);
#62=CIRCLE('',#703,3.5);
#63=CIRCLE('',#704,2.1845);
#64=CIRCLE('',#706,3.5);
#65=CIRCLE('',#707,2.1845);
#66=CIRCLE('',#709,3.5);
#67=CIRCLE('',#711,1.85);
#68=CIRCLE('',#713,3.5);
#69=CIRCLE('',#719,1.5);
#70=CIRCLE('',#722,1.5);
#71=CIRCLE('',#725,1.85);
#72=CIRCLE('',#727,1.5);
#73=CIRCLE('',#729,1.5);
#74=CIRCLE('',#731,1.5);
#75=CIRCLE('',#733,1.5);
#76=CIRCLE('',#735,1.5);
#77=FACE_OUTER_BOUND('',#112,.T.);
#78=FACE_OUTER_BOUND('',#113,.T.);
#79=FACE_OUTER_BOUND('',#114,.T.);
#80=FACE_OUTER_BOUND('',#115,.T.);
#81=FACE_OUTER_BOUND('',#116,.T.);
#82=FACE_OUTER_BOUND('',#117,.T.);
#83=FACE_OUTER_BOUND('',#118,.T.);
#84=FACE_OUTER_BOUND('',#119,.T.);
#85=FACE_OUTER_BOUND('',#120,.T.);
#86=FACE_OUTER_BOUND('',#121,.T.);
#87=FACE_OUTER_BOUND('',#122,.T.);
#88=FACE_OUTER_BOUND('',#128,.T.);
#89=FACE_OUTER_BOUND('',#129,.T.);
#90=FACE_OUTER_BOUND('',#131,.T.);
#91=FACE_OUTER_BOUND('',#133,.T.);
#92=FACE_OUTER_BOUND('',#134,.T.);
#93=FACE_OUTER_BOUND('',#135,.T.);
#94=FACE_OUTER_BOUND('',#136,.T.);
#95=FACE_OUTER_BOUND('',#138,.T.);
#96=FACE_OUTER_BOUND('',#139,.T.);
#97=FACE_OUTER_BOUND('',#140,.T.);
#98=FACE_OUTER_BOUND('',#141,.T.);
#99=FACE_OUTER_BOUND('',#142,.T.);
#100=FACE_OUTER_BOUND('',#145,.T.);
#101=FACE_OUTER_BOUND('',#146,.T.);
#102=FACE_OUTER_BOUND('',#148,.T.);
#103=FACE_OUTER_BOUND('',#149,.T.);
#104=FACE_OUTER_BOUND('',#150,.T.);
#105=FACE_OUTER_BOUND('',#151,.T.);
#106=FACE_OUTER_BOUND('',#152,.T.);
#107=FACE_OUTER_BOUND('',#153,.T.);
#108=FACE_OUTER_BOUND('',#154,.T.);
#109=FACE_OUTER_BOUND('',#156,.T.);
#110=FACE_OUTER_BOUND('',#157,.T.);
#111=FACE_OUTER_BOUND('',#159,.T.);
#112=EDGE_LOOP('',(#424,#425,#426,#427));
#113=EDGE_LOOP('',(#428,#429,#430,#431,#432,#433,#434,#435,#436,#437,#438,
#439,#440,#441,#442,#443,#444,#445));
#114=EDGE_LOOP('',(#446,#447,#448,#449));
#115=EDGE_LOOP('',(#450,#451,#452,#453));
#116=EDGE_LOOP('',(#454,#455,#456,#457));
#117=EDGE_LOOP('',(#458,#459,#460,#461));
#118=EDGE_LOOP('',(#462,#463,#464,#465));
#119=EDGE_LOOP('',(#466));
#120=EDGE_LOOP('',(#467,#468,#469,#470));
#121=EDGE_LOOP('',(#471,#472,#473,#474));
#122=EDGE_LOOP('',(#475,#476,#477,#478));
#123=EDGE_LOOP('',(#479));
#124=EDGE_LOOP('',(#480));
#125=EDGE_LOOP('',(#481));
#126=EDGE_LOOP('',(#482));
#127=EDGE_LOOP('',(#483));
#128=EDGE_LOOP('',(#484,#485,#486,#487,#488,#489));
#129=EDGE_LOOP('',(#490));
#130=EDGE_LOOP('',(#491));
#131=EDGE_LOOP('',(#492));
#132=EDGE_LOOP('',(#493));
#133=EDGE_LOOP('',(#494,#495,#496,#497));
#134=EDGE_LOOP('',(#498,#499,#500,#501));
#135=EDGE_LOOP('',(#502,#503,#504,#505));
#136=EDGE_LOOP('',(#506,#507,#508,#509));
#137=EDGE_LOOP('',(#510));
#138=EDGE_LOOP('',(#511,#512,#513,#514));
#139=EDGE_LOOP('',(#515,#516,#517,#518));
#140=EDGE_LOOP('',(#519,#520,#521,#522));
#141=EDGE_LOOP('',(#523,#524,#525,#526));
#142=EDGE_LOOP('',(#527,#528,#529,#530));
#143=EDGE_LOOP('',(#531));
#144=EDGE_LOOP('',(#532));
#145=EDGE_LOOP('',(#533,#534,#535,#536));
#146=EDGE_LOOP('',(#537,#538,#539,#540,#541,#542));
#147=EDGE_LOOP('',(#543));
#148=EDGE_LOOP('',(#544,#545,#546,#547,#548,#549));
#149=EDGE_LOOP('',(#550,#551,#552,#553));
#150=EDGE_LOOP('',(#554,#555,#556,#557));
#151=EDGE_LOOP('',(#558,#559,#560,#561));
#152=EDGE_LOOP('',(#562,#563,#564,#565));
#153=EDGE_LOOP('',(#566,#567,#568,#569));
#154=EDGE_LOOP('',(#570,#571,#572,#573,#574,#575));
#155=EDGE_LOOP('',(#576));
#156=EDGE_LOOP('',(#577,#578,#579,#580,#581,#582,#583,#584,#585,#586,#587,
#588));
#157=EDGE_LOOP('',(#589,#590,#591,#592));
#158=EDGE_LOOP('',(#593));
#159=EDGE_LOOP('',(#594,#595,#596,#597,#598,#599,#600,#601,#602,#603));
#160=LINE('',#939,#217);
#161=LINE('',#941,#218);
#162=LINE('',#943,#219);
#163=LINE('',#944,#220);
#164=LINE('',#947,#221);
#165=LINE('',#949,#222);
#166=LINE('',#961,#223);
#167=LINE('',#963,#224);
#168=LINE('',#965,#225);
#169=LINE('',#967,#226);
#170=LINE('',#969,#227);
#171=LINE('',#973,#228);
#172=LINE('',#977,#229);
#173=LINE('',#981,#230);
#174=LINE('',#982,#231);
#175=LINE('',#987,#232);
#176=LINE('',#993,#233);
#177=LINE('',#999,#234);
#178=LINE('',#1005,#235);
#179=LINE('',#1011,#236);
#180=LINE('',#1013,#237);
#181=LINE('',#1015,#238);
#182=LINE('',#1016,#239);
#183=LINE('',#1019,#240);
#184=LINE('',#1021,#241);
#185=LINE('',#1022,#242);
#186=LINE('',#1025,#243);
#187=LINE('',#1026,#244);
#188=LINE('',#1034,#245);
#189=LINE('',#1036,#246);
#190=LINE('',#1037,#247);
#191=LINE('',#1038,#248);
#192=LINE('',#1051,#249);
#193=LINE('',#1055,#250);
#194=LINE('',#1058,#251);
#195=LINE('',#1061,#252);
#196=LINE('',#1065,#253);
#197=LINE('',#1066,#254);
#198=LINE('',#1068,#255);
#199=LINE('',#1070,#256);
#200=LINE('',#1073,#257);
#201=LINE('',#1074,#258);
#202=LINE('',#1078,#259);
#203=LINE('',#1081,#260);
#204=LINE('',#1082,#261);
#205=LINE('',#1086,#262);
#206=LINE('',#1088,#263);
#207=LINE('',#1089,#264);
#208=LINE('',#1093,#265);
#209=LINE('',#1096,#266);
#210=LINE('',#1098,#267);
#211=LINE('',#1103,#268);
#212=LINE('',#1107,#269);
#213=LINE('',#1111,#270);
#214=LINE('',#1115,#271);
#215=LINE('',#1116,#272);
#216=LINE('',#1119,#273);
#217=VECTOR('',#744,10.);
#218=VECTOR('',#745,10.);
#219=VECTOR('',#746,10.);
#220=VECTOR('',#747,10.);
#221=VECTOR('',#750,10.);
#222=VECTOR('',#751,10.);
#223=VECTOR('',#762,10.);
#224=VECTOR('',#763,10.);
#225=VECTOR('',#764,10.);
#226=VECTOR('',#765,10.);
#227=VECTOR('',#766,10.);
#228=VECTOR('',#769,10.);
#229=VECTOR('',#772,10.);
#230=VECTOR('',#777,10.);
#231=VECTOR('',#778,10.);
#232=VECTOR('',#783,1.70815);
#233=VECTOR('',#790,1.70815);
#234=VECTOR('',#797,1.70815);
#235=VECTOR('',#804,1.70815);
#236=VECTOR('',#811,10.);
#237=VECTOR('',#812,10.);
#238=VECTOR('',#813,10.);
#239=VECTOR('',#814,10.);
#240=VECTOR('',#817,10.);
#241=VECTOR('',#818,10.);
#242=VECTOR('',#819,10.);
#243=VECTOR('',#822,10.);
#244=VECTOR('',#823,10.);
#245=VECTOR('',#830,10.);
#246=VECTOR('',#831,10.);
#247=VECTOR('',#832,10.);
#248=VECTOR('',#833,10.);
#249=VECTOR('',#848,3.5);
#250=VECTOR('',#853,10.);
#251=VECTOR('',#856,10.);
#252=VECTOR('',#859,3.5);
#253=VECTOR('',#864,10.);
#254=VECTOR('',#865,10.);
#255=VECTOR('',#868,2.1845);
#256=VECTOR('',#871,2.1845);
#257=VECTOR('',#874,10.);
#258=VECTOR('',#875,10.);
#259=VECTOR('',#880,10.);
#260=VECTOR('',#883,10.);
#261=VECTOR('',#884,10.);
#262=VECTOR('',#889,10.);
#263=VECTOR('',#892,10.);
#264=VECTOR('',#893,10.);
#265=VECTOR('',#898,10.);
#266=VECTOR('',#901,10.);
#267=VECTOR('',#902,10.);
#268=VECTOR('',#909,10.);
#269=VECTOR('',#914,10.);
#270=VECTOR('',#919,10.);
#271=VECTOR('',#926,10.);
#272=VECTOR('',#927,10.);
#273=VECTOR('',#932,10.);
#274=VERTEX_POINT('',#937);
#275=VERTEX_POINT('',#938);
#276=VERTEX_POINT('',#940);
#277=VERTEX_POINT('',#942);
#278=VERTEX_POINT('',#946);
#279=VERTEX_POINT('',#948);
#280=VERTEX_POINT('',#950);
#281=VERTEX_POINT('',#952);
#282=VERTEX_POINT('',#954);
#283=VERTEX_POINT('',#956);
#284=VERTEX_POINT('',#958);
#285=VERTEX_POINT('',#960);
#286=VERTEX_POINT('',#962);
#287=VERTEX_POINT('',#964);
#288=VERTEX_POINT('',#966);
#289=VERTEX_POINT('',#968);
#290=VERTEX_POINT('',#970);
#291=VERTEX_POINT('',#972);
#292=VERTEX_POINT('',#974);
#293=VERTEX_POINT('',#976);
#294=VERTEX_POINT('',#980);
#295=VERTEX_POINT('',#984);
#296=VERTEX_POINT('',#986);
#297=VERTEX_POINT('',#990);
#298=VERTEX_POINT('',#992);
#299=VERTEX_POINT('',#996);
#300=VERTEX_POINT('',#998);
#301=VERTEX_POINT('',#1002);
#302=VERTEX_POINT('',#1004);
#303=VERTEX_POINT('',#1009);
#304=VERTEX_POINT('',#1010);
#305=VERTEX_POINT('',#1012);
#306=VERTEX_POINT('',#1014);
#307=VERTEX_POINT('',#1018);
#308=VERTEX_POINT('',#1020);
#309=VERTEX_POINT('',#1024);
#310=VERTEX_POINT('',#1027);
#311=VERTEX_POINT('',#1029);
#312=VERTEX_POINT('',#1032);
#313=VERTEX_POINT('',#1033);
#314=VERTEX_POINT('',#1035);
#315=VERTEX_POINT('',#1040);
#316=VERTEX_POINT('',#1042);
#317=VERTEX_POINT('',#1045);
#318=VERTEX_POINT('',#1047);
#319=VERTEX_POINT('',#1050);
#320=VERTEX_POINT('',#1054);
#321=VERTEX_POINT('',#1056);
#322=VERTEX_POINT('',#1060);
#323=VERTEX_POINT('',#1064);
#324=VERTEX_POINT('',#1072);
#325=VERTEX_POINT('',#1076);
#326=VERTEX_POINT('',#1080);
#327=VERTEX_POINT('',#1084);
#328=VERTEX_POINT('',#1091);
#329=VERTEX_POINT('',#1095);
#330=VERTEX_POINT('',#1097);
#331=VERTEX_POINT('',#1101);
#332=VERTEX_POINT('',#1105);
#333=VERTEX_POINT('',#1109);
#334=EDGE_CURVE('',#274,#275,#160,.T.);
#335=EDGE_CURVE('',#276,#274,#161,.T.);
#336=EDGE_CURVE('',#277,#276,#162,.T.);
#337=EDGE_CURVE('',#275,#277,#163,.T.);
#338=EDGE_CURVE('',#276,#278,#164,.T.);
#339=EDGE_CURVE('',#279,#274,#165,.T.);
#340=EDGE_CURVE('',#280,#279,#44,.F.);
#341=EDGE_CURVE('',#281,#280,#45,.F.);
#342=EDGE_CURVE('',#282,#281,#46,.F.);
#343=EDGE_CURVE('',#283,#282,#47,.F.);
#344=EDGE_CURVE('',#284,#283,#48,.F.);
#345=EDGE_CURVE('',#285,#284,#166,.T.);
#346=EDGE_CURVE('',#286,#285,#167,.T.);
#347=EDGE_CURVE('',#286,#287,#168,.T.);
#348=EDGE_CURVE('',#288,#287,#169,.T.);
#349=EDGE_CURVE('',#289,#288,#170,.T.);
#350=EDGE_CURVE('',#290,#289,#49,.F.);
#351=EDGE_CURVE('',#291,#290,#171,.T.);
#352=EDGE_CURVE('',#292,#291,#50,.F.);
#353=EDGE_CURVE('',#293,#292,#172,.T.);
#354=EDGE_CURVE('',#278,#293,#51,.T.);
#355=EDGE_CURVE('',#294,#275,#173,.T.);
#356=EDGE_CURVE('',#294,#279,#174,.T.);
#357=EDGE_CURVE('',#295,#295,#52,.F.);
#358=EDGE_CURVE('',#295,#296,#175,.T.);
#359=EDGE_CURVE('',#296,#296,#53,.F.);
#360=EDGE_CURVE('',#297,#297,#54,.F.);
#361=EDGE_CURVE('',#297,#298,#176,.T.);
#362=EDGE_CURVE('',#298,#298,#55,.F.);
#363=EDGE_CURVE('',#299,#299,#56,.F.);
#364=EDGE_CURVE('',#299,#300,#177,.T.);
#365=EDGE_CURVE('',#300,#300,#57,.F.);
#366=EDGE_CURVE('',#301,#301,#58,.F.);
#367=EDGE_CURVE('',#301,#302,#178,.T.);
#368=EDGE_CURVE('',#302,#302,#59,.F.);
#369=EDGE_CURVE('',#303,#304,#179,.T.);
#370=EDGE_CURVE('',#303,#305,#180,.T.);
#371=EDGE_CURVE('',#306,#305,#181,.T.);
#372=EDGE_CURVE('',#304,#306,#182,.T.);
#373=EDGE_CURVE('',#307,#288,#183,.T.);
#374=EDGE_CURVE('',#287,#308,#184,.T.);
#375=EDGE_CURVE('',#308,#307,#185,.T.);
#376=EDGE_CURVE('',#309,#286,#186,.T.);
#377=EDGE_CURVE('',#309,#308,#187,.T.);
#378=EDGE_CURVE('',#310,#310,#60,.T.);
#379=EDGE_CURVE('',#311,#311,#61,.T.);
#380=EDGE_CURVE('',#312,#313,#188,.T.);
#381=EDGE_CURVE('',#313,#314,#189,.T.);
#382=EDGE_CURVE('',#314,#309,#190,.T.);
#383=EDGE_CURVE('',#285,#312,#191,.T.);
#384=EDGE_CURVE('',#315,#315,#62,.T.);
#385=EDGE_CURVE('',#316,#316,#63,.T.);
#386=EDGE_CURVE('',#317,#317,#64,.T.);
#387=EDGE_CURVE('',#318,#318,#65,.T.);
#388=EDGE_CURVE('',#315,#319,#192,.T.);
#389=EDGE_CURVE('',#319,#319,#66,.T.);
#390=EDGE_CURVE('',#304,#320,#193,.T.);
#391=EDGE_CURVE('',#320,#321,#67,.T.);
#392=EDGE_CURVE('',#321,#303,#194,.T.);
#393=EDGE_CURVE('',#317,#322,#195,.T.);
#394=EDGE_CURVE('',#322,#322,#68,.T.);
#395=EDGE_CURVE('',#323,#306,#196,.T.);
#396=EDGE_CURVE('',#320,#323,#197,.T.);
#397=EDGE_CURVE('',#310,#316,#198,.T.);
#398=EDGE_CURVE('',#311,#318,#199,.T.);
#399=EDGE_CURVE('',#307,#324,#200,.T.);
#400=EDGE_CURVE('',#289,#324,#201,.T.);
#401=EDGE_CURVE('',#324,#325,#69,.T.);
#402=EDGE_CURVE('',#290,#325,#202,.T.);
#403=EDGE_CURVE('',#325,#326,#203,.T.);
#404=EDGE_CURVE('',#326,#291,#204,.T.);
#405=EDGE_CURVE('',#326,#327,#70,.T.);
#406=EDGE_CURVE('',#292,#327,#205,.T.);
#407=EDGE_CURVE('',#321,#293,#206,.T.);
#408=EDGE_CURVE('',#327,#305,#207,.T.);
#409=EDGE_CURVE('',#323,#328,#71,.T.);
#410=EDGE_CURVE('',#278,#328,#208,.T.);
#411=EDGE_CURVE('',#284,#329,#209,.T.);
#412=EDGE_CURVE('',#283,#330,#210,.T.);
#413=EDGE_CURVE('',#329,#330,#72,.T.);
#414=EDGE_CURVE('',#330,#331,#73,.T.);
#415=EDGE_CURVE('',#282,#331,#211,.T.);
#416=EDGE_CURVE('',#331,#332,#74,.T.);
#417=EDGE_CURVE('',#281,#332,#212,.T.);
#418=EDGE_CURVE('',#332,#333,#75,.T.);
#419=EDGE_CURVE('',#280,#333,#213,.T.);
#420=EDGE_CURVE('',#333,#294,#76,.T.);
#421=EDGE_CURVE('',#277,#313,#214,.T.);
#422=EDGE_CURVE('',#328,#314,#215,.T.);
#423=EDGE_CURVE('',#312,#329,#216,.T.);
#424=ORIENTED_EDGE('',*,*,#334,.F.);
#425=ORIENTED_EDGE('',*,*,#335,.F.);
#426=ORIENTED_EDGE('',*,*,#336,.F.);
#427=ORIENTED_EDGE('',*,*,#337,.F.);
#428=ORIENTED_EDGE('',*,*,#338,.F.);
#429=ORIENTED_EDGE('',*,*,#335,.T.);
#430=ORIENTED_EDGE('',*,*,#339,.F.);
#431=ORIENTED_EDGE('',*,*,#340,.F.);
#432=ORIENTED_EDGE('',*,*,#341,.F.);
#433=ORIENTED_EDGE('',*,*,#342,.F.);
#434=ORIENTED_EDGE('',*,*,#343,.F.);
#435=ORIENTED_EDGE('',*,*,#344,.F.);
#436=ORIENTED_EDGE('',*,*,#345,.F.);
#437=ORIENTED_EDGE('',*,*,#346,.F.);
#438=ORIENTED_EDGE('',*,*,#347,.T.);
#439=ORIENTED_EDGE('',*,*,#348,.F.);
#440=ORIENTED_EDGE('',*,*,#349,.F.);
#441=ORIENTED_EDGE('',*,*,#350,.F.);
#442=ORIENTED_EDGE('',*,*,#351,.F.);
#443=ORIENTED_EDGE('',*,*,#352,.F.);
#444=ORIENTED_EDGE('',*,*,#353,.F.);
#445=ORIENTED_EDGE('',*,*,#354,.F.);
#446=ORIENTED_EDGE('',*,*,#334,.T.);
#447=ORIENTED_EDGE('',*,*,#355,.F.);
#448=ORIENTED_EDGE('',*,*,#356,.T.);
#449=ORIENTED_EDGE('',*,*,#339,.T.);
#450=ORIENTED_EDGE('',*,*,#357,.T.);
#451=ORIENTED_EDGE('',*,*,#358,.T.);
#452=ORIENTED_EDGE('',*,*,#359,.T.);
#453=ORIENTED_EDGE('',*,*,#358,.F.);
#454=ORIENTED_EDGE('',*,*,#360,.T.);
#455=ORIENTED_EDGE('',*,*,#361,.T.);
#456=ORIENTED_EDGE('',*,*,#362,.T.);
#457=ORIENTED_EDGE('',*,*,#361,.F.);
#458=ORIENTED_EDGE('',*,*,#363,.T.);
#459=ORIENTED_EDGE('',*,*,#364,.T.);
#460=ORIENTED_EDGE('',*,*,#365,.T.);
#461=ORIENTED_EDGE('',*,*,#364,.F.);
#462=ORIENTED_EDGE('',*,*,#366,.F.);
#463=ORIENTED_EDGE('',*,*,#367,.T.);
#464=ORIENTED_EDGE('',*,*,#368,.T.);
#465=ORIENTED_EDGE('',*,*,#367,.F.);
#466=ORIENTED_EDGE('',*,*,#366,.T.);
#467=ORIENTED_EDGE('',*,*,#369,.F.);
#468=ORIENTED_EDGE('',*,*,#370,.T.);
#469=ORIENTED_EDGE('',*,*,#371,.F.);
#470=ORIENTED_EDGE('',*,*,#372,.F.);
#471=ORIENTED_EDGE('',*,*,#373,.T.);
#472=ORIENTED_EDGE('',*,*,#348,.T.);
#473=ORIENTED_EDGE('',*,*,#374,.T.);
#474=ORIENTED_EDGE('',*,*,#375,.T.);
#475=ORIENTED_EDGE('',*,*,#374,.F.);
#476=ORIENTED_EDGE('',*,*,#347,.F.);
#477=ORIENTED_EDGE('',*,*,#376,.F.);
#478=ORIENTED_EDGE('',*,*,#377,.T.);
#479=ORIENTED_EDGE('',*,*,#357,.F.);
#480=ORIENTED_EDGE('',*,*,#360,.F.);
#481=ORIENTED_EDGE('',*,*,#363,.F.);
#482=ORIENTED_EDGE('',*,*,#378,.F.);
#483=ORIENTED_EDGE('',*,*,#379,.F.);
#484=ORIENTED_EDGE('',*,*,#380,.T.);
#485=ORIENTED_EDGE('',*,*,#381,.T.);
#486=ORIENTED_EDGE('',*,*,#382,.T.);
#487=ORIENTED_EDGE('',*,*,#376,.T.);
#488=ORIENTED_EDGE('',*,*,#346,.T.);
#489=ORIENTED_EDGE('',*,*,#383,.T.);
#490=ORIENTED_EDGE('',*,*,#384,.T.);
#491=ORIENTED_EDGE('',*,*,#385,.T.);
#492=ORIENTED_EDGE('',*,*,#386,.T.);
#493=ORIENTED_EDGE('',*,*,#387,.T.);
#494=ORIENTED_EDGE('',*,*,#384,.F.);
#495=ORIENTED_EDGE('',*,*,#388,.T.);
#496=ORIENTED_EDGE('',*,*,#389,.T.);
#497=ORIENTED_EDGE('',*,*,#388,.F.);
#498=ORIENTED_EDGE('',*,*,#390,.T.);
#499=ORIENTED_EDGE('',*,*,#391,.T.);
#500=ORIENTED_EDGE('',*,*,#392,.T.);
#501=ORIENTED_EDGE('',*,*,#369,.T.);
#502=ORIENTED_EDGE('',*,*,#386,.F.);
#503=ORIENTED_EDGE('',*,*,#393,.T.);
#504=ORIENTED_EDGE('',*,*,#394,.F.);
#505=ORIENTED_EDGE('',*,*,#393,.F.);
#506=ORIENTED_EDGE('',*,*,#390,.F.);
#507=ORIENTED_EDGE('',*,*,#372,.T.);
#508=ORIENTED_EDGE('',*,*,#395,.F.);
#509=ORIENTED_EDGE('',*,*,#396,.F.);
#510=ORIENTED_EDGE('',*,*,#365,.F.);
#511=ORIENTED_EDGE('',*,*,#378,.T.);
#512=ORIENTED_EDGE('',*,*,#397,.T.);
#513=ORIENTED_EDGE('',*,*,#385,.F.);
#514=ORIENTED_EDGE('',*,*,#397,.F.);
#515=ORIENTED_EDGE('',*,*,#379,.T.);
#516=ORIENTED_EDGE('',*,*,#398,.T.);
#517=ORIENTED_EDGE('',*,*,#387,.F.);
#518=ORIENTED_EDGE('',*,*,#398,.F.);
#519=ORIENTED_EDGE('',*,*,#373,.F.);
#520=ORIENTED_EDGE('',*,*,#399,.T.);
#521=ORIENTED_EDGE('',*,*,#400,.F.);
#522=ORIENTED_EDGE('',*,*,#349,.T.);
#523=ORIENTED_EDGE('',*,*,#400,.T.);
#524=ORIENTED_EDGE('',*,*,#401,.T.);
#525=ORIENTED_EDGE('',*,*,#402,.F.);
#526=ORIENTED_EDGE('',*,*,#350,.T.);
#527=ORIENTED_EDGE('',*,*,#402,.T.);
#528=ORIENTED_EDGE('',*,*,#403,.T.);
#529=ORIENTED_EDGE('',*,*,#404,.T.);
#530=ORIENTED_EDGE('',*,*,#351,.T.);
#531=ORIENTED_EDGE('',*,*,#359,.F.);
#532=ORIENTED_EDGE('',*,*,#389,.F.);
#533=ORIENTED_EDGE('',*,*,#404,.F.);
#534=ORIENTED_EDGE('',*,*,#405,.T.);
#535=ORIENTED_EDGE('',*,*,#406,.F.);
#536=ORIENTED_EDGE('',*,*,#352,.T.);
#537=ORIENTED_EDGE('',*,*,#370,.F.);
#538=ORIENTED_EDGE('',*,*,#392,.F.);
#539=ORIENTED_EDGE('',*,*,#407,.T.);
#540=ORIENTED_EDGE('',*,*,#353,.T.);
#541=ORIENTED_EDGE('',*,*,#406,.T.);
#542=ORIENTED_EDGE('',*,*,#408,.T.);
#543=ORIENTED_EDGE('',*,*,#362,.F.);
#544=ORIENTED_EDGE('',*,*,#407,.F.);
#545=ORIENTED_EDGE('',*,*,#391,.F.);
#546=ORIENTED_EDGE('',*,*,#396,.T.);
#547=ORIENTED_EDGE('',*,*,#409,.T.);
#548=ORIENTED_EDGE('',*,*,#410,.F.);
#549=ORIENTED_EDGE('',*,*,#354,.T.);
#550=ORIENTED_EDGE('',*,*,#411,.F.);
#551=ORIENTED_EDGE('',*,*,#344,.T.);
#552=ORIENTED_EDGE('',*,*,#412,.T.);
#553=ORIENTED_EDGE('',*,*,#413,.F.);
#554=ORIENTED_EDGE('',*,*,#414,.F.);
#555=ORIENTED_EDGE('',*,*,#412,.F.);
#556=ORIENTED_EDGE('',*,*,#343,.T.);
#557=ORIENTED_EDGE('',*,*,#415,.T.);
#558=ORIENTED_EDGE('',*,*,#416,.F.);
#559=ORIENTED_EDGE('',*,*,#415,.F.);
#560=ORIENTED_EDGE('',*,*,#342,.T.);
#561=ORIENTED_EDGE('',*,*,#417,.T.);
#562=ORIENTED_EDGE('',*,*,#418,.F.);
#563=ORIENTED_EDGE('',*,*,#417,.F.);
#564=ORIENTED_EDGE('',*,*,#341,.T.);
#565=ORIENTED_EDGE('',*,*,#419,.T.);
#566=ORIENTED_EDGE('',*,*,#356,.F.);
#567=ORIENTED_EDGE('',*,*,#420,.F.);
#568=ORIENTED_EDGE('',*,*,#419,.F.);
#569=ORIENTED_EDGE('',*,*,#340,.T.);
#570=ORIENTED_EDGE('',*,*,#381,.F.);
#571=ORIENTED_EDGE('',*,*,#421,.F.);
#572=ORIENTED_EDGE('',*,*,#336,.T.);
#573=ORIENTED_EDGE('',*,*,#338,.T.);
#574=ORIENTED_EDGE('',*,*,#410,.T.);
#575=ORIENTED_EDGE('',*,*,#422,.T.);
#576=ORIENTED_EDGE('',*,*,#394,.T.);
#577=ORIENTED_EDGE('',*,*,#375,.F.);
#578=ORIENTED_EDGE('',*,*,#377,.F.);
#579=ORIENTED_EDGE('',*,*,#382,.F.);
#580=ORIENTED_EDGE('',*,*,#422,.F.);
#581=ORIENTED_EDGE('',*,*,#409,.F.);
#582=ORIENTED_EDGE('',*,*,#395,.T.);
#583=ORIENTED_EDGE('',*,*,#371,.T.);
#584=ORIENTED_EDGE('',*,*,#408,.F.);
#585=ORIENTED_EDGE('',*,*,#405,.F.);
#586=ORIENTED_EDGE('',*,*,#403,.F.);
#587=ORIENTED_EDGE('',*,*,#401,.F.);
#588=ORIENTED_EDGE('',*,*,#399,.F.);
#589=ORIENTED_EDGE('',*,*,#383,.F.);
#590=ORIENTED_EDGE('',*,*,#345,.T.);
#591=ORIENTED_EDGE('',*,*,#411,.T.);
#592=ORIENTED_EDGE('',*,*,#423,.F.);
#593=ORIENTED_EDGE('',*,*,#368,.F.);
#594=ORIENTED_EDGE('',*,*,#337,.T.);
#595=ORIENTED_EDGE('',*,*,#421,.T.);
#596=ORIENTED_EDGE('',*,*,#380,.F.);
#597=ORIENTED_EDGE('',*,*,#423,.T.);
#598=ORIENTED_EDGE('',*,*,#413,.T.);
#599=ORIENTED_EDGE('',*,*,#414,.T.);
#600=ORIENTED_EDGE('',*,*,#416,.T.);
#601=ORIENTED_EDGE('',*,*,#418,.T.);
#602=ORIENTED_EDGE('',*,*,#420,.T.);
#603=ORIENTED_EDGE('',*,*,#355,.T.);
#604=PLANE('',#672);
#605=PLANE('',#673);
#606=PLANE('',#682);
#607=PLANE('',#695);
#608=PLANE('',#696);
#609=PLANE('',#697);
#610=PLANE('',#698);
#611=PLANE('',#701);
#612=PLANE('',#702);
#613=PLANE('',#705);
#614=PLANE('',#710);
#615=PLANE('',#714);
#616=PLANE('',#717);
#617=PLANE('',#720);
#618=PLANE('',#723);
#619=PLANE('',#736);
#620=PLANE('',#737);
#621=PLANE('',#738);
#622=PLANE('',#739);
#623=ADVANCED_FACE('',(#77),#604,.F.);
#624=ADVANCED_FACE('',(#78),#605,.T.);
#625=ADVANCED_FACE('',(#79),#606,.T.);
#626=ADVANCED_FACE('',(#80),#28,.F.);
#627=ADVANCED_FACE('',(#81),#29,.F.);
#628=ADVANCED_FACE('',(#82),#30,.F.);
#629=ADVANCED_FACE('',(#83),#31,.F.);
#630=ADVANCED_FACE('',(#84),#607,.T.);
#631=ADVANCED_FACE('',(#85),#608,.F.);
#632=ADVANCED_FACE('',(#86),#609,.T.);
#633=ADVANCED_FACE('',(#87,#15,#16,#17,#18,#19),#610,.T.);
#634=ADVANCED_FACE('',(#88),#611,.T.);
#635=ADVANCED_FACE('',(#89,#20),#612,.T.);
#636=ADVANCED_FACE('',(#90,#21),#613,.T.);
#637=ADVANCED_FACE('',(#91),#32,.F.);
#638=ADVANCED_FACE('',(#92),#614,.T.);
#639=ADVANCED_FACE('',(#93),#33,.F.);
#640=ADVANCED_FACE('',(#94,#22),#615,.T.);
#641=ADVANCED_FACE('',(#95),#34,.F.);
#642=ADVANCED_FACE('',(#96),#35,.F.);
#643=ADVANCED_FACE('',(#97),#616,.T.);
#644=ADVANCED_FACE('',(#98),#36,.F.);
#645=ADVANCED_FACE('',(#99,#23,#24),#617,.T.);
#646=ADVANCED_FACE('',(#100),#37,.F.);
#647=ADVANCED_FACE('',(#101,#25),#618,.T.);
#648=ADVANCED_FACE('',(#102),#38,.F.);
#649=ADVANCED_FACE('',(#103),#39,.F.);
#650=ADVANCED_FACE('',(#104),#40,.F.);
#651=ADVANCED_FACE('',(#105),#41,.F.);
#652=ADVANCED_FACE('',(#106),#42,.F.);
#653=ADVANCED_FACE('',(#107),#43,.F.);
#654=ADVANCED_FACE('',(#108,#26),#619,.T.);
#655=ADVANCED_FACE('',(#109),#620,.T.);
#656=ADVANCED_FACE('',(#110,#27),#621,.T.);
#657=ADVANCED_FACE('',(#111),#622,.T.);
#658=CLOSED_SHELL('',(#623,#624,#625,#626,#627,#628,#629,#630,#631,#632,
#633,#634,#635,#636,#637,#638,#639,#640,#641,#642,#643,#644,#645,#646,#647,
#648,#649,#650,#651,#652,#653,#654,#655,#656,#657));
#659=DERIVED_UNIT_ELEMENT(#661,1.);
#660=DERIVED_UNIT_ELEMENT(#1126,-3.);
#661=(
MASS_UNIT()
NAMED_UNIT(*)
SI_UNIT(.KILO.,.GRAM.)
);
#662=DERIVED_UNIT((#659,#660));
#663=MEASURE_REPRESENTATION_ITEM('density measure',
POSITIVE_RATIO_MEASURE(7850.),#662);
#664=PROPERTY_DEFINITION_REPRESENTATION(#669,#666);
#665=PROPERTY_DEFINITION_REPRESENTATION(#670,#667);
#666=REPRESENTATION('material name',(#668),#1123);
#667=REPRESENTATION('density',(#663),#1123);
#668=DESCRIPTIVE_REPRESENTATION_ITEM('Steel','Steel');
#669=PROPERTY_DEFINITION('material property','material name',#1133);
#670=PROPERTY_DEFINITION('material property','density of part',#1133);
#671=AXIS2_PLACEMENT_3D('',#935,#740,#741);
#672=AXIS2_PLACEMENT_3D('',#936,#742,#743);
#673=AXIS2_PLACEMENT_3D('',#945,#748,#749);
#674=AXIS2_PLACEMENT_3D('',#951,#752,#753);
#675=AXIS2_PLACEMENT_3D('',#953,#754,#755);
#676=AXIS2_PLACEMENT_3D('',#955,#756,#757);
#677=AXIS2_PLACEMENT_3D('',#957,#758,#759);
#678=AXIS2_PLACEMENT_3D('',#959,#760,#761);
#679=AXIS2_PLACEMENT_3D('',#971,#767,#768);
#680=AXIS2_PLACEMENT_3D('',#975,#770,#771);
#681=AXIS2_PLACEMENT_3D('',#978,#773,#774);
#682=AXIS2_PLACEMENT_3D('',#979,#775,#776);
#683=AXIS2_PLACEMENT_3D('',#983,#779,#780);
#684=AXIS2_PLACEMENT_3D('',#985,#781,#782);
#685=AXIS2_PLACEMENT_3D('',#988,#784,#785);
#686=AXIS2_PLACEMENT_3D('',#989,#786,#787);
#687=AXIS2_PLACEMENT_3D('',#991,#788,#789);
#688=AXIS2_PLACEMENT_3D('',#994,#791,#792);
#689=AXIS2_PLACEMENT_3D('',#995,#793,#794);
#690=AXIS2_PLACEMENT_3D('',#997,#795,#796);
#691=AXIS2_PLACEMENT_3D('',#1000,#798,#799);
#692=AXIS2_PLACEMENT_3D('',#1001,#800,#801);
#693=AXIS2_PLACEMENT_3D('',#1003,#802,#803);
#694=AXIS2_PLACEMENT_3D('',#1006,#805,#806);
#695=AXIS2_PLACEMENT_3D('',#1007,#807,#808);
#696=AXIS2_PLACEMENT_3D('',#1008,#809,#810);
#697=AXIS2_PLACEMENT_3D('',#1017,#815,#816);
#698=AXIS2_PLACEMENT_3D('',#1023,#820,#821);
#699=AXIS2_PLACEMENT_3D('',#1028,#824,#825);
#700=AXIS2_PLACEMENT_3D('',#1030,#826,#827);
#701=AXIS2_PLACEMENT_3D('',#1031,#828,#829);
#702=AXIS2_PLACEMENT_3D('',#1039,#834,#835);
#703=AXIS2_PLACEMENT_3D('',#1041,#836,#837);
#704=AXIS2_PLACEMENT_3D('',#1043,#838,#839);
#705=AXIS2_PLACEMENT_3D('',#1044,#840,#841);
#706=AXIS2_PLACEMENT_3D('',#1046,#842,#843);
#707=AXIS2_PLACEMENT_3D('',#1048,#844,#845);
#708=AXIS2_PLACEMENT_3D('',#1049,#846,#847);
#709=AXIS2_PLACEMENT_3D('',#1052,#849,#850);
#710=AXIS2_PLACEMENT_3D('',#1053,#851,#852);
#711=AXIS2_PLACEMENT_3D('',#1057,#854,#855);
#712=AXIS2_PLACEMENT_3D('',#1059,#857,#858);
#713=AXIS2_PLACEMENT_3D('',#1062,#860,#861);
#714=AXIS2_PLACEMENT_3D('',#1063,#862,#863);
#715=AXIS2_PLACEMENT_3D('',#1067,#866,#867);
#716=AXIS2_PLACEMENT_3D('',#1069,#869,#870);
#717=AXIS2_PLACEMENT_3D('',#1071,#872,#873);
#718=AXIS2_PLACEMENT_3D('',#1075,#876,#877);
#719=AXIS2_PLACEMENT_3D('',#1077,#878,#879);
#720=AXIS2_PLACEMENT_3D('',#1079,#881,#882);
#721=AXIS2_PLACEMENT_3D('',#1083,#885,#886);
#722=AXIS2_PLACEMENT_3D('',#1085,#887,#888);
#723=AXIS2_PLACEMENT_3D('',#1087,#890,#891);
#724=AXIS2_PLACEMENT_3D('',#1090,#894,#895);
#725=AXIS2_PLACEMENT_3D('',#1092,#896,#897);
#726=AXIS2_PLACEMENT_3D('',#1094,#899,#900);
#727=AXIS2_PLACEMENT_3D('',#1099,#903,#904);
#728=AXIS2_PLACEMENT_3D('',#1100,#905,#906);
#729=AXIS2_PLACEMENT_3D('',#1102,#907,#908);
#730=AXIS2_PLACEMENT_3D('',#1104,#910,#911);
#731=AXIS2_PLACEMENT_3D('',#1106,#912,#913);
#732=AXIS2_PLACEMENT_3D('',#1108,#915,#916);
#733=AXIS2_PLACEMENT_3D('',#1110,#917,#918);
#734=AXIS2_PLACEMENT_3D('',#1112,#920,#921);
#735=AXIS2_PLACEMENT_3D('',#1113,#922,#923);
#736=AXIS2_PLACEMENT_3D('',#1114,#924,#925);
#737=AXIS2_PLACEMENT_3D('',#1117,#928,#929);
#738=AXIS2_PLACEMENT_3D('',#1118,#930,#931);
#739=AXIS2_PLACEMENT_3D('',#1120,#933,#934);
#740=DIRECTION('axis',(0.,0.,1.));
#741=DIRECTION('refdir',(1.,0.,0.));
#742=DIRECTION('center_axis',(-1.,8.88178419700124E-15,0.));
#743=DIRECTION('ref_axis',(0.,0.,1.));
#744=DIRECTION('',(8.88178419700124E-15,1.,0.));
#745=DIRECTION('',(0.,0.,1.));
#746=DIRECTION('',(-7.22096276178962E-15,-1.,0.));
#747=DIRECTION('',(0.,0.,-1.));
#748=DIRECTION('center_axis',(-5.46571335200077E-15,-1.,0.));
#749=DIRECTION('ref_axis',(-1.,5.46571335200077E-15,0.));
#750=DIRECTION('',(1.,-5.46571335200077E-15,0.));
#751=DIRECTION('',(1.,-5.9211894646675E-15,0.));
#752=DIRECTION('center_axis',(5.46571335200077E-15,1.,0.));
#753=DIRECTION('ref_axis',(0.,0.,-1.));
#754=DIRECTION('center_axis',(5.46571335200077E-15,1.,0.));
#755=DIRECTION('ref_axis',(0.,0.,-1.));
#756=DIRECTION('center_axis',(5.46571335200077E-15,1.,0.));
#757=DIRECTION('ref_axis',(0.,0.,-1.));
#758=DIRECTION('center_axis',(5.46571335200077E-15,1.,0.));
#759=DIRECTION('ref_axis',(0.,0.,-1.));
#760=DIRECTION('center_axis',(5.46571335200077E-15,1.,0.));
#761=DIRECTION('ref_axis',(0.,0.,-1.));
#762=DIRECTION('',(1.,-5.46571335200077E-15,0.));
#763=DIRECTION('',(0.,0.,1.));
#764=DIRECTION('',(1.,-5.48172618408671E-15,0.));
#765=DIRECTION('',(0.,0.,-1.));
#766=DIRECTION('',(1.,-5.46571335200077E-15,0.));
#767=DIRECTION('center_axis',(5.46571335200077E-15,1.,0.));
#768=DIRECTION('ref_axis',(0.,0.,-1.));
#769=DIRECTION('',(1.,-5.46571335200077E-15,0.));
#770=DIRECTION('center_axis',(5.46571335200077E-15,1.,0.));
#771=DIRECTION('ref_axis',(0.,0.,-1.));
#772=DIRECTION('',(1.,-5.46571335200077E-15,0.));
#773=DIRECTION('center_axis',(-5.46571335200077E-15,-1.,0.));
#774=DIRECTION('ref_axis',(0.,0.,-1.));
#775=DIRECTION('center_axis',(0.,0.,1.));
#776=DIRECTION('ref_axis',(-1.,5.46571335200077E-15,0.));
#777=DIRECTION('',(1.,-5.32907051820075E-15,0.));
#778=DIRECTION('',(-5.46571335200077E-15,-1.,0.));
#779=DIRECTION('center_axis',(0.,0.,1.));
#780=DIRECTION('ref_axis',(1.,0.,0.));
#781=DIRECTION('center_axis',(0.,0.,1.));
#782=DIRECTION('ref_axis',(1.,0.,0.));
#783=DIRECTION('',(0.,0.,1.));
#784=DIRECTION('center_axis',(0.,0.,-1.));
#785=DIRECTION('ref_axis',(1.,0.,0.));
#786=DIRECTION('center_axis',(0.,0.,1.));
#787=DIRECTION('ref_axis',(1.,0.,0.));
#788=DIRECTION('center_axis',(0.,0.,1.));
#789=DIRECTION('ref_axis',(1.,0.,0.));
#790=DIRECTION('',(0.,0.,1.));
#791=DIRECTION('center_axis',(0.,0.,-1.));
#792=DIRECTION('ref_axis',(1.,0.,0.));
#793=DIRECTION('center_axis',(0.,0.,1.));
#794=DIRECTION('ref_axis',(1.,0.,0.));
#795=DIRECTION('center_axis',(0.,0.,1.));
#796=DIRECTION('ref_axis',(1.,0.,0.));
#797=DIRECTION('',(0.,0.,1.));
#798=DIRECTION('center_axis',(0.,0.,-1.));
#799=DIRECTION('ref_axis',(1.,0.,0.));
#800=DIRECTION('center_axis',(0.,0.,1.));
#801=DIRECTION('ref_axis',(1.,0.,0.));
#802=DIRECTION('center_axis',(0.,0.,-1.));
#803=DIRECTION('ref_axis',(1.,0.,0.));
#804=DIRECTION('',(0.,0.,1.));
#805=DIRECTION('center_axis',(0.,0.,-1.));
#806=DIRECTION('ref_axis',(1.,0.,0.));
#807=DIRECTION('center_axis',(0.,0.,1.));
#808=DIRECTION('ref_axis',(1.,0.,0.));
#809=DIRECTION('center_axis',(-1.,0.,0.));
#810=DIRECTION('ref_axis',(0.,0.,-1.));
#811=DIRECTION('',(0.,0.,1.));
#812=DIRECTION('',(0.,1.,0.));
#813=DIRECTION('',(0.,0.,-1.));
#814=DIRECTION('',(5.46571335200077E-15,1.,0.));
#815=DIRECTION('center_axis',(1.,-5.60364933564748E-15,0.));
#816=DIRECTION('ref_axis',(0.,0.,1.));
#817=DIRECTION('',(-5.60364933564748E-15,-1.,0.));
#818=DIRECTION('',(5.60364933564748E-15,1.,0.));
#819=DIRECTION('',(0.,0.,1.));
#820=DIRECTION('center_axis',(0.,0.,-1.));
#821=DIRECTION('ref_axis',(1.,-5.46571335200077E-15,0.));
#822=DIRECTION('',(-5.38877818044002E-15,-1.,0.));
#823=DIRECTION('',(1.,-5.46571335200077E-15,0.));
#824=DIRECTION('center_axis',(0.,0.,-1.));
#825=DIRECTION('ref_axis',(1.,0.,0.));
#826=DIRECTION('center_axis',(0.,0.,-1.));
#827=DIRECTION('ref_axis',(1.,0.,0.));
#828=DIRECTION('center_axis',(-1.,5.38877818044002E-15,0.));
#829=DIRECTION('ref_axis',(0.,0.,-1.));
#830=DIRECTION('',(0.,0.,-1.));
#831=DIRECTION('',(5.38877818044002E-15,1.,0.));
#832=DIRECTION('',(0.,0.,-1.));
#833=DIRECTION('',(5.38877818044002E-15,1.,0.));
#834=DIRECTION('center_axis',(0.,0.,1.));
#835=DIRECTION('ref_axis',(1.,0.,0.));
#836=DIRECTION('center_axis',(0.,0.,1.));
#837=DIRECTION('ref_axis',(1.,0.,0.));
#838=DIRECTION('center_axis',(0.,0.,-1.));
#839=DIRECTION('ref_axis',(1.,0.,0.));
#840=DIRECTION('center_axis',(0.,0.,1.));
#841=DIRECTION('ref_axis',(1.,0.,0.));
#842=DIRECTION('center_axis',(0.,0.,1.));
#843=DIRECTION('ref_axis',(1.,0.,0.));
#844=DIRECTION('center_axis',(0.,0.,-1.));
#845=DIRECTION('ref_axis',(1.,0.,0.));
#846=DIRECTION('center_axis',(0.,0.,1.));
#847=DIRECTION('ref_axis',(1.,0.,0.));
#848=DIRECTION('',(0.,0.,1.));
#849=DIRECTION('center_axis',(0.,0.,1.));
#850=DIRECTION('ref_axis',(1.,0.,0.));
#851=DIRECTION('center_axis',(-5.46571335200077E-15,-1.,0.));
#852=DIRECTION('ref_axis',(-1.,5.46571335200077E-15,0.));
#853=DIRECTION('',(-1.,5.46571335200077E-15,0.));
#854=DIRECTION('center_axis',(5.46571335200077E-15,1.,0.));
#855=DIRECTION('ref_axis',(0.,0.,-1.));
#856=DIRECTION('',(1.,0.,0.));
#857=DIRECTION('center_axis',(0.,0.,1.));
#858=DIRECTION('ref_axis',(1.,0.,0.));
#859=DIRECTION('',(0.,0.,1.));
#860=DIRECTION('center_axis',(0.,0.,-1.));
#861=DIRECTION('ref_axis',(1.,0.,0.));
#862=DIRECTION('center_axis',(0.,0.,1.));
#863=DIRECTION('ref_axis',(-1.,0.,0.));
#864=DIRECTION('',(1.,0.,0.));
#865=DIRECTION('',(5.45859653774035E-15,1.,0.));
#866=DIRECTION('center_axis',(0.,0.,1.));
#867=DIRECTION('ref_axis',(1.,0.,0.));
#868=DIRECTION('',(0.,0.,1.));
#869=DIRECTION('center_axis',(0.,0.,1.));
#870=DIRECTION('ref_axis',(1.,0.,0.));
#871=DIRECTION('',(0.,0.,1.));
#872=DIRECTION('center_axis',(0.,0.,1.));
#873=DIRECTION('ref_axis',(-1.,0.,0.));
#874=DIRECTION('',(-1.,5.46571335200077E-15,0.));
#875=DIRECTION('',(8.88178419700128E-15,1.,0.));
#876=DIRECTION('center_axis',(5.46571335200077E-15,1.,0.));
#877=DIRECTION('ref_axis',(0.,0.,-1.));
#878=DIRECTION('center_axis',(5.46571335200077E-15,1.,0.));
#879=DIRECTION('ref_axis',(0.,0.,-1.));
#880=DIRECTION('',(5.45859653774035E-15,1.,0.));
#881=DIRECTION('center_axis',(0.,0.,1.));
#882=DIRECTION('ref_axis',(-1.,0.,0.));
#883=DIRECTION('',(-1.,5.46571335200077E-15,0.));
#884=DIRECTION('',(-5.46571335200077E-15,-1.,0.));
#885=DIRECTION('center_axis',(5.46571335200077E-15,1.,0.));
#886=DIRECTION('ref_axis',(0.,0.,-1.));
#887=DIRECTION('center_axis',(5.46571335200077E-15,1.,0.));
#888=DIRECTION('ref_axis',(0.,0.,-1.));
#889=DIRECTION('',(5.46571335200077E-15,1.,0.));
#890=DIRECTION('center_axis',(0.,0.,1.));
#891=DIRECTION('ref_axis',(-1.,0.,0.));
#892=DIRECTION('',(-5.46571335200077E-15,-1.,0.));
#893=DIRECTION('',(-1.,5.46571335200077E-15,0.));
#894=DIRECTION('center_axis',(5.46571335200077E-15,1.,0.));
#895=DIRECTION('ref_axis',(0.,0.,-1.));
#896=DIRECTION('center_axis',(5.46571335200077E-15,1.,0.));
#897=DIRECTION('ref_axis',(0.,0.,-1.));
#898=DIRECTION('',(5.45859653774035E-15,1.,0.));
#899=DIRECTION('center_axis',(5.46571335200077E-15,1.,0.));
#900=DIRECTION('ref_axis',(0.,0.,-1.));
#901=DIRECTION('',(5.46571335200077E-15,1.,0.));
#902=DIRECTION('',(5.45859653774035E-15,1.,0.));
#903=DIRECTION('center_axis',(-5.32907051820075E-15,-1.,0.));
#904=DIRECTION('ref_axis',(0.,0.,-1.));
#905=DIRECTION('center_axis',(5.46571335200077E-15,1.,0.));
#906=DIRECTION('ref_axis',(0.,0.,-1.));
#907=DIRECTION('center_axis',(-5.32907051820075E-15,-1.,0.));
#908=DIRECTION('ref_axis',(0.,0.,-1.));
#909=DIRECTION('',(5.45859653774035E-15,1.,0.));
#910=DIRECTION('center_axis',(5.46571335200077E-15,1.,0.));
#911=DIRECTION('ref_axis',(0.,0.,-1.));
#912=DIRECTION('center_axis',(-5.32907051820075E-15,-1.,0.));
#913=DIRECTION('ref_axis',(0.,0.,-1.));
#914=DIRECTION('',(5.45859653774035E-15,1.,0.));
#915=DIRECTION('center_axis',(5.46571335200077E-15,1.,0.));
#916=DIRECTION('ref_axis',(0.,0.,-1.));
#917=DIRECTION('center_axis',(-5.32907051820075E-15,-1.,0.));
#918=DIRECTION('ref_axis',(0.,0.,-1.));
#919=DIRECTION('',(5.45859653774035E-15,1.,0.));
#920=DIRECTION('center_axis',(5.46571335200077E-15,1.,0.));
#921=DIRECTION('ref_axis',(0.,0.,-1.));
#922=DIRECTION('center_axis',(-5.32907051820075E-15,-1.,0.));
#923=DIRECTION('ref_axis',(0.,0.,-1.));
#924=DIRECTION('center_axis',(0.,0.,1.));
#925=DIRECTION('ref_axis',(-1.,0.,0.));
#926=DIRECTION('',(-1.,5.9211894646675E-15,0.));
#927=DIRECTION('',(-1.,5.46571335200077E-15,0.));
#928=DIRECTION('center_axis',(5.46571335200077E-15,1.,0.));
#929=DIRECTION('ref_axis',(1.,-5.46571335200077E-15,0.));
#930=DIRECTION('center_axis',(0.,0.,1.));
#931=DIRECTION('ref_axis',(-1.,5.46571335200077E-15,0.));
#932=DIRECTION('',(1.,-5.32907051820075E-15,0.));
#933=DIRECTION('center_axis',(5.32907051820075E-15,1.,0.));
#934=DIRECTION('ref_axis',(1.,-5.32907051820075E-15,0.));
#935=CARTESIAN_POINT('',(0.,0.,0.));
#936=CARTESIAN_POINT('Origin',(-46.2699999999999,-80.5,-1.688));
#937=CARTESIAN_POINT('',(-46.27,-93.5,-1.688));
#938=CARTESIAN_POINT('',(-46.2699999999999,-81.5,-1.688));
#939=CARTESIAN_POINT('',(-46.2699999999999,-83.75,-1.688));
#940=CARTESIAN_POINT('',(-46.27,-93.5,-7.196));
#941=CARTESIAN_POINT('',(-46.27,-93.5,-4.694));
#942=CARTESIAN_POINT('',(-46.2699999999999,-81.5,-7.196));
#943=CARTESIAN_POINT('',(-46.27,-83.75,-7.196));
#944=CARTESIAN_POINT('',(-46.2699999999999,-81.5,-1.688));
#945=CARTESIAN_POINT('Origin',(-46.,-93.5,-7.7));
#946=CARTESIAN_POINT('',(-44.2698380556091,-93.5,-7.196));
#947=CARTESIAN_POINT('',(-46.,-93.5,-7.196));
#948=CARTESIAN_POINT('',(-50.5093228229562,-93.5,-1.688));
#949=CARTESIAN_POINT('',(-48.5,-93.5,-1.688));
#950=CARTESIAN_POINT('',(-52.2049172643847,-93.5,-2.76669918574493));
#951=CARTESIAN_POINT('Origin',(-51.9549172643846,-93.4999999999999,-1.28767923997002));
#952=CARTESIAN_POINT('',(-52.9549172643846,-93.4999999999999,-2.70189280234311));
#953=CARTESIAN_POINT('Origin',(-52.4549172643846,-93.4999999999999,-1.28767923997002));
#954=CARTESIAN_POINT('',(-53.9549172643846,-93.4999999999999,-2.70189280234311));
#955=CARTESIAN_POINT('Origin',(-53.4549172643846,-93.4999999999999,-1.28767923997002));
#956=CARTESIAN_POINT('',(-54.7049172643846,-93.4999999999999,-2.76669918574492));
#957=CARTESIAN_POINT('Origin',(-54.4549172643846,-93.4999999999999,-1.28767923997002));
#958=CARTESIAN_POINT('',(-56.4005117058132,-93.4999999999999,-1.688));
#959=CARTESIAN_POINT('Origin',(-54.9549172643846,-93.4999999999999,-1.28767923997002));
#960=CARTESIAN_POINT('',(-64.759,-93.4999999999999,-1.688));
#961=CARTESIAN_POINT('',(-46.,-93.5,-1.688));
#962=CARTESIAN_POINT('',(-64.759,-93.4999999999999,-12.7));
#963=CARTESIAN_POINT('',(-64.759,-93.4999999999999,-7.7));
#964=CARTESIAN_POINT('',(-2.51000000000003,-93.5000000000002,-12.7));
#965=CARTESIAN_POINT('',(-26.,-93.5000000000001,-12.7));
#966=CARTESIAN_POINT('',(-2.51000000000003,-93.5000000000002,-7.798));
#967=CARTESIAN_POINT('',(-2.51000000000003,-93.5000000000002,-7.7));
#968=CARTESIAN_POINT('',(-3.75932083890088,-93.5000000000002,-7.798));
#969=CARTESIAN_POINT('',(-46.,-93.5,-7.798));
#970=CARTESIAN_POINT('',(-6.65051183453108,-93.5000000000002,-7.798));
#971=CARTESIAN_POINT('Origin',(-5.20491633671598,-93.5000000000002,-7.39768305469702));
#972=CARTESIAN_POINT('',(-20.7593208493916,-93.5000000000001,-7.798));
#973=CARTESIAN_POINT('',(-46.,-93.5,-7.798));
#974=CARTESIAN_POINT('',(-23.6505118450219,-93.5000000000001,-7.798));
#975=CARTESIAN_POINT('Origin',(-22.2049163472068,-93.5000000000001,-7.39768305469702));
#976=CARTESIAN_POINT('',(-40.90853656736,-93.5,-7.798));
#977=CARTESIAN_POINT('',(-43.3287026427517,-93.5,-7.798));
#978=CARTESIAN_POINT('Origin',(-42.4636216705562,-93.5,-6.7958970502902));
#979=CARTESIAN_POINT('Origin',(-46.,-87.,-1.688));
#980=CARTESIAN_POINT('',(-50.5093228229561,-81.5,-1.688));
#981=CARTESIAN_POINT('',(-48.254661411478,-81.5,-1.688));
#982=CARTESIAN_POINT('',(-50.5093228229562,-91.031000594371,-1.688));
#983=CARTESIAN_POINT('Origin',(-11.8889163367159,-73.0000000000003,-9.39768305469702));
#984=CARTESIAN_POINT('',(-13.5970663367159,-73.0000000000003,-12.7));
#985=CARTESIAN_POINT('Origin',(-11.8889163367159,-73.0000000000003,-12.7));
#986=CARTESIAN_POINT('',(-13.5970663367159,-73.0000000000003,-7.798));
#987=CARTESIAN_POINT('',(-13.5970663367159,-73.0000000000003,-9.39768305469702));
#988=CARTESIAN_POINT('Origin',(-11.8889163367159,-73.0000000000003,-7.798));
#989=CARTESIAN_POINT('Origin',(-28.8889163472067,-87.0000000000002,-9.39768305469702));
#990=CARTESIAN_POINT('',(-30.5970663472067,-87.0000000000002,-12.7));
#991=CARTESIAN_POINT('Origin',(-28.8889163472067,-87.0000000000002,-12.7));
#992=CARTESIAN_POINT('',(-30.5970663472067,-87.0000000000002,-7.798));
#993=CARTESIAN_POINT('',(-30.5970663472067,-87.0000000000002,-9.39768305469702));
#994=CARTESIAN_POINT('Origin',(-28.8889163472067,-87.0000000000002,-7.798));
#995=CARTESIAN_POINT('Origin',(-35.7796216705561,-72.9999999999999,-8.7958970502902));
#996=CARTESIAN_POINT('',(-37.4877716705561,-72.9999999999999,-12.7));
#997=CARTESIAN_POINT('Origin',(-35.7796216705561,-72.9999999999999,-12.7));
#998=CARTESIAN_POINT('',(-37.4877716705561,-72.9999999999999,-7.196));
#999=CARTESIAN_POINT('',(-37.4877716705561,-72.9999999999999,-8.7958970502902));
#1000=CARTESIAN_POINT('Origin',(-35.7796216705561,-72.9999999999999,-7.196));
#1001=CARTESIAN_POINT('Origin',(-60.1389172643846,-88.,-3.28767923997002));
#1002=CARTESIAN_POINT('',(-61.8470672643846,-88.,-11.688));
#1003=CARTESIAN_POINT('Origin',(-60.1389172643846,-88.,-11.688));
#1004=CARTESIAN_POINT('',(-61.8470672643846,-88.,-1.688));
#1005=CARTESIAN_POINT('',(-61.8470672643846,-88.,-3.28767923997002));
#1006=CARTESIAN_POINT('Origin',(-60.1389172643846,-88.,-1.688));
#1007=CARTESIAN_POINT('Origin',(-60.0165748596191,-86.8174743652344,-11.688));
#1008=CARTESIAN_POINT('Origin',(-31.849,-80.0000000000001,-7.798));
#1009=CARTESIAN_POINT('',(-31.849,-80.0000000000001,-7.798));
#1010=CARTESIAN_POINT('',(-31.849,-80.0000000000001,-7.196));
#1011=CARTESIAN_POINT('',(-31.849,-80.0000000000001,-7.497));
#1012=CARTESIAN_POINT('',(-31.8489999999999,-66.5000000000001,-7.798));
#1013=CARTESIAN_POINT('',(-31.849,-83.5000000000001,-7.798));
#1014=CARTESIAN_POINT('',(-31.8489999999999,-66.5000000000001,-7.196));
#1015=CARTESIAN_POINT('',(-31.8489999999999,-66.5000000000001,-4.694));
#1016=CARTESIAN_POINT('',(-31.849,-83.7500000000001,-7.196));
#1017=CARTESIAN_POINT('Origin',(-2.50999999999999,-87.0000000000002,-7.7));
#1018=CARTESIAN_POINT('',(-2.50999999999988,-66.5000000000002,-7.798));
#1019=CARTESIAN_POINT('',(-2.50999999999999,-87.0000000000002,-7.798));
#1020=CARTESIAN_POINT('',(-2.50999999999988,-66.5000000000002,-12.7));
#1021=CARTESIAN_POINT('',(-2.50999999999999,-87.0000000000002,-12.7));
#1022=CARTESIAN_POINT('',(-2.50999999999988,-66.5000000000002,-7.7));
#1023=CARTESIAN_POINT('Origin',(-46.,-87.,-12.7));
#1024=CARTESIAN_POINT('',(-64.7589999999999,-66.4999999999999,-12.7));
#1025=CARTESIAN_POINT('',(-64.7589999999999,-86.9999999999999,-12.7));
#1026=CARTESIAN_POINT('',(-45.9999999999999,-66.5,-12.7));
#1027=CARTESIAN_POINT('',(-15.59075,-87.2500000000003,-12.7));
#1028=CARTESIAN_POINT('Origin',(-13.40625,-87.2500000000003,-12.7));
#1029=CARTESIAN_POINT('',(-60.698161411478,-73.4999999999999,-12.7));
#1030=CARTESIAN_POINT('Origin',(-58.513661411478,-73.4999999999999,-12.7));
#1031=CARTESIAN_POINT('Origin',(-64.7589999999999,-86.9999999999999,-7.7));
#1032=CARTESIAN_POINT('',(-64.7589999999999,-81.4999999999999,-1.688));
#1033=CARTESIAN_POINT('',(-64.7589999999999,-81.4999999999999,-7.196));
#1034=CARTESIAN_POINT('',(-64.7589999999999,-81.4999999999999,-4.694));
#1035=CARTESIAN_POINT('',(-64.7589999999999,-66.4999999999999,-7.196));
#1036=CARTESIAN_POINT('',(-64.7589999999999,-86.9999999999999,-7.196));
#1037=CARTESIAN_POINT('',(-64.7589999999998,-66.4999999999999,-7.7));
#1038=CARTESIAN_POINT('',(-64.7589999999999,-86.9999999999999,-1.688));
#1039=CARTESIAN_POINT('Origin',(-13.40625,-87.2500000000003,-10.81));
#1040=CARTESIAN_POINT('',(-16.90625,-87.2500000000003,-10.81));
#1041=CARTESIAN_POINT('Origin',(-13.40625,-87.2500000000003,-10.81));
#1042=CARTESIAN_POINT('',(-15.59075,-87.2500000000003,-10.81));
#1043=CARTESIAN_POINT('Origin',(-13.40625,-87.2500000000003,-10.81));
#1044=CARTESIAN_POINT('Origin',(-58.513661411478,-73.4999999999999,-10.208));
#1045=CARTESIAN_POINT('',(-62.013661411478,-73.4999999999999,-10.208));
#1046=CARTESIAN_POINT('Origin',(-58.513661411478,-73.4999999999999,-10.208));
#1047=CARTESIAN_POINT('',(-60.698161411478,-73.4999999999999,-10.208));
#1048=CARTESIAN_POINT('Origin',(-58.513661411478,-73.4999999999999,-10.208));
#1049=CARTESIAN_POINT('Origin',(-13.40625,-87.2500000000003,-3.));
#1050=CARTESIAN_POINT('',(-16.90625,-87.2500000000003,-7.798));
#1051=CARTESIAN_POINT('',(-16.90625,-87.2500000000003,-3.));
#1052=CARTESIAN_POINT('Origin',(-13.40625,-87.2500000000003,-7.798));
#1053=CARTESIAN_POINT('Origin',(-32.25,-80.0000000000001,-7.196));
#1054=CARTESIAN_POINT('',(-40.6574052855032,-80.0000000000001,-7.196));
#1055=CARTESIAN_POINT('',(-39.125,-80.0000000000001,-7.196));
#1056=CARTESIAN_POINT('',(-40.9085365673599,-80.0000000000001,-7.798));
#1057=CARTESIAN_POINT('Origin',(-42.4636216705561,-80.,-6.7958970502902));
#1058=CARTESIAN_POINT('',(-39.125,-80.0000000000001,-7.798));
#1059=CARTESIAN_POINT('Origin',(-58.513661411478,-73.4999999999999,-3.));
#1060=CARTESIAN_POINT('',(-62.013661411478,-73.4999999999999,-7.196));
#1061=CARTESIAN_POINT('',(-62.013661411478,-73.4999999999999,-3.));
#1062=CARTESIAN_POINT('Origin',(-58.513661411478,-73.4999999999999,-7.196));
#1063=CARTESIAN_POINT('Origin',(-46.,-87.,-7.196));
#1064=CARTESIAN_POINT('',(-40.6574052855032,-66.5,-7.196));
#1065=CARTESIAN_POINT('',(-32.2499999999999,-66.5000000000001,-7.196));
#1066=CARTESIAN_POINT('',(-40.6574052855033,-80.5,-7.196));
#1067=CARTESIAN_POINT('Origin',(-13.40625,-87.2500000000003,-7.));
#1068=CARTESIAN_POINT('',(-15.59075,-87.2500000000003,-7.));
#1069=CARTESIAN_POINT('Origin',(-58.513661411478,-73.4999999999999,-7.));
#1070=CARTESIAN_POINT('',(-60.698161411478,-73.4999999999999,-7.));
#1071=CARTESIAN_POINT('Origin',(-46.,-87.,-7.798));
#1072=CARTESIAN_POINT('',(-3.75932083890072,-66.5000000000002,-7.798));
#1073=CARTESIAN_POINT('',(-45.9999999999999,-66.5,-7.798));
#1074=CARTESIAN_POINT('',(-3.75932083890073,-67.5000000000002,-7.798));
#1075=CARTESIAN_POINT('Origin',(-5.20491633671602,-101.476956252341,-7.39768305469702));
#1076=CARTESIAN_POINT('',(-6.65051183453092,-66.5000000000002,-7.798));
#1077=CARTESIAN_POINT('Origin',(-5.20491633671582,-66.5000000000002,-7.39768305469702));
#1078=CARTESIAN_POINT('',(-6.65051183453101,-80.5000000000002,-7.798));
#1079=CARTESIAN_POINT('Origin',(-46.,-87.,-7.798));
#1080=CARTESIAN_POINT('',(-20.7593208493915,-66.5000000000001,-7.798));
#1081=CARTESIAN_POINT('',(-45.9999999999999,-66.5,-7.798));
#1082=CARTESIAN_POINT('',(-20.7593208493917,-101.596956252341,-7.798));
#1083=CARTESIAN_POINT('Origin',(-22.2049163472068,-101.596956252341,-7.39768305469702));
#1084=CARTESIAN_POINT('',(-23.6505118450217,-66.5000000000001,-7.798));
#1085=CARTESIAN_POINT('Origin',(-22.2049163472066,-66.5000000000001,-7.39768305469702));
#1086=CARTESIAN_POINT('',(-23.6505118450219,-101.596956252341,-7.798));
#1087=CARTESIAN_POINT('Origin',(-46.,-87.,-7.798));
#1088=CARTESIAN_POINT('',(-40.9085365673599,-87.0000000000024,-7.798));
#1089=CARTESIAN_POINT('',(-45.9999999999999,-66.5,-7.798));
#1090=CARTESIAN_POINT('Origin',(-42.4636216705562,-87.0000000000024,-6.7958970502902));
#1091=CARTESIAN_POINT('',(-44.269838055609,-66.5,-7.196));
#1092=CARTESIAN_POINT('Origin',(-42.4636216705561,-66.5,-6.7958970502902));
#1093=CARTESIAN_POINT('',(-44.269838055609,-80.5,-7.196));
#1094=CARTESIAN_POINT('Origin',(-54.9549172643847,-111.031000594367,-1.28767923997002));
#1095=CARTESIAN_POINT('',(-56.400511705813,-81.4999999999999,-1.688));
#1096=CARTESIAN_POINT('',(-56.4005117058133,-111.031000594367,-1.688));
#1097=CARTESIAN_POINT('',(-54.7049172643846,-81.4999999999999,-2.76669918574492));
#1098=CARTESIAN_POINT('',(-54.7049172643846,-80.4999999999999,-2.76669918574492));
#1099=CARTESIAN_POINT('Origin',(-54.9549172643846,-81.4999999999999,-1.28767923997002));
#1100=CARTESIAN_POINT('Origin',(-54.4549172643847,-111.031000594371,-1.28767923997002));
#1101=CARTESIAN_POINT('',(-53.9549172643846,-81.4999999999999,-2.70189280234311));
#1102=CARTESIAN_POINT('Origin',(-54.4549172643846,-81.4999999999999,-1.28767923997002));
#1103=CARTESIAN_POINT('',(-53.9549172643846,-80.5,-2.70189280234311));
#1104=CARTESIAN_POINT('Origin',(-53.4549172643847,-111.031000594371,-1.28767923997002));
#1105=CARTESIAN_POINT('',(-52.9549172643846,-81.4999999999999,-2.70189280234311));
#1106=CARTESIAN_POINT('Origin',(-53.4549172643846,-81.4999999999999,-1.28767923997002));
#1107=CARTESIAN_POINT('',(-52.9549172643846,-80.5,-2.70189280234311));
#1108=CARTESIAN_POINT('Origin',(-52.4549172643847,-111.031000594371,-1.28767923997002));
#1109=CARTESIAN_POINT('',(-52.2049172643846,-81.4999999999999,-2.76669918574493));
#1110=CARTESIAN_POINT('Origin',(-52.4549172643846,-81.4999999999999,-1.28767923997002));
#1111=CARTESIAN_POINT('',(-52.2049172643846,-80.5,-2.76669918574493));
#1112=CARTESIAN_POINT('Origin',(-51.9549172643847,-91.0310005943709,-1.28767923997002));
#1113=CARTESIAN_POINT('Origin',(-51.9549172643847,-81.4999999999999,-1.28767923997002));
#1114=CARTESIAN_POINT('Origin',(-46.,-87.,-7.196));
#1115=CARTESIAN_POINT('',(-47.25,-81.5,-7.196));
#1116=CARTESIAN_POINT('',(-45.9999999999999,-66.5,-7.196));
#1117=CARTESIAN_POINT('Origin',(-45.9999999999999,-66.5,-7.7));
#1118=CARTESIAN_POINT('Origin',(-46.,-87.,-1.688));
#1119=CARTESIAN_POINT('',(-48.254661411478,-81.5,-1.688));
#1120=CARTESIAN_POINT('Origin',(-50.5093228229561,-81.5,-1.688));
#1121=UNCERTAINTY_MEASURE_WITH_UNIT(LENGTH_MEASURE(0.01),#1125,
'DISTANCE_ACCURACY_VALUE',
'Maximum model space distance between geometric entities at asserted c
onnectivities');
#1122=UNCERTAINTY_MEASURE_WITH_UNIT(LENGTH_MEASURE(0.01),#1125,
'DISTANCE_ACCURACY_VALUE',
'Maximum model space distance between geometric entities at asserted c
onnectivities');
#1123=(
GEOMETRIC_REPRESENTATION_CONTEXT(3)
GLOBAL_UNCERTAINTY_ASSIGNED_CONTEXT((#1121))
GLOBAL_UNIT_ASSIGNED_CONTEXT((#1125,#1127,#1128))
REPRESENTATION_CONTEXT('','3D')
);
#1124=(
GEOMETRIC_REPRESENTATION_CONTEXT(3)
GLOBAL_UNCERTAINTY_ASSIGNED_CONTEXT((#1122))
GLOBAL_UNIT_ASSIGNED_CONTEXT((#1125,#1127,#1128))
REPRESENTATION_CONTEXT('','3D')
);
#1125=(
LENGTH_UNIT()
NAMED_UNIT(*)
SI_UNIT(.MILLI.,.METRE.)
);
#1126=(
LENGTH_UNIT()
NAMED_UNIT(*)
SI_UNIT($,.METRE.)
);
#1127=(
NAMED_UNIT(*)
PLANE_ANGLE_UNIT()
SI_UNIT($,.RADIAN.)
);
#1128=(
NAMED_UNIT(*)
SI_UNIT($,.STERADIAN.)
SOLID_ANGLE_UNIT()
);
#1129=SHAPE_DEFINITION_REPRESENTATION(#1130,#1131);
#1130=PRODUCT_DEFINITION_SHAPE('',$,#1133);
#1131=SHAPE_REPRESENTATION('',(#671),#1123);
#1132=PRODUCT_DEFINITION_CONTEXT('part definition',#1137,'design');
#1133=PRODUCT_DEFINITION('2026-07-04-02-52-55-192',
'Fiber_Clamp_Koheron',#1134,#1132);
#1134=PRODUCT_DEFINITION_FORMATION('',$,#1139);
#1135=PRODUCT_RELATED_PRODUCT_CATEGORY('Fiber_Clamp_Koheron',
'Fiber_Clamp_Koheron',(#1139));
#1136=APPLICATION_PROTOCOL_DEFINITION('international standard',
'automotive_design',2009,#1137);
#1137=APPLICATION_CONTEXT(
'Core Data for Automotive Mechanical Design Process');
#1138=PRODUCT_CONTEXT('part definition',#1137,'mechanical');
#1139=PRODUCT('2026-07-04-02-52-55-192','Fiber_Clamp_Koheron',$,(#1138));
#1140=PRESENTATION_STYLE_ASSIGNMENT((#1142));
#1141=PRESENTATION_STYLE_ASSIGNMENT((#1143));
#1142=SURFACE_STYLE_USAGE(.BOTH.,#1144);
#1143=SURFACE_STYLE_USAGE(.BOTH.,#1145);
#1144=SURFACE_SIDE_STYLE('',(#1146));
#1145=SURFACE_SIDE_STYLE('',(#1147));
#1146=SURFACE_STYLE_FILL_AREA(#1148);
#1147=SURFACE_STYLE_FILL_AREA(#1149);
#1148=FILL_AREA_STYLE('Plate',(#1150));
#1149=FILL_AREA_STYLE('Opaque(160,160,160)',(#1151));
#1150=FILL_AREA_STYLE_COLOUR('Plate',#1152);
#1151=FILL_AREA_STYLE_COLOUR('Opaque(160,160,160)',#1153);
#1152=COLOUR_RGB('Plate',0.6,0.6,0.6);
#1153=COLOUR_RGB('Opaque(160,160,160)',0.627450980392157,0.627450980392157,
0.627450980392157);
ENDSEC;
END-ISO-10303-21;
