ISO-10303-21;
HEADER;
/* Generated by software containing ST-Developer
 * from STEP Tools, Inc. (www.steptools.com) 
 */

FILE_DESCRIPTION(
/* description */ (''),
/* implementation_level */ '2;1');

FILE_NAME(
/* name */ 'Fiber_Clamp_Koheron2.step',
/* time_stamp */ '2026-07-08T16:56:51-05:00',
/* author */ (''),
/* organization */ (''),
/* preprocessor_version */ 'ST-DEVELOPER v20.1',
/* originating_system */ 'Autodesk Translation Framework v15.8.0.0',
/* authorisation */ '');

FILE_SCHEMA (('AUTOMOTIVE_DESIGN { 1 0 10303 214 3 1 1 }'));
ENDSEC;

DATA;
#10=MECHANICAL_DESIGN_GEOMETRIC_PRESENTATION_REPRESENTATION('',(#13),#1100);
#11=SHAPE_REPRESENTATION_RELATIONSHIP('SRR','None',#1107,#12);
#12=ADVANCED_BREP_SHAPE_REPRESENTATION('',(#14),#1099);
#13=STYLED_ITEM('',(#1117),#14);
#14=MANIFOLD_SOLID_BREP('Body1',#650);
#15=CYLINDRICAL_SURFACE('',#686,2.15);
#16=CYLINDRICAL_SURFACE('',#687,2.15);
#17=CYLINDRICAL_SURFACE('',#693,1.70815);
#18=CYLINDRICAL_SURFACE('',#697,1.70815);
#19=CYLINDRICAL_SURFACE('',#711,1.5);
#20=CYLINDRICAL_SURFACE('',#712,1.5);
#21=CYLINDRICAL_SURFACE('',#713,1.5);
#22=CYLINDRICAL_SURFACE('',#714,1.5);
#23=CYLINDRICAL_SURFACE('',#715,1.5);
#24=CYLINDRICAL_SURFACE('',#716,1.85);
#25=CYLINDRICAL_SURFACE('',#720,1.5);
#26=CYLINDRICAL_SURFACE('',#721,1.5);
#27=CYLINDRICAL_SURFACE('',#722,1.70815);
#28=CYLINDRICAL_SURFACE('',#723,1.70815);
#29=FACE_BOUND('',#107,.T.);
#30=FACE_BOUND('',#108,.T.);
#31=FACE_BOUND('',#111,.T.);
#32=FACE_BOUND('',#112,.T.);
#33=FACE_BOUND('',#113,.T.);
#34=FACE_BOUND('',#114,.T.);
#35=FACE_BOUND('',#115,.T.);
#36=FACE_BOUND('',#126,.T.);
#37=FACE_BOUND('',#129,.T.);
#38=FACE_BOUND('',#137,.T.);
#39=FACE_BOUND('',#145,.T.);
#40=CIRCLE('',#666,1.5);
#41=CIRCLE('',#667,1.5);
#42=CIRCLE('',#668,1.5);
#43=CIRCLE('',#669,1.5);
#44=CIRCLE('',#670,1.5);
#45=CIRCLE('',#671,1.5);
#46=CIRCLE('',#672,1.5);
#47=CIRCLE('',#673,1.85);
#48=CIRCLE('',#677,2.15);
#49=CIRCLE('',#678,2.15);
#50=CIRCLE('',#681,1.70815);
#51=CIRCLE('',#682,1.70815);
#52=CIRCLE('',#683,1.70815);
#53=CIRCLE('',#684,2.15);
#54=CIRCLE('',#685,2.15);
#55=CIRCLE('',#690,1.85);
#56=CIRCLE('',#691,1.5);
#57=CIRCLE('',#692,1.5);
#58=CIRCLE('',#694,1.70815);
#59=CIRCLE('',#696,1.70815);
#60=CIRCLE('',#698,1.70815);
#61=CIRCLE('',#700,1.85);
#62=CIRCLE('',#703,1.70815);
#63=CIRCLE('',#705,1.5);
#64=CIRCLE('',#706,1.5);
#65=CIRCLE('',#707,1.5);
#66=CIRCLE('',#708,1.5);
#67=CIRCLE('',#709,1.5);
#68=CIRCLE('',#718,1.70815);
#69=FACE_OUTER_BOUND('',#102,.T.);
#70=FACE_OUTER_BOUND('',#103,.T.);
#71=FACE_OUTER_BOUND('',#104,.T.);
#72=FACE_OUTER_BOUND('',#105,.T.);
#73=FACE_OUTER_BOUND('',#106,.T.);
#74=FACE_OUTER_BOUND('',#109,.T.);
#75=FACE_OUTER_BOUND('',#110,.T.);
#76=FACE_OUTER_BOUND('',#116,.T.);
#77=FACE_OUTER_BOUND('',#117,.T.);
#78=FACE_OUTER_BOUND('',#118,.T.);
#79=FACE_OUTER_BOUND('',#119,.T.);
#80=FACE_OUTER_BOUND('',#120,.T.);
#81=FACE_OUTER_BOUND('',#121,.T.);
#82=FACE_OUTER_BOUND('',#122,.T.);
#83=FACE_OUTER_BOUND('',#123,.T.);
#84=FACE_OUTER_BOUND('',#124,.T.);
#85=FACE_OUTER_BOUND('',#125,.T.);
#86=FACE_OUTER_BOUND('',#127,.T.);
#87=FACE_OUTER_BOUND('',#128,.T.);
#88=FACE_OUTER_BOUND('',#130,.T.);
#89=FACE_OUTER_BOUND('',#131,.T.);
#90=FACE_OUTER_BOUND('',#132,.T.);
#91=FACE_OUTER_BOUND('',#133,.T.);
#92=FACE_OUTER_BOUND('',#134,.T.);
#93=FACE_OUTER_BOUND('',#135,.T.);
#94=FACE_OUTER_BOUND('',#136,.T.);
#95=FACE_OUTER_BOUND('',#138,.T.);
#96=FACE_OUTER_BOUND('',#139,.T.);
#97=FACE_OUTER_BOUND('',#140,.T.);
#98=FACE_OUTER_BOUND('',#141,.T.);
#99=FACE_OUTER_BOUND('',#142,.T.);
#100=FACE_OUTER_BOUND('',#143,.T.);
#101=FACE_OUTER_BOUND('',#144,.T.);
#102=EDGE_LOOP('',(#418,#419,#420,#421));
#103=EDGE_LOOP('',(#422,#423,#424,#425,#426,#427,#428,#429,#430,#431,#432,
#433,#434,#435,#436,#437,#438,#439));
#104=EDGE_LOOP('',(#440,#441,#442,#443));
#105=EDGE_LOOP('',(#444,#445,#446,#447));
#106=EDGE_LOOP('',(#448,#449,#450,#451,#452,#453,#454,#455));
#107=EDGE_LOOP('',(#456));
#108=EDGE_LOOP('',(#457));
#109=EDGE_LOOP('',(#458,#459,#460,#461,#462,#463));
#110=EDGE_LOOP('',(#464,#465,#466,#467,#468,#469));
#111=EDGE_LOOP('',(#470));
#112=EDGE_LOOP('',(#471));
#113=EDGE_LOOP('',(#472));
#114=EDGE_LOOP('',(#473));
#115=EDGE_LOOP('',(#474));
#116=EDGE_LOOP('',(#475,#476,#477,#478));
#117=EDGE_LOOP('',(#479,#480,#481,#482));
#118=EDGE_LOOP('',(#483,#484,#485,#486));
#119=EDGE_LOOP('',(#487,#488,#489,#490,#491,#492,#493,#494,#495,#496,#497,
#498));
#120=EDGE_LOOP('',(#499,#500,#501,#502));
#121=EDGE_LOOP('',(#503));
#122=EDGE_LOOP('',(#504,#505,#506,#507));
#123=EDGE_LOOP('',(#508,#509,#510,#511));
#124=EDGE_LOOP('',(#512,#513,#514,#515));
#125=EDGE_LOOP('',(#516,#517,#518,#519));
#126=EDGE_LOOP('',(#520));
#127=EDGE_LOOP('',(#521,#522,#523,#524,#525,#526,#527,#528,#529,#530));
#128=EDGE_LOOP('',(#531,#532,#533,#534));
#129=EDGE_LOOP('',(#535));
#130=EDGE_LOOP('',(#536,#537,#538,#539));
#131=EDGE_LOOP('',(#540,#541,#542,#543));
#132=EDGE_LOOP('',(#544,#545,#546,#547));
#133=EDGE_LOOP('',(#548,#549,#550,#551));
#134=EDGE_LOOP('',(#552,#553,#554,#555));
#135=EDGE_LOOP('',(#556,#557,#558,#559,#560,#561));
#136=EDGE_LOOP('',(#562,#563,#564,#565,#566,#567));
#137=EDGE_LOOP('',(#568));
#138=EDGE_LOOP('',(#569,#570,#571,#572));
#139=EDGE_LOOP('',(#573,#574,#575,#576));
#140=EDGE_LOOP('',(#577,#578,#579,#580));
#141=EDGE_LOOP('',(#581,#582,#583,#584));
#142=EDGE_LOOP('',(#585,#586,#587,#588));
#143=EDGE_LOOP('',(#589,#590,#591,#592));
#144=EDGE_LOOP('',(#593,#594,#595,#596));
#145=EDGE_LOOP('',(#597));
#146=LINE('',#917,#207);
#147=LINE('',#919,#208);
#148=LINE('',#921,#209);
#149=LINE('',#922,#210);
#150=LINE('',#925,#211);
#151=LINE('',#927,#212);
#152=LINE('',#939,#213);
#153=LINE('',#941,#214);
#154=LINE('',#943,#215);
#155=LINE('',#945,#216);
#156=LINE('',#947,#217);
#157=LINE('',#951,#218);
#158=LINE('',#955,#219);
#159=LINE('',#959,#220);
#160=LINE('',#960,#221);
#161=LINE('',#964,#222);
#162=LINE('',#966,#223);
#163=LINE('',#968,#224);
#164=LINE('',#969,#225);
#165=LINE('',#972,#226);
#166=LINE('',#973,#227);
#167=LINE('',#975,#228);
#168=LINE('',#977,#229);
#169=LINE('',#978,#230);
#170=LINE('',#984,#231);
#171=LINE('',#986,#232);
#172=LINE('',#987,#233);
#173=LINE('',#990,#234);
#174=LINE('',#992,#235);
#175=LINE('',#993,#236);
#176=LINE('',#1005,#237);
#177=LINE('',#1007,#238);
#178=LINE('',#1009,#239);
#179=LINE('',#1014,#240);
#180=LINE('',#1016,#241);
#181=LINE('',#1018,#242);
#182=LINE('',#1022,#243);
#183=LINE('',#1026,#244);
#184=LINE('',#1027,#245);
#185=LINE('',#1030,#246);
#186=LINE('',#1037,#247);
#187=LINE('',#1042,#248);
#188=LINE('',#1046,#249);
#189=LINE('',#1047,#250);
#190=LINE('',#1049,#251);
#191=LINE('',#1050,#252);
#192=LINE('',#1052,#253);
#193=LINE('',#1057,#254);
#194=LINE('',#1068,#255);
#195=LINE('',#1070,#256);
#196=LINE('',#1072,#257);
#197=LINE('',#1074,#258);
#198=LINE('',#1076,#259);
#199=LINE('',#1079,#260);
#200=LINE('',#1081,#261);
#201=LINE('',#1085,#262);
#202=LINE('',#1086,#263);
#203=LINE('',#1088,#264);
#204=LINE('',#1090,#265);
#205=LINE('',#1092,#266);
#206=LINE('',#1094,#267);
#207=VECTOR('',#730,10.);
#208=VECTOR('',#731,10.);
#209=VECTOR('',#732,10.);
#210=VECTOR('',#733,10.);
#211=VECTOR('',#736,10.);
#212=VECTOR('',#737,10.);
#213=VECTOR('',#748,10.);
#214=VECTOR('',#749,10.);
#215=VECTOR('',#750,10.);
#216=VECTOR('',#751,10.);
#217=VECTOR('',#752,10.);
#218=VECTOR('',#755,10.);
#219=VECTOR('',#758,10.);
#220=VECTOR('',#763,10.);
#221=VECTOR('',#764,10.);
#222=VECTOR('',#767,10.);
#223=VECTOR('',#768,10.);
#224=VECTOR('',#769,10.);
#225=VECTOR('',#770,10.);
#226=VECTOR('',#773,10.);
#227=VECTOR('',#774,10.);
#228=VECTOR('',#775,10.);
#229=VECTOR('',#776,10.);
#230=VECTOR('',#777,10.);
#231=VECTOR('',#784,10.);
#232=VECTOR('',#785,10.);
#233=VECTOR('',#786,10.);
#234=VECTOR('',#789,10.);
#235=VECTOR('',#790,10.);
#236=VECTOR('',#791,10.);
#237=VECTOR('',#804,2.15);
#238=VECTOR('',#807,2.15);
#239=VECTOR('',#810,10.);
#240=VECTOR('',#815,10.);
#241=VECTOR('',#816,10.);
#242=VECTOR('',#817,10.);
#243=VECTOR('',#820,10.);
#244=VECTOR('',#823,10.);
#245=VECTOR('',#824,10.);
#246=VECTOR('',#827,1.70815);
#247=VECTOR('',#836,1.70815);
#248=VECTOR('',#841,10.);
#249=VECTOR('',#844,10.);
#250=VECTOR('',#845,10.);
#251=VECTOR('',#848,10.);
#252=VECTOR('',#849,10.);
#253=VECTOR('',#852,10.);
#254=VECTOR('',#857,10.);
#255=VECTOR('',#870,10.);
#256=VECTOR('',#873,10.);
#257=VECTOR('',#876,10.);
#258=VECTOR('',#879,10.);
#259=VECTOR('',#882,10.);
#260=VECTOR('',#887,10.);
#261=VECTOR('',#890,10.);
#262=VECTOR('',#895,10.);
#263=VECTOR('',#896,10.);
#264=VECTOR('',#899,10.);
#265=VECTOR('',#902,10.);
#266=VECTOR('',#905,1.70815);
#267=VECTOR('',#908,1.70815);
#268=VERTEX_POINT('',#915);
#269=VERTEX_POINT('',#916);
#270=VERTEX_POINT('',#918);
#271=VERTEX_POINT('',#920);
#272=VERTEX_POINT('',#924);
#273=VERTEX_POINT('',#926);
#274=VERTEX_POINT('',#928);
#275=VERTEX_POINT('',#930);
#276=VERTEX_POINT('',#932);
#277=VERTEX_POINT('',#934);
#278=VERTEX_POINT('',#936);
#279=VERTEX_POINT('',#938);
#280=VERTEX_POINT('',#940);
#281=VERTEX_POINT('',#942);
#282=VERTEX_POINT('',#944);
#283=VERTEX_POINT('',#946);
#284=VERTEX_POINT('',#948);
#285=VERTEX_POINT('',#950);
#286=VERTEX_POINT('',#952);
#287=VERTEX_POINT('',#954);
#288=VERTEX_POINT('',#958);
#289=VERTEX_POINT('',#962);
#290=VERTEX_POINT('',#963);
#291=VERTEX_POINT('',#965);
#292=VERTEX_POINT('',#967);
#293=VERTEX_POINT('',#971);
#294=VERTEX_POINT('',#974);
#295=VERTEX_POINT('',#976);
#296=VERTEX_POINT('',#979);
#297=VERTEX_POINT('',#981);
#298=VERTEX_POINT('',#985);
#299=VERTEX_POINT('',#989);
#300=VERTEX_POINT('',#991);
#301=VERTEX_POINT('',#994);
#302=VERTEX_POINT('',#996);
#303=VERTEX_POINT('',#998);
#304=VERTEX_POINT('',#1000);
#305=VERTEX_POINT('',#1002);
#306=VERTEX_POINT('',#1011);
#307=VERTEX_POINT('',#1013);
#308=VERTEX_POINT('',#1015);
#309=VERTEX_POINT('',#1017);
#310=VERTEX_POINT('',#1019);
#311=VERTEX_POINT('',#1021);
#312=VERTEX_POINT('',#1023);
#313=VERTEX_POINT('',#1025);
#314=VERTEX_POINT('',#1029);
#315=VERTEX_POINT('',#1033);
#316=VERTEX_POINT('',#1036);
#317=VERTEX_POINT('',#1040);
#318=VERTEX_POINT('',#1041);
#319=VERTEX_POINT('',#1043);
#320=VERTEX_POINT('',#1045);
#321=VERTEX_POINT('',#1053);
#322=VERTEX_POINT('',#1056);
#323=VERTEX_POINT('',#1058);
#324=VERTEX_POINT('',#1060);
#325=VERTEX_POINT('',#1062);
#326=VERTEX_POINT('',#1064);
#327=VERTEX_POINT('',#1082);
#328=EDGE_CURVE('',#268,#269,#146,.T.);
#329=EDGE_CURVE('',#270,#268,#147,.T.);
#330=EDGE_CURVE('',#271,#270,#148,.T.);
#331=EDGE_CURVE('',#269,#271,#149,.T.);
#332=EDGE_CURVE('',#270,#272,#150,.T.);
#333=EDGE_CURVE('',#273,#268,#151,.T.);
#334=EDGE_CURVE('',#274,#273,#40,.F.);
#335=EDGE_CURVE('',#275,#274,#41,.F.);
#336=EDGE_CURVE('',#276,#275,#42,.F.);
#337=EDGE_CURVE('',#277,#276,#43,.F.);
#338=EDGE_CURVE('',#278,#277,#44,.F.);
#339=EDGE_CURVE('',#279,#278,#152,.T.);
#340=EDGE_CURVE('',#279,#280,#153,.T.);
#341=EDGE_CURVE('',#280,#281,#154,.T.);
#342=EDGE_CURVE('',#282,#281,#155,.T.);
#343=EDGE_CURVE('',#283,#282,#156,.T.);
#344=EDGE_CURVE('',#284,#283,#45,.F.);
#345=EDGE_CURVE('',#285,#284,#157,.T.);
#346=EDGE_CURVE('',#286,#285,#46,.F.);
#347=EDGE_CURVE('',#287,#286,#158,.T.);
#348=EDGE_CURVE('',#272,#287,#47,.T.);
#349=EDGE_CURVE('',#288,#269,#159,.T.);
#350=EDGE_CURVE('',#288,#273,#160,.T.);
#351=EDGE_CURVE('',#289,#290,#161,.T.);
#352=EDGE_CURVE('',#291,#289,#162,.T.);
#353=EDGE_CURVE('',#292,#291,#163,.T.);
#354=EDGE_CURVE('',#290,#292,#164,.T.);
#355=EDGE_CURVE('',#289,#293,#165,.T.);
#356=EDGE_CURVE('',#271,#293,#166,.T.);
#357=EDGE_CURVE('',#272,#294,#167,.T.);
#358=EDGE_CURVE('',#294,#295,#168,.T.);
#359=EDGE_CURVE('',#295,#291,#169,.T.);
#360=EDGE_CURVE('',#296,#296,#48,.T.);
#361=EDGE_CURVE('',#297,#297,#49,.T.);
#362=EDGE_CURVE('',#280,#290,#170,.T.);
#363=EDGE_CURVE('',#298,#279,#171,.T.);
#364=EDGE_CURVE('',#293,#298,#172,.T.);
#365=EDGE_CURVE('',#299,#292,#173,.T.);
#366=EDGE_CURVE('',#299,#300,#174,.T.);
#367=EDGE_CURVE('',#281,#300,#175,.T.);
#368=EDGE_CURVE('',#301,#301,#50,.F.);
#369=EDGE_CURVE('',#302,#302,#51,.F.);
#370=EDGE_CURVE('',#303,#303,#52,.F.);
#371=EDGE_CURVE('',#304,#304,#53,.T.);
#372=EDGE_CURVE('',#305,#305,#54,.T.);
#373=EDGE_CURVE('',#297,#305,#176,.T.);
#374=EDGE_CURVE('',#296,#304,#177,.T.);
#375=EDGE_CURVE('',#299,#295,#178,.T.);
#376=EDGE_CURVE('',#306,#294,#55,.T.);
#377=EDGE_CURVE('',#306,#307,#179,.T.);
#378=EDGE_CURVE('',#307,#308,#180,.T.);
#379=EDGE_CURVE('',#309,#308,#181,.T.);
#380=EDGE_CURVE('',#310,#309,#56,.T.);
#381=EDGE_CURVE('',#311,#310,#182,.T.);
#382=EDGE_CURVE('',#312,#311,#57,.T.);
#383=EDGE_CURVE('',#313,#312,#183,.T.);
#384=EDGE_CURVE('',#300,#313,#184,.T.);
#385=EDGE_CURVE('',#303,#314,#185,.T.);
#386=EDGE_CURVE('',#314,#314,#58,.F.);
#387=EDGE_CURVE('',#315,#315,#59,.F.);
#388=EDGE_CURVE('',#315,#316,#186,.T.);
#389=EDGE_CURVE('',#316,#316,#60,.F.);
#390=EDGE_CURVE('',#317,#318,#187,.T.);
#391=EDGE_CURVE('',#318,#319,#61,.T.);
#392=EDGE_CURVE('',#319,#320,#188,.T.);
#393=EDGE_CURVE('',#320,#317,#189,.T.);
#394=EDGE_CURVE('',#320,#308,#190,.T.);
#395=EDGE_CURVE('',#317,#307,#191,.T.);
#396=EDGE_CURVE('',#318,#306,#192,.T.);
#397=EDGE_CURVE('',#321,#321,#62,.F.);
#398=EDGE_CURVE('',#298,#322,#193,.T.);
#399=EDGE_CURVE('',#322,#323,#63,.T.);
#400=EDGE_CURVE('',#323,#324,#64,.T.);
#401=EDGE_CURVE('',#324,#325,#65,.T.);
#402=EDGE_CURVE('',#325,#326,#66,.T.);
#403=EDGE_CURVE('',#326,#288,#67,.T.);
#404=EDGE_CURVE('',#278,#322,#194,.T.);
#405=EDGE_CURVE('',#277,#323,#195,.T.);
#406=EDGE_CURVE('',#276,#324,#196,.T.);
#407=EDGE_CURVE('',#275,#325,#197,.T.);
#408=EDGE_CURVE('',#274,#326,#198,.T.);
#409=EDGE_CURVE('',#319,#287,#199,.T.);
#410=EDGE_CURVE('',#286,#309,#200,.T.);
#411=EDGE_CURVE('',#327,#327,#68,.F.);
#412=EDGE_CURVE('',#313,#282,#201,.T.);
#413=EDGE_CURVE('',#283,#312,#202,.T.);
#414=EDGE_CURVE('',#310,#285,#203,.T.);
#415=EDGE_CURVE('',#284,#311,#204,.T.);
#416=EDGE_CURVE('',#301,#321,#205,.T.);
#417=EDGE_CURVE('',#302,#327,#206,.T.);
#418=ORIENTED_EDGE('',*,*,#328,.F.);
#419=ORIENTED_EDGE('',*,*,#329,.F.);
#420=ORIENTED_EDGE('',*,*,#330,.F.);
#421=ORIENTED_EDGE('',*,*,#331,.F.);
#422=ORIENTED_EDGE('',*,*,#332,.F.);
#423=ORIENTED_EDGE('',*,*,#329,.T.);
#424=ORIENTED_EDGE('',*,*,#333,.F.);
#425=ORIENTED_EDGE('',*,*,#334,.F.);
#426=ORIENTED_EDGE('',*,*,#335,.F.);
#427=ORIENTED_EDGE('',*,*,#336,.F.);
#428=ORIENTED_EDGE('',*,*,#337,.F.);
#429=ORIENTED_EDGE('',*,*,#338,.F.);
#430=ORIENTED_EDGE('',*,*,#339,.F.);
#431=ORIENTED_EDGE('',*,*,#340,.T.);
#432=ORIENTED_EDGE('',*,*,#341,.T.);
#433=ORIENTED_EDGE('',*,*,#342,.F.);
#434=ORIENTED_EDGE('',*,*,#343,.F.);
#435=ORIENTED_EDGE('',*,*,#344,.F.);
#436=ORIENTED_EDGE('',*,*,#345,.F.);
#437=ORIENTED_EDGE('',*,*,#346,.F.);
#438=ORIENTED_EDGE('',*,*,#347,.F.);
#439=ORIENTED_EDGE('',*,*,#348,.F.);
#440=ORIENTED_EDGE('',*,*,#328,.T.);
#441=ORIENTED_EDGE('',*,*,#349,.F.);
#442=ORIENTED_EDGE('',*,*,#350,.T.);
#443=ORIENTED_EDGE('',*,*,#333,.T.);
#444=ORIENTED_EDGE('',*,*,#351,.F.);
#445=ORIENTED_EDGE('',*,*,#352,.F.);
#446=ORIENTED_EDGE('',*,*,#353,.F.);
#447=ORIENTED_EDGE('',*,*,#354,.F.);
#448=ORIENTED_EDGE('',*,*,#352,.T.);
#449=ORIENTED_EDGE('',*,*,#355,.T.);
#450=ORIENTED_EDGE('',*,*,#356,.F.);
#451=ORIENTED_EDGE('',*,*,#330,.T.);
#452=ORIENTED_EDGE('',*,*,#332,.T.);
#453=ORIENTED_EDGE('',*,*,#357,.T.);
#454=ORIENTED_EDGE('',*,*,#358,.T.);
#455=ORIENTED_EDGE('',*,*,#359,.T.);
#456=ORIENTED_EDGE('',*,*,#360,.T.);
#457=ORIENTED_EDGE('',*,*,#361,.T.);
#458=ORIENTED_EDGE('',*,*,#351,.T.);
#459=ORIENTED_EDGE('',*,*,#362,.F.);
#460=ORIENTED_EDGE('',*,*,#340,.F.);
#461=ORIENTED_EDGE('',*,*,#363,.F.);
#462=ORIENTED_EDGE('',*,*,#364,.F.);
#463=ORIENTED_EDGE('',*,*,#355,.F.);
#464=ORIENTED_EDGE('',*,*,#354,.T.);
#465=ORIENTED_EDGE('',*,*,#365,.F.);
#466=ORIENTED_EDGE('',*,*,#366,.T.);
#467=ORIENTED_EDGE('',*,*,#367,.F.);
#468=ORIENTED_EDGE('',*,*,#341,.F.);
#469=ORIENTED_EDGE('',*,*,#362,.T.);
#470=ORIENTED_EDGE('',*,*,#368,.F.);
#471=ORIENTED_EDGE('',*,*,#369,.F.);
#472=ORIENTED_EDGE('',*,*,#370,.F.);
#473=ORIENTED_EDGE('',*,*,#371,.T.);
#474=ORIENTED_EDGE('',*,*,#372,.T.);
#475=ORIENTED_EDGE('',*,*,#361,.F.);
#476=ORIENTED_EDGE('',*,*,#373,.T.);
#477=ORIENTED_EDGE('',*,*,#372,.F.);
#478=ORIENTED_EDGE('',*,*,#373,.F.);
#479=ORIENTED_EDGE('',*,*,#360,.F.);
#480=ORIENTED_EDGE('',*,*,#374,.T.);
#481=ORIENTED_EDGE('',*,*,#371,.F.);
#482=ORIENTED_EDGE('',*,*,#374,.F.);
#483=ORIENTED_EDGE('',*,*,#353,.T.);
#484=ORIENTED_EDGE('',*,*,#359,.F.);
#485=ORIENTED_EDGE('',*,*,#375,.F.);
#486=ORIENTED_EDGE('',*,*,#365,.T.);
#487=ORIENTED_EDGE('',*,*,#375,.T.);
#488=ORIENTED_EDGE('',*,*,#358,.F.);
#489=ORIENTED_EDGE('',*,*,#376,.F.);
#490=ORIENTED_EDGE('',*,*,#377,.T.);
#491=ORIENTED_EDGE('',*,*,#378,.T.);
#492=ORIENTED_EDGE('',*,*,#379,.F.);
#493=ORIENTED_EDGE('',*,*,#380,.F.);
#494=ORIENTED_EDGE('',*,*,#381,.F.);
#495=ORIENTED_EDGE('',*,*,#382,.F.);
#496=ORIENTED_EDGE('',*,*,#383,.F.);
#497=ORIENTED_EDGE('',*,*,#384,.F.);
#498=ORIENTED_EDGE('',*,*,#366,.F.);
#499=ORIENTED_EDGE('',*,*,#370,.T.);
#500=ORIENTED_EDGE('',*,*,#385,.T.);
#501=ORIENTED_EDGE('',*,*,#386,.T.);
#502=ORIENTED_EDGE('',*,*,#385,.F.);
#503=ORIENTED_EDGE('',*,*,#387,.T.);
#504=ORIENTED_EDGE('',*,*,#387,.F.);
#505=ORIENTED_EDGE('',*,*,#388,.T.);
#506=ORIENTED_EDGE('',*,*,#389,.T.);
#507=ORIENTED_EDGE('',*,*,#388,.F.);
#508=ORIENTED_EDGE('',*,*,#390,.T.);
#509=ORIENTED_EDGE('',*,*,#391,.T.);
#510=ORIENTED_EDGE('',*,*,#392,.T.);
#511=ORIENTED_EDGE('',*,*,#393,.T.);
#512=ORIENTED_EDGE('',*,*,#393,.F.);
#513=ORIENTED_EDGE('',*,*,#394,.T.);
#514=ORIENTED_EDGE('',*,*,#378,.F.);
#515=ORIENTED_EDGE('',*,*,#395,.F.);
#516=ORIENTED_EDGE('',*,*,#390,.F.);
#517=ORIENTED_EDGE('',*,*,#395,.T.);
#518=ORIENTED_EDGE('',*,*,#377,.F.);
#519=ORIENTED_EDGE('',*,*,#396,.F.);
#520=ORIENTED_EDGE('',*,*,#397,.F.);
#521=ORIENTED_EDGE('',*,*,#331,.T.);
#522=ORIENTED_EDGE('',*,*,#356,.T.);
#523=ORIENTED_EDGE('',*,*,#364,.T.);
#524=ORIENTED_EDGE('',*,*,#398,.T.);
#525=ORIENTED_EDGE('',*,*,#399,.T.);
#526=ORIENTED_EDGE('',*,*,#400,.T.);
#527=ORIENTED_EDGE('',*,*,#401,.T.);
#528=ORIENTED_EDGE('',*,*,#402,.T.);
#529=ORIENTED_EDGE('',*,*,#403,.T.);
#530=ORIENTED_EDGE('',*,*,#349,.T.);
#531=ORIENTED_EDGE('',*,*,#363,.T.);
#532=ORIENTED_EDGE('',*,*,#339,.T.);
#533=ORIENTED_EDGE('',*,*,#404,.T.);
#534=ORIENTED_EDGE('',*,*,#398,.F.);
#535=ORIENTED_EDGE('',*,*,#389,.F.);
#536=ORIENTED_EDGE('',*,*,#404,.F.);
#537=ORIENTED_EDGE('',*,*,#338,.T.);
#538=ORIENTED_EDGE('',*,*,#405,.T.);
#539=ORIENTED_EDGE('',*,*,#399,.F.);
#540=ORIENTED_EDGE('',*,*,#400,.F.);
#541=ORIENTED_EDGE('',*,*,#405,.F.);
#542=ORIENTED_EDGE('',*,*,#337,.T.);
#543=ORIENTED_EDGE('',*,*,#406,.T.);
#544=ORIENTED_EDGE('',*,*,#401,.F.);
#545=ORIENTED_EDGE('',*,*,#406,.F.);
#546=ORIENTED_EDGE('',*,*,#336,.T.);
#547=ORIENTED_EDGE('',*,*,#407,.T.);
#548=ORIENTED_EDGE('',*,*,#402,.F.);
#549=ORIENTED_EDGE('',*,*,#407,.F.);
#550=ORIENTED_EDGE('',*,*,#335,.T.);
#551=ORIENTED_EDGE('',*,*,#408,.T.);
#552=ORIENTED_EDGE('',*,*,#350,.F.);
#553=ORIENTED_EDGE('',*,*,#403,.F.);
#554=ORIENTED_EDGE('',*,*,#408,.F.);
#555=ORIENTED_EDGE('',*,*,#334,.T.);
#556=ORIENTED_EDGE('',*,*,#409,.F.);
#557=ORIENTED_EDGE('',*,*,#391,.F.);
#558=ORIENTED_EDGE('',*,*,#396,.T.);
#559=ORIENTED_EDGE('',*,*,#376,.T.);
#560=ORIENTED_EDGE('',*,*,#357,.F.);
#561=ORIENTED_EDGE('',*,*,#348,.T.);
#562=ORIENTED_EDGE('',*,*,#394,.F.);
#563=ORIENTED_EDGE('',*,*,#392,.F.);
#564=ORIENTED_EDGE('',*,*,#409,.T.);
#565=ORIENTED_EDGE('',*,*,#347,.T.);
#566=ORIENTED_EDGE('',*,*,#410,.T.);
#567=ORIENTED_EDGE('',*,*,#379,.T.);
#568=ORIENTED_EDGE('',*,*,#411,.F.);
#569=ORIENTED_EDGE('',*,*,#412,.F.);
#570=ORIENTED_EDGE('',*,*,#383,.T.);
#571=ORIENTED_EDGE('',*,*,#413,.F.);
#572=ORIENTED_EDGE('',*,*,#343,.T.);
#573=ORIENTED_EDGE('',*,*,#414,.F.);
#574=ORIENTED_EDGE('',*,*,#380,.T.);
#575=ORIENTED_EDGE('',*,*,#410,.F.);
#576=ORIENTED_EDGE('',*,*,#346,.T.);
#577=ORIENTED_EDGE('',*,*,#413,.T.);
#578=ORIENTED_EDGE('',*,*,#382,.T.);
#579=ORIENTED_EDGE('',*,*,#415,.F.);
#580=ORIENTED_EDGE('',*,*,#344,.T.);
#581=ORIENTED_EDGE('',*,*,#368,.T.);
#582=ORIENTED_EDGE('',*,*,#416,.T.);
#583=ORIENTED_EDGE('',*,*,#397,.T.);
#584=ORIENTED_EDGE('',*,*,#416,.F.);
#585=ORIENTED_EDGE('',*,*,#369,.T.);
#586=ORIENTED_EDGE('',*,*,#417,.T.);
#587=ORIENTED_EDGE('',*,*,#411,.T.);
#588=ORIENTED_EDGE('',*,*,#417,.F.);
#589=ORIENTED_EDGE('',*,*,#412,.T.);
#590=ORIENTED_EDGE('',*,*,#342,.T.);
#591=ORIENTED_EDGE('',*,*,#367,.T.);
#592=ORIENTED_EDGE('',*,*,#384,.T.);
#593=ORIENTED_EDGE('',*,*,#415,.T.);
#594=ORIENTED_EDGE('',*,*,#381,.T.);
#595=ORIENTED_EDGE('',*,*,#414,.T.);
#596=ORIENTED_EDGE('',*,*,#345,.T.);
#597=ORIENTED_EDGE('',*,*,#386,.F.);
#598=PLANE('',#664);
#599=PLANE('',#665);
#600=PLANE('',#674);
#601=PLANE('',#675);
#602=PLANE('',#676);
#603=PLANE('',#679);
#604=PLANE('',#680);
#605=PLANE('',#688);
#606=PLANE('',#689);
#607=PLANE('',#695);
#608=PLANE('',#699);
#609=PLANE('',#701);
#610=PLANE('',#702);
#611=PLANE('',#704);
#612=PLANE('',#710);
#613=PLANE('',#717);
#614=PLANE('',#719);
#615=PLANE('',#724);
#616=PLANE('',#725);
#617=ADVANCED_FACE('',(#69),#598,.F.);
#618=ADVANCED_FACE('',(#70),#599,.T.);
#619=ADVANCED_FACE('',(#71),#600,.T.);
#620=ADVANCED_FACE('',(#72),#601,.F.);
#621=ADVANCED_FACE('',(#73,#29,#30),#602,.T.);
#622=ADVANCED_FACE('',(#74),#603,.F.);
#623=ADVANCED_FACE('',(#75,#31,#32,#33,#34,#35),#604,.T.);
#624=ADVANCED_FACE('',(#76),#15,.F.);
#625=ADVANCED_FACE('',(#77),#16,.F.);
#626=ADVANCED_FACE('',(#78),#605,.T.);
#627=ADVANCED_FACE('',(#79),#606,.T.);
#628=ADVANCED_FACE('',(#80),#17,.F.);
#629=ADVANCED_FACE('',(#81),#607,.T.);
#630=ADVANCED_FACE('',(#82),#18,.F.);
#631=ADVANCED_FACE('',(#83),#608,.T.);
#632=ADVANCED_FACE('',(#84),#609,.F.);
#633=ADVANCED_FACE('',(#85,#36),#610,.T.);
#634=ADVANCED_FACE('',(#86),#611,.T.);
#635=ADVANCED_FACE('',(#87,#37),#612,.T.);
#636=ADVANCED_FACE('',(#88),#19,.F.);
#637=ADVANCED_FACE('',(#89),#20,.F.);
#638=ADVANCED_FACE('',(#90),#21,.F.);
#639=ADVANCED_FACE('',(#91),#22,.F.);
#640=ADVANCED_FACE('',(#92),#23,.F.);
#641=ADVANCED_FACE('',(#93),#24,.F.);
#642=ADVANCED_FACE('',(#94,#38),#613,.T.);
#643=ADVANCED_FACE('',(#95),#614,.T.);
#644=ADVANCED_FACE('',(#96),#25,.F.);
#645=ADVANCED_FACE('',(#97),#26,.F.);
#646=ADVANCED_FACE('',(#98),#27,.F.);
#647=ADVANCED_FACE('',(#99),#28,.F.);
#648=ADVANCED_FACE('',(#100),#615,.T.);
#649=ADVANCED_FACE('',(#101,#39),#616,.T.);
#650=CLOSED_SHELL('',(#617,#618,#619,#620,#621,#622,#623,#624,#625,#626,
#627,#628,#629,#630,#631,#632,#633,#634,#635,#636,#637,#638,#639,#640,#641,
#642,#643,#644,#645,#646,#647,#648,#649));
#651=DERIVED_UNIT_ELEMENT(#653,1.);
#652=DERIVED_UNIT_ELEMENT(#1102,-3.);
#653=(
MASS_UNIT()
NAMED_UNIT(*)
SI_UNIT(.KILO.,.GRAM.)
);
#654=DERIVED_UNIT((#651,#652));
#655=MEASURE_REPRESENTATION_ITEM('density measure',
POSITIVE_RATIO_MEASURE(7850.),#654);
#656=PROPERTY_DEFINITION_REPRESENTATION(#661,#658);
#657=PROPERTY_DEFINITION_REPRESENTATION(#662,#659);
#658=REPRESENTATION('material name',(#660),#1099);
#659=REPRESENTATION('density',(#655),#1099);
#660=DESCRIPTIVE_REPRESENTATION_ITEM('Steel','Steel');
#661=PROPERTY_DEFINITION('material property','material name',#1109);
#662=PROPERTY_DEFINITION('material property','density of part',#1109);
#663=AXIS2_PLACEMENT_3D('',#913,#726,#727);
#664=AXIS2_PLACEMENT_3D('',#914,#728,#729);
#665=AXIS2_PLACEMENT_3D('',#923,#734,#735);
#666=AXIS2_PLACEMENT_3D('',#929,#738,#739);
#667=AXIS2_PLACEMENT_3D('',#931,#740,#741);
#668=AXIS2_PLACEMENT_3D('',#933,#742,#743);
#669=AXIS2_PLACEMENT_3D('',#935,#744,#745);
#670=AXIS2_PLACEMENT_3D('',#937,#746,#747);
#671=AXIS2_PLACEMENT_3D('',#949,#753,#754);
#672=AXIS2_PLACEMENT_3D('',#953,#756,#757);
#673=AXIS2_PLACEMENT_3D('',#956,#759,#760);
#674=AXIS2_PLACEMENT_3D('',#957,#761,#762);
#675=AXIS2_PLACEMENT_3D('',#961,#765,#766);
#676=AXIS2_PLACEMENT_3D('',#970,#771,#772);
#677=AXIS2_PLACEMENT_3D('',#980,#778,#779);
#678=AXIS2_PLACEMENT_3D('',#982,#780,#781);
#679=AXIS2_PLACEMENT_3D('',#983,#782,#783);
#680=AXIS2_PLACEMENT_3D('',#988,#787,#788);
#681=AXIS2_PLACEMENT_3D('',#995,#792,#793);
#682=AXIS2_PLACEMENT_3D('',#997,#794,#795);
#683=AXIS2_PLACEMENT_3D('',#999,#796,#797);
#684=AXIS2_PLACEMENT_3D('',#1001,#798,#799);
#685=AXIS2_PLACEMENT_3D('',#1003,#800,#801);
#686=AXIS2_PLACEMENT_3D('',#1004,#802,#803);
#687=AXIS2_PLACEMENT_3D('',#1006,#805,#806);
#688=AXIS2_PLACEMENT_3D('',#1008,#808,#809);
#689=AXIS2_PLACEMENT_3D('',#1010,#811,#812);
#690=AXIS2_PLACEMENT_3D('',#1012,#813,#814);
#691=AXIS2_PLACEMENT_3D('',#1020,#818,#819);
#692=AXIS2_PLACEMENT_3D('',#1024,#821,#822);
#693=AXIS2_PLACEMENT_3D('',#1028,#825,#826);
#694=AXIS2_PLACEMENT_3D('',#1031,#828,#829);
#695=AXIS2_PLACEMENT_3D('',#1032,#830,#831);
#696=AXIS2_PLACEMENT_3D('',#1034,#832,#833);
#697=AXIS2_PLACEMENT_3D('',#1035,#834,#835);
#698=AXIS2_PLACEMENT_3D('',#1038,#837,#838);
#699=AXIS2_PLACEMENT_3D('',#1039,#839,#840);
#700=AXIS2_PLACEMENT_3D('',#1044,#842,#843);
#701=AXIS2_PLACEMENT_3D('',#1048,#846,#847);
#702=AXIS2_PLACEMENT_3D('',#1051,#850,#851);
#703=AXIS2_PLACEMENT_3D('',#1054,#853,#854);
#704=AXIS2_PLACEMENT_3D('',#1055,#855,#856);
#705=AXIS2_PLACEMENT_3D('',#1059,#858,#859);
#706=AXIS2_PLACEMENT_3D('',#1061,#860,#861);
#707=AXIS2_PLACEMENT_3D('',#1063,#862,#863);
#708=AXIS2_PLACEMENT_3D('',#1065,#864,#865);
#709=AXIS2_PLACEMENT_3D('',#1066,#866,#867);
#710=AXIS2_PLACEMENT_3D('',#1067,#868,#869);
#711=AXIS2_PLACEMENT_3D('',#1069,#871,#872);
#712=AXIS2_PLACEMENT_3D('',#1071,#874,#875);
#713=AXIS2_PLACEMENT_3D('',#1073,#877,#878);
#714=AXIS2_PLACEMENT_3D('',#1075,#880,#881);
#715=AXIS2_PLACEMENT_3D('',#1077,#883,#884);
#716=AXIS2_PLACEMENT_3D('',#1078,#885,#886);
#717=AXIS2_PLACEMENT_3D('',#1080,#888,#889);
#718=AXIS2_PLACEMENT_3D('',#1083,#891,#892);
#719=AXIS2_PLACEMENT_3D('',#1084,#893,#894);
#720=AXIS2_PLACEMENT_3D('',#1087,#897,#898);
#721=AXIS2_PLACEMENT_3D('',#1089,#900,#901);
#722=AXIS2_PLACEMENT_3D('',#1091,#903,#904);
#723=AXIS2_PLACEMENT_3D('',#1093,#906,#907);
#724=AXIS2_PLACEMENT_3D('',#1095,#909,#910);
#725=AXIS2_PLACEMENT_3D('',#1096,#911,#912);
#726=DIRECTION('axis',(0.,0.,1.));
#727=DIRECTION('refdir',(1.,0.,0.));
#728=DIRECTION('center_axis',(-1.,8.88178419700124E-15,0.));
#729=DIRECTION('ref_axis',(0.,0.,1.));
#730=DIRECTION('',(8.88178419700124E-15,1.,0.));
#731=DIRECTION('',(0.,0.,1.));
#732=DIRECTION('',(-7.22096276178962E-15,-1.,0.));
#733=DIRECTION('',(0.,0.,-1.));
#734=DIRECTION('center_axis',(-5.46571335200077E-15,-1.,0.));
#735=DIRECTION('ref_axis',(-1.,5.46571335200077E-15,0.));
#736=DIRECTION('',(1.,-5.46571335200077E-15,0.));
#737=DIRECTION('',(1.,-5.9211894646675E-15,0.));
#738=DIRECTION('center_axis',(5.46571335200077E-15,1.,0.));
#739=DIRECTION('ref_axis',(0.,0.,-1.));
#740=DIRECTION('center_axis',(5.46571335200077E-15,1.,0.));
#741=DIRECTION('ref_axis',(0.,0.,-1.));
#742=DIRECTION('center_axis',(5.46571335200077E-15,1.,0.));
#743=DIRECTION('ref_axis',(0.,0.,-1.));
#744=DIRECTION('center_axis',(5.46571335200077E-15,1.,0.));
#745=DIRECTION('ref_axis',(0.,0.,-1.));
#746=DIRECTION('center_axis',(5.46571335200077E-15,1.,0.));
#747=DIRECTION('ref_axis',(0.,0.,-1.));
#748=DIRECTION('',(1.,-5.46571335200077E-15,0.));
#749=DIRECTION('',(0.,0.,-1.));
#750=DIRECTION('',(1.,-5.48172618408671E-15,0.));
#751=DIRECTION('',(0.,0.,-1.));
#752=DIRECTION('',(1.,-5.46571335200077E-15,0.));
#753=DIRECTION('center_axis',(5.46571335200077E-15,1.,0.));
#754=DIRECTION('ref_axis',(0.,0.,-1.));
#755=DIRECTION('',(1.,-5.46571335200077E-15,0.));
#756=DIRECTION('center_axis',(5.46571335200077E-15,1.,0.));
#757=DIRECTION('ref_axis',(0.,0.,-1.));
#758=DIRECTION('',(1.,-5.46571335200077E-15,0.));
#759=DIRECTION('center_axis',(-5.46571335200077E-15,-1.,0.));
#760=DIRECTION('ref_axis',(0.,0.,-1.));
#761=DIRECTION('center_axis',(0.,0.,1.));
#762=DIRECTION('ref_axis',(-1.,5.46571335200077E-15,0.));
#763=DIRECTION('',(1.,-5.32907051820075E-15,0.));
#764=DIRECTION('',(-5.46571335200077E-15,-1.,0.));
#765=DIRECTION('center_axis',(0.,-1.,0.));
#766=DIRECTION('ref_axis',(0.,0.,-1.));
#767=DIRECTION('',(0.,0.,-1.));
#768=DIRECTION('',(-1.,0.,0.));
#769=DIRECTION('',(0.,0.,1.));
#770=DIRECTION('',(1.,0.,0.));
#771=DIRECTION('center_axis',(0.,0.,1.));
#772=DIRECTION('ref_axis',(-1.,0.,0.));
#773=DIRECTION('',(-5.9211894646675E-15,-1.,0.));
#774=DIRECTION('',(-1.,4.65787126842125E-15,0.));
#775=DIRECTION('',(5.45859653774035E-15,1.,0.));
#776=DIRECTION('',(-1.,5.46571335200077E-15,0.));
#777=DIRECTION('',(0.,1.,0.));
#778=DIRECTION('center_axis',(0.,0.,-1.));
#779=DIRECTION('ref_axis',(1.,0.,0.));
#780=DIRECTION('center_axis',(0.,0.,-1.));
#781=DIRECTION('ref_axis',(1.,0.,0.));
#782=DIRECTION('center_axis',(1.,-5.9211894646675E-15,0.));
#783=DIRECTION('ref_axis',(0.,0.,-1.));
#784=DIRECTION('',(5.9211894646675E-15,1.,0.));
#785=DIRECTION('',(-5.9211894646675E-15,-1.,0.));
#786=DIRECTION('',(0.,0.,1.));
#787=DIRECTION('center_axis',(0.,0.,-1.));
#788=DIRECTION('ref_axis',(1.,-5.46571335200077E-15,0.));
#789=DIRECTION('',(0.,1.,0.));
#790=DIRECTION('',(1.,-5.46571335200077E-15,0.));
#791=DIRECTION('',(5.60364933564748E-15,1.,0.));
#792=DIRECTION('center_axis',(0.,0.,1.));
#793=DIRECTION('ref_axis',(1.,0.,0.));
#794=DIRECTION('center_axis',(0.,0.,1.));
#795=DIRECTION('ref_axis',(1.,0.,0.));
#796=DIRECTION('center_axis',(0.,0.,1.));
#797=DIRECTION('ref_axis',(1.,0.,0.));
#798=DIRECTION('center_axis',(0.,0.,1.));
#799=DIRECTION('ref_axis',(1.,0.,0.));
#800=DIRECTION('center_axis',(0.,0.,1.));
#801=DIRECTION('ref_axis',(1.,0.,0.));
#802=DIRECTION('center_axis',(0.,0.,-1.));
#803=DIRECTION('ref_axis',(1.,0.,0.));
#804=DIRECTION('',(0.,0.,-1.));
#805=DIRECTION('center_axis',(0.,0.,-1.));
#806=DIRECTION('ref_axis',(1.,0.,0.));
#807=DIRECTION('',(0.,0.,-1.));
#808=DIRECTION('center_axis',(1.,0.,0.));
#809=DIRECTION('ref_axis',(0.,0.,-1.));
#810=DIRECTION('',(0.,0.,1.));
#811=DIRECTION('center_axis',(5.46571335200077E-15,1.,0.));
#812=DIRECTION('ref_axis',(1.,-5.46571335200077E-15,0.));
#813=DIRECTION('center_axis',(5.46571335200077E-15,1.,0.));
#814=DIRECTION('ref_axis',(0.,0.,-1.));
#815=DIRECTION('',(1.,0.,0.));
#816=DIRECTION('',(0.,0.,-1.));
#817=DIRECTION('',(-1.,5.46571335200077E-15,0.));
#818=DIRECTION('center_axis',(5.46571335200077E-15,1.,0.));
#819=DIRECTION('ref_axis',(0.,0.,-1.));
#820=DIRECTION('',(-1.,5.46571335200077E-15,0.));
#821=DIRECTION('center_axis',(5.46571335200077E-15,1.,0.));
#822=DIRECTION('ref_axis',(0.,0.,-1.));
#823=DIRECTION('',(-1.,5.46571335200077E-15,0.));
#824=DIRECTION('',(0.,0.,1.));
#825=DIRECTION('center_axis',(0.,0.,1.));
#826=DIRECTION('ref_axis',(1.,0.,0.));
#827=DIRECTION('',(0.,0.,1.));
#828=DIRECTION('center_axis',(0.,0.,-1.));
#829=DIRECTION('ref_axis',(1.,0.,0.));
#830=DIRECTION('center_axis',(0.,0.,1.));
#831=DIRECTION('ref_axis',(1.,0.,0.));
#832=DIRECTION('center_axis',(0.,0.,-1.));
#833=DIRECTION('ref_axis',(1.,0.,0.));
#834=DIRECTION('center_axis',(0.,0.,1.));
#835=DIRECTION('ref_axis',(1.,0.,0.));
#836=DIRECTION('',(0.,0.,1.));
#837=DIRECTION('center_axis',(0.,0.,-1.));
#838=DIRECTION('ref_axis',(1.,0.,0.));
#839=DIRECTION('center_axis',(-5.46571335200077E-15,-1.,0.));
#840=DIRECTION('ref_axis',(-1.,5.46571335200077E-15,0.));
#841=DIRECTION('',(-1.,5.46571335200077E-15,0.));
#842=DIRECTION('center_axis',(5.46571335200077E-15,1.,0.));
#843=DIRECTION('ref_axis',(0.,0.,-1.));
#844=DIRECTION('',(1.,0.,0.));
#845=DIRECTION('',(0.,0.,1.));
#846=DIRECTION('center_axis',(-1.,0.,0.));
#847=DIRECTION('ref_axis',(0.,0.,-1.));
#848=DIRECTION('',(0.,1.,0.));
#849=DIRECTION('',(5.46571335200077E-15,1.,0.));
#850=DIRECTION('center_axis',(0.,0.,1.));
#851=DIRECTION('ref_axis',(-1.,0.,0.));
#852=DIRECTION('',(5.45859653774035E-15,1.,0.));
#853=DIRECTION('center_axis',(0.,0.,-1.));
#854=DIRECTION('ref_axis',(1.,0.,0.));
#855=DIRECTION('center_axis',(5.32907051820075E-15,1.,0.));
#856=DIRECTION('ref_axis',(1.,-5.32907051820075E-15,0.));
#857=DIRECTION('',(1.,-5.32907051820075E-15,0.));
#858=DIRECTION('center_axis',(-5.32907051820075E-15,-1.,0.));
#859=DIRECTION('ref_axis',(0.,0.,-1.));
#860=DIRECTION('center_axis',(-5.32907051820075E-15,-1.,0.));
#861=DIRECTION('ref_axis',(0.,0.,-1.));
#862=DIRECTION('center_axis',(-5.32907051820075E-15,-1.,0.));
#863=DIRECTION('ref_axis',(0.,0.,-1.));
#864=DIRECTION('center_axis',(-5.32907051820075E-15,-1.,0.));
#865=DIRECTION('ref_axis',(0.,0.,-1.));
#866=DIRECTION('center_axis',(-5.32907051820075E-15,-1.,0.));
#867=DIRECTION('ref_axis',(0.,0.,-1.));
#868=DIRECTION('center_axis',(0.,0.,1.));
#869=DIRECTION('ref_axis',(-1.,5.46571335200077E-15,0.));
#870=DIRECTION('',(5.46571335200077E-15,1.,0.));
#871=DIRECTION('center_axis',(5.46571335200077E-15,1.,0.));
#872=DIRECTION('ref_axis',(0.,0.,-1.));
#873=DIRECTION('',(5.45859653774035E-15,1.,0.));
#874=DIRECTION('center_axis',(5.46571335200077E-15,1.,0.));
#875=DIRECTION('ref_axis',(0.,0.,-1.));
#876=DIRECTION('',(5.45859653774035E-15,1.,0.));
#877=DIRECTION('center_axis',(5.46571335200077E-15,1.,0.));
#878=DIRECTION('ref_axis',(0.,0.,-1.));
#879=DIRECTION('',(5.45859653774035E-15,1.,0.));
#880=DIRECTION('center_axis',(5.46571335200077E-15,1.,0.));
#881=DIRECTION('ref_axis',(0.,0.,-1.));
#882=DIRECTION('',(5.45859653774035E-15,1.,0.));
#883=DIRECTION('center_axis',(5.46571335200077E-15,1.,0.));
#884=DIRECTION('ref_axis',(0.,0.,-1.));
#885=DIRECTION('center_axis',(5.46571335200077E-15,1.,0.));
#886=DIRECTION('ref_axis',(0.,0.,-1.));
#887=DIRECTION('',(-5.46571335200077E-15,-1.,0.));
#888=DIRECTION('center_axis',(0.,0.,1.));
#889=DIRECTION('ref_axis',(-1.,0.,0.));
#890=DIRECTION('',(5.46571335200077E-15,1.,0.));
#891=DIRECTION('center_axis',(0.,0.,-1.));
#892=DIRECTION('ref_axis',(1.,0.,0.));
#893=DIRECTION('center_axis',(0.,0.,1.));
#894=DIRECTION('ref_axis',(-1.,0.,0.));
#895=DIRECTION('',(-5.60364933564748E-15,-1.,0.));
#896=DIRECTION('',(8.88178419700128E-15,1.,0.));
#897=DIRECTION('center_axis',(5.46571335200077E-15,1.,0.));
#898=DIRECTION('ref_axis',(0.,0.,-1.));
#899=DIRECTION('',(-5.46571335200077E-15,-1.,0.));
#900=DIRECTION('center_axis',(5.46571335200077E-15,1.,0.));
#901=DIRECTION('ref_axis',(0.,0.,-1.));
#902=DIRECTION('',(5.45859653774035E-15,1.,0.));
#903=DIRECTION('center_axis',(0.,0.,1.));
#904=DIRECTION('ref_axis',(1.,0.,0.));
#905=DIRECTION('',(0.,0.,1.));
#906=DIRECTION('center_axis',(0.,0.,1.));
#907=DIRECTION('ref_axis',(1.,0.,0.));
#908=DIRECTION('',(0.,0.,1.));
#909=DIRECTION('center_axis',(1.,-5.60364933564748E-15,0.));
#910=DIRECTION('ref_axis',(0.,0.,1.));
#911=DIRECTION('center_axis',(0.,0.,1.));
#912=DIRECTION('ref_axis',(-1.,0.,0.));
#913=CARTESIAN_POINT('',(0.,0.,0.));
#914=CARTESIAN_POINT('Origin',(-46.2699999999999,-80.5,-1.688));
#915=CARTESIAN_POINT('',(-46.27,-93.5,-1.688));
#916=CARTESIAN_POINT('',(-46.2699999999999,-81.5,-1.688));
#917=CARTESIAN_POINT('',(-46.2699999999999,-83.75,-1.688));
#918=CARTESIAN_POINT('',(-46.27,-93.5,-7.196));
#919=CARTESIAN_POINT('',(-46.27,-93.5,-4.694));
#920=CARTESIAN_POINT('',(-46.2699999999999,-81.5,-7.196));
#921=CARTESIAN_POINT('',(-46.27,-83.75,-7.196));
#922=CARTESIAN_POINT('',(-46.2699999999999,-81.5,-1.688));
#923=CARTESIAN_POINT('Origin',(-46.,-93.5,-7.7));
#924=CARTESIAN_POINT('',(-44.2698380556091,-93.5,-7.196));
#925=CARTESIAN_POINT('',(-46.,-93.5,-7.196));
#926=CARTESIAN_POINT('',(-50.5093228229562,-93.5,-1.688));
#927=CARTESIAN_POINT('',(-48.5,-93.5,-1.688));
#928=CARTESIAN_POINT('',(-52.2049172643847,-93.5,-2.76669918574493));
#929=CARTESIAN_POINT('Origin',(-51.9549172643846,-93.4999999999999,-1.28767923997002));
#930=CARTESIAN_POINT('',(-52.9549172643846,-93.4999999999999,-2.70189280234311));
#931=CARTESIAN_POINT('Origin',(-52.4549172643846,-93.4999999999999,-1.28767923997002));
#932=CARTESIAN_POINT('',(-53.9549172643846,-93.4999999999999,-2.70189280234311));
#933=CARTESIAN_POINT('Origin',(-53.4549172643846,-93.4999999999999,-1.28767923997002));
#934=CARTESIAN_POINT('',(-54.7049172643846,-93.4999999999999,-2.76669918574492));
#935=CARTESIAN_POINT('Origin',(-54.4549172643846,-93.4999999999999,-1.28767923997002));
#936=CARTESIAN_POINT('',(-56.4005117058132,-93.4999999999999,-1.688));
#937=CARTESIAN_POINT('Origin',(-54.9549172643846,-93.4999999999999,-1.28767923997002));
#938=CARTESIAN_POINT('',(-73.2,-93.4999999999999,-1.688));
#939=CARTESIAN_POINT('',(-46.,-93.5,-1.688));
#940=CARTESIAN_POINT('',(-73.2,-93.4999999999999,-12.7));
#941=CARTESIAN_POINT('',(-73.2,-93.4999999999999,-7.7));
#942=CARTESIAN_POINT('',(-2.51000000000003,-93.5000000000002,-12.7));
#943=CARTESIAN_POINT('',(-26.,-93.5000000000001,-12.7));
#944=CARTESIAN_POINT('',(-2.51000000000003,-93.5000000000002,-7.798));
#945=CARTESIAN_POINT('',(-2.51000000000003,-93.5000000000002,-7.7));
#946=CARTESIAN_POINT('',(-3.75932083890088,-93.5000000000002,-7.798));
#947=CARTESIAN_POINT('',(-46.,-93.5,-7.798));
#948=CARTESIAN_POINT('',(-6.65051183453108,-93.5000000000002,-7.798));
#949=CARTESIAN_POINT('Origin',(-5.20491633671598,-93.5000000000002,-7.39768305469702));
#950=CARTESIAN_POINT('',(-20.7593208493916,-93.5000000000001,-7.798));
#951=CARTESIAN_POINT('',(-46.,-93.5,-7.798));
#952=CARTESIAN_POINT('',(-23.6505118450219,-93.5000000000001,-7.798));
#953=CARTESIAN_POINT('Origin',(-22.2049163472068,-93.5000000000001,-7.39768305469702));
#954=CARTESIAN_POINT('',(-40.90853656736,-93.5,-7.798));
#955=CARTESIAN_POINT('',(-43.3287026427517,-93.5,-7.798));
#956=CARTESIAN_POINT('Origin',(-42.4636216705562,-93.5,-6.7958970502902));
#957=CARTESIAN_POINT('Origin',(-46.,-87.,-1.688));
#958=CARTESIAN_POINT('',(-50.5093228229561,-81.5,-1.688));
#959=CARTESIAN_POINT('',(-48.254661411478,-81.5,-1.688));
#960=CARTESIAN_POINT('',(-50.5093228229562,-91.031000594371,-1.688));
#961=CARTESIAN_POINT('Origin',(-55.2969178178349,-60.5,-9.948));
#962=CARTESIAN_POINT('',(-73.1999999999995,-60.5,-7.196));
#963=CARTESIAN_POINT('',(-73.1999999999995,-60.5,-12.7));
#964=CARTESIAN_POINT('',(-73.1999999999998,-60.5,-8.824));
#965=CARTESIAN_POINT('',(-45.8348356356703,-60.5000000000001,-7.196));
#966=CARTESIAN_POINT('',(-50.6484589089175,-60.5,-7.196));
#967=CARTESIAN_POINT('',(-45.8348356356703,-60.5000000000001,-12.7));
#968=CARTESIAN_POINT('',(-45.8348356356703,-60.5,-8.572));
#969=CARTESIAN_POINT('',(-50.6484589089175,-60.5,-12.7));
#970=CARTESIAN_POINT('Origin',(-46.,-87.,-7.196));
#971=CARTESIAN_POINT('',(-73.1999999999999,-81.4999999999999,-7.196));
#972=CARTESIAN_POINT('',(-73.1999999999999,-86.9999999999999,-7.196));
#973=CARTESIAN_POINT('',(-64.7589999999999,-81.4999999999999,-7.196));
#974=CARTESIAN_POINT('',(-44.269838055609,-66.5,-7.196));
#975=CARTESIAN_POINT('',(-44.269838055609,-80.5,-7.196));
#976=CARTESIAN_POINT('',(-45.8348356356703,-66.5000000000001,-7.196));
#977=CARTESIAN_POINT('',(-45.9999999999999,-66.5,-7.196));
#978=CARTESIAN_POINT('',(-45.8348356356703,-66.5000000000001,-7.196));
#979=CARTESIAN_POINT('',(-67.1499999999996,-65.,-7.196));
#980=CARTESIAN_POINT('Origin',(-64.9999999999996,-65.,-7.196));
#981=CARTESIAN_POINT('',(-67.1499999999998,-75.,-7.196));
#982=CARTESIAN_POINT('Origin',(-64.9999999999998,-75.,-7.196));
#983=CARTESIAN_POINT('Origin',(-73.1999999999999,-86.9999999999999,-7.7));
#984=CARTESIAN_POINT('',(-73.1999999999999,-86.9999999999999,-12.7));
#985=CARTESIAN_POINT('',(-73.1999999999999,-81.4999999999999,-1.688));
#986=CARTESIAN_POINT('',(-73.1999999999999,-86.9999999999999,-1.688));
#987=CARTESIAN_POINT('',(-73.1999999999999,-81.4999999999999,-4.694));
#988=CARTESIAN_POINT('Origin',(-46.,-87.,-12.7));
#989=CARTESIAN_POINT('',(-45.8348356356703,-66.5000000000001,-12.7));
#990=CARTESIAN_POINT('',(-45.8348356356703,-66.5000000000001,-12.7));
#991=CARTESIAN_POINT('',(-2.50999999999988,-66.5000000000002,-12.7));
#992=CARTESIAN_POINT('',(-45.9999999999999,-66.5,-12.7));
#993=CARTESIAN_POINT('',(-2.50999999999999,-87.0000000000002,-12.7));
#994=CARTESIAN_POINT('',(-37.4877716705561,-72.9999999999999,-12.7));
#995=CARTESIAN_POINT('Origin',(-35.7796216705561,-72.9999999999999,-12.7));
#996=CARTESIAN_POINT('',(-30.5970663472067,-87.0000000000002,-12.7));
#997=CARTESIAN_POINT('Origin',(-28.8889163472067,-87.0000000000002,-12.7));
#998=CARTESIAN_POINT('',(-13.5970663367159,-73.0000000000003,-12.7));
#999=CARTESIAN_POINT('Origin',(-11.8889163367159,-73.0000000000003,-12.7));
#1000=CARTESIAN_POINT('',(-67.1499999999996,-65.,-12.7));
#1001=CARTESIAN_POINT('Origin',(-64.9999999999996,-65.,-12.7));
#1002=CARTESIAN_POINT('',(-67.1499999999998,-75.,-12.7));
#1003=CARTESIAN_POINT('Origin',(-64.9999999999998,-75.,-12.7));
#1004=CARTESIAN_POINT('Origin',(-64.9999999999998,-75.,-10.196));
#1005=CARTESIAN_POINT('',(-67.1499999999998,-75.,-10.196));
#1006=CARTESIAN_POINT('Origin',(-64.9999999999996,-65.,-10.196));
#1007=CARTESIAN_POINT('',(-67.1499999999996,-65.,-10.196));
#1008=CARTESIAN_POINT('Origin',(-45.8348356356703,-66.5000000000001,-7.196));
#1009=CARTESIAN_POINT('',(-45.8348356356703,-66.5,-7.448));
#1010=CARTESIAN_POINT('Origin',(-45.9999999999999,-66.5,-7.7));
#1011=CARTESIAN_POINT('',(-40.6574052855032,-66.5,-7.196));
#1012=CARTESIAN_POINT('Origin',(-42.4636216705561,-66.5,-6.7958970502902));
#1013=CARTESIAN_POINT('',(-31.8489999999999,-66.5000000000001,-7.196));
#1014=CARTESIAN_POINT('',(-32.2499999999999,-66.5000000000001,-7.196));
#1015=CARTESIAN_POINT('',(-31.8489999999999,-66.5000000000001,-7.798));
#1016=CARTESIAN_POINT('',(-31.8489999999999,-66.5000000000001,-4.694));
#1017=CARTESIAN_POINT('',(-23.6505118450217,-66.5000000000001,-7.798));
#1018=CARTESIAN_POINT('',(-45.9999999999999,-66.5,-7.798));
#1019=CARTESIAN_POINT('',(-20.7593208493915,-66.5000000000001,-7.798));
#1020=CARTESIAN_POINT('Origin',(-22.2049163472066,-66.5000000000001,-7.39768305469702));
#1021=CARTESIAN_POINT('',(-6.65051183453092,-66.5000000000002,-7.798));
#1022=CARTESIAN_POINT('',(-45.9999999999999,-66.5,-7.798));
#1023=CARTESIAN_POINT('',(-3.75932083890072,-66.5000000000002,-7.798));
#1024=CARTESIAN_POINT('Origin',(-5.20491633671582,-66.5000000000002,-7.39768305469702));
#1025=CARTESIAN_POINT('',(-2.50999999999988,-66.5000000000002,-7.798));
#1026=CARTESIAN_POINT('',(-45.9999999999999,-66.5,-7.798));
#1027=CARTESIAN_POINT('',(-2.50999999999988,-66.5000000000002,-7.7));
#1028=CARTESIAN_POINT('Origin',(-11.8889163367159,-73.0000000000003,-9.39768305469702));
#1029=CARTESIAN_POINT('',(-13.5970663367159,-73.0000000000003,-7.798));
#1030=CARTESIAN_POINT('',(-13.5970663367159,-73.0000000000003,-9.39768305469702));
#1031=CARTESIAN_POINT('Origin',(-11.8889163367159,-73.0000000000003,-7.798));
#1032=CARTESIAN_POINT('Origin',(-60.0165748596191,-86.8174743652344,-11.688));
#1033=CARTESIAN_POINT('',(-61.8470672643846,-88.,-11.688));
#1034=CARTESIAN_POINT('Origin',(-60.1389172643846,-88.,-11.688));
#1035=CARTESIAN_POINT('Origin',(-60.1389172643846,-88.,-3.28767923997002));
#1036=CARTESIAN_POINT('',(-61.8470672643846,-88.,-1.688));
#1037=CARTESIAN_POINT('',(-61.8470672643846,-88.,-3.28767923997002));
#1038=CARTESIAN_POINT('Origin',(-60.1389172643846,-88.,-1.688));
#1039=CARTESIAN_POINT('Origin',(-32.25,-80.0000000000001,-7.196));
#1040=CARTESIAN_POINT('',(-31.849,-80.0000000000001,-7.196));
#1041=CARTESIAN_POINT('',(-40.6574052855032,-80.0000000000001,-7.196));
#1042=CARTESIAN_POINT('',(-39.125,-80.0000000000001,-7.196));
#1043=CARTESIAN_POINT('',(-40.9085365673599,-80.0000000000001,-7.798));
#1044=CARTESIAN_POINT('Origin',(-42.4636216705561,-80.,-6.7958970502902));
#1045=CARTESIAN_POINT('',(-31.849,-80.0000000000001,-7.798));
#1046=CARTESIAN_POINT('',(-39.125,-80.0000000000001,-7.798));
#1047=CARTESIAN_POINT('',(-31.849,-80.0000000000001,-7.497));
#1048=CARTESIAN_POINT('Origin',(-31.849,-80.0000000000001,-7.798));
#1049=CARTESIAN_POINT('',(-31.849,-83.5000000000001,-7.798));
#1050=CARTESIAN_POINT('',(-31.849,-83.7500000000001,-7.196));
#1051=CARTESIAN_POINT('Origin',(-46.,-87.,-7.196));
#1052=CARTESIAN_POINT('',(-40.6574052855033,-80.5,-7.196));
#1053=CARTESIAN_POINT('',(-37.4877716705561,-72.9999999999999,-7.196));
#1054=CARTESIAN_POINT('Origin',(-35.7796216705561,-72.9999999999999,-7.196));
#1055=CARTESIAN_POINT('Origin',(-50.5093228229561,-81.5,-1.688));
#1056=CARTESIAN_POINT('',(-56.400511705813,-81.4999999999999,-1.688));
#1057=CARTESIAN_POINT('',(-48.254661411478,-81.5,-1.688));
#1058=CARTESIAN_POINT('',(-54.7049172643846,-81.4999999999999,-2.76669918574492));
#1059=CARTESIAN_POINT('Origin',(-54.9549172643846,-81.4999999999999,-1.28767923997002));
#1060=CARTESIAN_POINT('',(-53.9549172643846,-81.4999999999999,-2.70189280234311));
#1061=CARTESIAN_POINT('Origin',(-54.4549172643846,-81.4999999999999,-1.28767923997002));
#1062=CARTESIAN_POINT('',(-52.9549172643846,-81.4999999999999,-2.70189280234311));
#1063=CARTESIAN_POINT('Origin',(-53.4549172643846,-81.4999999999999,-1.28767923997002));
#1064=CARTESIAN_POINT('',(-52.2049172643846,-81.4999999999999,-2.76669918574493));
#1065=CARTESIAN_POINT('Origin',(-52.4549172643846,-81.4999999999999,-1.28767923997002));
#1066=CARTESIAN_POINT('Origin',(-51.9549172643847,-81.4999999999999,-1.28767923997002));
#1067=CARTESIAN_POINT('Origin',(-46.,-87.,-1.688));
#1068=CARTESIAN_POINT('',(-56.4005117058133,-111.031000594367,-1.688));
#1069=CARTESIAN_POINT('Origin',(-54.9549172643847,-111.031000594367,-1.28767923997002));
#1070=CARTESIAN_POINT('',(-54.7049172643846,-80.4999999999999,-2.76669918574492));
#1071=CARTESIAN_POINT('Origin',(-54.4549172643847,-111.031000594371,-1.28767923997002));
#1072=CARTESIAN_POINT('',(-53.9549172643846,-80.5,-2.70189280234311));
#1073=CARTESIAN_POINT('Origin',(-53.4549172643847,-111.031000594371,-1.28767923997002));
#1074=CARTESIAN_POINT('',(-52.9549172643846,-80.5,-2.70189280234311));
#1075=CARTESIAN_POINT('Origin',(-52.4549172643847,-111.031000594371,-1.28767923997002));
#1076=CARTESIAN_POINT('',(-52.2049172643846,-80.5,-2.76669918574493));
#1077=CARTESIAN_POINT('Origin',(-51.9549172643847,-91.0310005943709,-1.28767923997002));
#1078=CARTESIAN_POINT('Origin',(-42.4636216705562,-87.0000000000024,-6.7958970502902));
#1079=CARTESIAN_POINT('',(-40.9085365673599,-87.0000000000024,-7.798));
#1080=CARTESIAN_POINT('Origin',(-46.,-87.,-7.798));
#1081=CARTESIAN_POINT('',(-23.6505118450219,-101.596956252341,-7.798));
#1082=CARTESIAN_POINT('',(-30.5970663472067,-87.0000000000002,-7.798));
#1083=CARTESIAN_POINT('Origin',(-28.8889163472067,-87.0000000000002,-7.798));
#1084=CARTESIAN_POINT('Origin',(-46.,-87.,-7.798));
#1085=CARTESIAN_POINT('',(-2.50999999999999,-87.0000000000002,-7.798));
#1086=CARTESIAN_POINT('',(-3.75932083890073,-67.5000000000002,-7.798));
#1087=CARTESIAN_POINT('Origin',(-22.2049163472068,-101.596956252341,-7.39768305469702));
#1088=CARTESIAN_POINT('',(-20.7593208493917,-101.596956252341,-7.798));
#1089=CARTESIAN_POINT('Origin',(-5.20491633671602,-101.476956252341,-7.39768305469702));
#1090=CARTESIAN_POINT('',(-6.65051183453101,-80.5000000000002,-7.798));
#1091=CARTESIAN_POINT('Origin',(-35.7796216705561,-72.9999999999999,-8.7958970502902));
#1092=CARTESIAN_POINT('',(-37.4877716705561,-72.9999999999999,-8.7958970502902));
#1093=CARTESIAN_POINT('Origin',(-28.8889163472067,-87.0000000000002,-9.39768305469702));
#1094=CARTESIAN_POINT('',(-30.5970663472067,-87.0000000000002,-9.39768305469702));
#1095=CARTESIAN_POINT('Origin',(-2.50999999999999,-87.0000000000002,-7.7));
#1096=CARTESIAN_POINT('Origin',(-46.,-87.,-7.798));
#1097=UNCERTAINTY_MEASURE_WITH_UNIT(LENGTH_MEASURE(0.01),#1101,
'DISTANCE_ACCURACY_VALUE',
'Maximum model space distance between geometric entities at asserted c
onnectivities');
#1098=UNCERTAINTY_MEASURE_WITH_UNIT(LENGTH_MEASURE(0.01),#1101,
'DISTANCE_ACCURACY_VALUE',
'Maximum model space distance between geometric entities at asserted c
onnectivities');
#1099=(
GEOMETRIC_REPRESENTATION_CONTEXT(3)
GLOBAL_UNCERTAINTY_ASSIGNED_CONTEXT((#1097))
GLOBAL_UNIT_ASSIGNED_CONTEXT((#1101,#1103,#1104))
REPRESENTATION_CONTEXT('','3D')
);
#1100=(
GEOMETRIC_REPRESENTATION_CONTEXT(3)
GLOBAL_UNCERTAINTY_ASSIGNED_CONTEXT((#1098))
GLOBAL_UNIT_ASSIGNED_CONTEXT((#1101,#1103,#1104))
REPRESENTATION_CONTEXT('','3D')
);
#1101=(
LENGTH_UNIT()
NAMED_UNIT(*)
SI_UNIT(.MILLI.,.METRE.)
);
#1102=(
LENGTH_UNIT()
NAMED_UNIT(*)
SI_UNIT($,.METRE.)
);
#1103=(
NAMED_UNIT(*)
PLANE_ANGLE_UNIT()
SI_UNIT($,.RADIAN.)
);
#1104=(
NAMED_UNIT(*)
SI_UNIT($,.STERADIAN.)
SOLID_ANGLE_UNIT()
);
#1105=SHAPE_DEFINITION_REPRESENTATION(#1106,#1107);
#1106=PRODUCT_DEFINITION_SHAPE('',$,#1109);
#1107=SHAPE_REPRESENTATION('',(#663),#1099);
#1108=PRODUCT_DEFINITION_CONTEXT('part definition',#1113,'design');
#1109=PRODUCT_DEFINITION('2026-07-04-02-52-55-192',
'Fiber_Clamp_Koheron2',#1110,#1108);
#1110=PRODUCT_DEFINITION_FORMATION('',$,#1115);
#1111=PRODUCT_RELATED_PRODUCT_CATEGORY('Fiber_Clamp_Koheron2',
'Fiber_Clamp_Koheron2',(#1115));
#1112=APPLICATION_PROTOCOL_DEFINITION('international standard',
'automotive_design',2009,#1113);
#1113=APPLICATION_CONTEXT(
'Core Data for Automotive Mechanical Design Process');
#1114=PRODUCT_CONTEXT('part definition',#1113,'mechanical');
#1115=PRODUCT('2026-07-04-02-52-55-192','Fiber_Clamp_Koheron2',$,(#1114));
#1116=PRESENTATION_STYLE_ASSIGNMENT((#1118));
#1117=PRESENTATION_STYLE_ASSIGNMENT((#1119));
#1118=SURFACE_STYLE_USAGE(.BOTH.,#1120);
#1119=SURFACE_STYLE_USAGE(.BOTH.,#1121);
#1120=SURFACE_SIDE_STYLE('',(#1122));
#1121=SURFACE_SIDE_STYLE('',(#1123));
#1122=SURFACE_STYLE_FILL_AREA(#1124);
#1123=SURFACE_STYLE_FILL_AREA(#1125);
#1124=FILL_AREA_STYLE('Plate',(#1126));
#1125=FILL_AREA_STYLE('Opaque(160,160,160)',(#1127));
#1126=FILL_AREA_STYLE_COLOUR('Plate',#1128);
#1127=FILL_AREA_STYLE_COLOUR('Opaque(160,160,160)',#1129);
#1128=COLOUR_RGB('Plate',0.6,0.6,0.6);
#1129=COLOUR_RGB('Opaque(160,160,160)',0.627450980392157,0.627450980392157,
0.627450980392157);
ENDSEC;
END-ISO-10303-21;
