ISO-10303-21;
HEADER;
/* Generated by software containing ST-Developer
 * from STEP Tools, Inc. (www.steptools.com) 
 */

FILE_DESCRIPTION(
/* description */ (''),
/* implementation_level */ '2;1');

FILE_NAME(
/* name */ 'AOM_Adapter.step',
/* time_stamp */ '2026-08-13T20:11:21-05:00',
/* author */ (''),
/* organization */ (''),
/* preprocessor_version */ 'ST-DEVELOPER v20.1',
/* originating_system */ 'Autodesk Translation Framework v15.8.0.0',
/* authorisation */ '');

FILE_SCHEMA (('AUTOMOTIVE_DESIGN { 1 0 10303 214 3 1 1 }'));
ENDSEC;

DATA;
#10=MECHANICAL_DESIGN_GEOMETRIC_PRESENTATION_REPRESENTATION('',(#13),#1108);
#11=SHAPE_REPRESENTATION_RELATIONSHIP('SRR','None',#1115,#12);
#12=ADVANCED_BREP_SHAPE_REPRESENTATION('',(#14),#1107);
#13=STYLED_ITEM('',(#1125),#14);
#14=MANIFOLD_SOLID_BREP('Body1',#674);
#15=CYLINDRICAL_SURFACE('',#699,1.955);
#16=CYLINDRICAL_SURFACE('',#712,1.955);
#17=CYLINDRICAL_SURFACE('',#715,1.955);
#18=CYLINDRICAL_SURFACE('',#719,2.5);
#19=CYLINDRICAL_SURFACE('',#720,1.65);
#20=CYLINDRICAL_SURFACE('',#724,2.5);
#21=CYLINDRICAL_SURFACE('',#725,1.65);
#22=CYLINDRICAL_SURFACE('',#738,1.955);
#23=FACE_BOUND('',#87,.T.);
#24=FACE_BOUND('',#88,.T.);
#25=FACE_BOUND('',#89,.T.);
#26=FACE_BOUND('',#90,.T.);
#27=FACE_BOUND('',#95,.T.);
#28=FACE_BOUND('',#96,.T.);
#29=FACE_BOUND('',#97,.T.);
#30=FACE_BOUND('',#98,.T.);
#31=FACE_BOUND('',#109,.T.);
#32=FACE_BOUND('',#113,.T.);
#33=CIRCLE('',#691,1.955);
#34=CIRCLE('',#692,1.955);
#35=CIRCLE('',#693,1.65);
#36=CIRCLE('',#694,1.65);
#37=CIRCLE('',#695,1.955);
#38=CIRCLE('',#696,1.955);
#39=CIRCLE('',#700,1.955);
#40=CIRCLE('',#702,1.955);
#41=CIRCLE('',#703,1.955);
#42=CIRCLE('',#704,1.955);
#43=CIRCLE('',#705,2.5);
#44=CIRCLE('',#706,2.5);
#45=CIRCLE('',#717,2.5);
#46=CIRCLE('',#718,1.65);
#47=CIRCLE('',#722,2.5);
#48=CIRCLE('',#723,1.65);
#49=FACE_OUTER_BOUND('',#84,.T.);
#50=FACE_OUTER_BOUND('',#85,.T.);
#51=FACE_OUTER_BOUND('',#86,.T.);
#52=FACE_OUTER_BOUND('',#91,.T.);
#53=FACE_OUTER_BOUND('',#92,.T.);
#54=FACE_OUTER_BOUND('',#93,.T.);
#55=FACE_OUTER_BOUND('',#94,.T.);
#56=FACE_OUTER_BOUND('',#99,.T.);
#57=FACE_OUTER_BOUND('',#100,.T.);
#58=FACE_OUTER_BOUND('',#101,.T.);
#59=FACE_OUTER_BOUND('',#102,.T.);
#60=FACE_OUTER_BOUND('',#103,.T.);
#61=FACE_OUTER_BOUND('',#104,.T.);
#62=FACE_OUTER_BOUND('',#105,.T.);
#63=FACE_OUTER_BOUND('',#106,.T.);
#64=FACE_OUTER_BOUND('',#107,.T.);
#65=FACE_OUTER_BOUND('',#108,.T.);
#66=FACE_OUTER_BOUND('',#110,.T.);
#67=FACE_OUTER_BOUND('',#111,.T.);
#68=FACE_OUTER_BOUND('',#112,.T.);
#69=FACE_OUTER_BOUND('',#114,.T.);
#70=FACE_OUTER_BOUND('',#115,.T.);
#71=FACE_OUTER_BOUND('',#116,.T.);
#72=FACE_OUTER_BOUND('',#117,.T.);
#73=FACE_OUTER_BOUND('',#118,.T.);
#74=FACE_OUTER_BOUND('',#119,.T.);
#75=FACE_OUTER_BOUND('',#120,.T.);
#76=FACE_OUTER_BOUND('',#121,.T.);
#77=FACE_OUTER_BOUND('',#122,.T.);
#78=FACE_OUTER_BOUND('',#123,.T.);
#79=FACE_OUTER_BOUND('',#124,.T.);
#80=FACE_OUTER_BOUND('',#125,.T.);
#81=FACE_OUTER_BOUND('',#126,.T.);
#82=FACE_OUTER_BOUND('',#127,.T.);
#83=FACE_OUTER_BOUND('',#128,.T.);
#84=EDGE_LOOP('',(#430,#431,#432,#433));
#85=EDGE_LOOP('',(#434,#435,#436,#437));
#86=EDGE_LOOP('',(#438,#439,#440,#441,#442,#443,#444,#445,#446,#447,#448,
#449));
#87=EDGE_LOOP('',(#450,#451,#452,#453));
#88=EDGE_LOOP('',(#454));
#89=EDGE_LOOP('',(#455));
#90=EDGE_LOOP('',(#456,#457,#458,#459,#460,#461,#462,#463));
#91=EDGE_LOOP('',(#464,#465,#466,#467));
#92=EDGE_LOOP('',(#468,#469,#470,#471));
#93=EDGE_LOOP('',(#472,#473,#474,#475));
#94=EDGE_LOOP('',(#476,#477,#478,#479,#480,#481));
#95=EDGE_LOOP('',(#482,#483,#484,#485));
#96=EDGE_LOOP('',(#486,#487,#488,#489,#490,#491,#492,#493));
#97=EDGE_LOOP('',(#494));
#98=EDGE_LOOP('',(#495));
#99=EDGE_LOOP('',(#496,#497,#498,#499));
#100=EDGE_LOOP('',(#500,#501,#502,#503));
#101=EDGE_LOOP('',(#504,#505,#506,#507));
#102=EDGE_LOOP('',(#508,#509,#510,#511));
#103=EDGE_LOOP('',(#512,#513,#514,#515));
#104=EDGE_LOOP('',(#516,#517,#518,#519));
#105=EDGE_LOOP('',(#520,#521,#522,#523));
#106=EDGE_LOOP('',(#524,#525,#526,#527));
#107=EDGE_LOOP('',(#528,#529,#530,#531));
#108=EDGE_LOOP('',(#532));
#109=EDGE_LOOP('',(#533));
#110=EDGE_LOOP('',(#534,#535,#536,#537));
#111=EDGE_LOOP('',(#538,#539,#540,#541));
#112=EDGE_LOOP('',(#542));
#113=EDGE_LOOP('',(#543));
#114=EDGE_LOOP('',(#544,#545,#546,#547));
#115=EDGE_LOOP('',(#548,#549,#550,#551));
#116=EDGE_LOOP('',(#552,#553,#554,#555));
#117=EDGE_LOOP('',(#556,#557,#558,#559,#560));
#118=EDGE_LOOP('',(#561,#562,#563,#564));
#119=EDGE_LOOP('',(#565,#566,#567,#568,#569,#570));
#120=EDGE_LOOP('',(#571,#572,#573,#574));
#121=EDGE_LOOP('',(#575,#576,#577,#578));
#122=EDGE_LOOP('',(#579,#580,#581,#582));
#123=EDGE_LOOP('',(#583,#584,#585,#586));
#124=EDGE_LOOP('',(#587,#588,#589,#590));
#125=EDGE_LOOP('',(#591,#592,#593,#594,#595,#596,#597,#598));
#126=EDGE_LOOP('',(#599,#600,#601,#602));
#127=EDGE_LOOP('',(#603,#604,#605,#606,#607));
#128=EDGE_LOOP('',(#608,#609,#610,#611));
#129=LINE('',#922,#204);
#130=LINE('',#924,#205);
#131=LINE('',#926,#206);
#132=LINE('',#927,#207);
#133=LINE('',#931,#208);
#134=LINE('',#932,#209);
#135=LINE('',#933,#210);
#136=LINE('',#936,#211);
#137=LINE('',#938,#212);
#138=LINE('',#940,#213);
#139=LINE('',#942,#214);
#140=LINE('',#944,#215);
#141=LINE('',#946,#216);
#142=LINE('',#948,#217);
#143=LINE('',#950,#218);
#144=LINE('',#952,#219);
#145=LINE('',#953,#220);
#146=LINE('',#956,#221);
#147=LINE('',#960,#222);
#148=LINE('',#968,#223);
#149=LINE('',#970,#224);
#150=LINE('',#974,#225);
#151=LINE('',#976,#226);
#152=LINE('',#978,#227);
#153=LINE('',#981,#228);
#154=LINE('',#984,#229);
#155=LINE('',#986,#230);
#156=LINE('',#987,#231);
#157=LINE('',#990,#232);
#158=LINE('',#992,#233);
#159=LINE('',#993,#234);
#160=LINE('',#998,#235);
#161=LINE('',#1000,#236);
#162=LINE('',#1002,#237);
#163=LINE('',#1003,#238);
#164=LINE('',#1007,#239);
#165=LINE('',#1009,#240);
#166=LINE('',#1013,#241);
#167=LINE('',#1015,#242);
#168=LINE('',#1017,#243);
#169=LINE('',#1020,#244);
#170=LINE('',#1026,#245);
#171=LINE('',#1028,#246);
#172=LINE('',#1029,#247);
#173=LINE('',#1031,#248);
#174=LINE('',#1032,#249);
#175=LINE('',#1034,#250);
#176=LINE('',#1035,#251);
#177=LINE('',#1037,#252);
#178=LINE('',#1038,#253);
#179=LINE('',#1049,#254);
#180=LINE('',#1051,#255);
#181=LINE('',#1058,#256);
#182=LINE('',#1060,#257);
#183=LINE('',#1064,#258);
#184=LINE('',#1066,#259);
#185=LINE('',#1068,#260);
#186=LINE('',#1069,#261);
#187=LINE('',#1072,#262);
#188=LINE('',#1073,#263);
#189=LINE('',#1074,#264);
#190=LINE('',#1077,#265);
#191=LINE('',#1078,#266);
#192=LINE('',#1080,#267);
#193=LINE('',#1082,#268);
#194=LINE('',#1084,#269);
#195=LINE('',#1085,#270);
#196=LINE('',#1089,#271);
#197=LINE('',#1090,#272);
#198=LINE('',#1093,#273);
#199=LINE('',#1094,#274);
#200=LINE('',#1096,#275);
#201=LINE('',#1098,#276);
#202=LINE('',#1099,#277);
#203=LINE('',#1102,#278);
#204=VECTOR('',#743,10.);
#205=VECTOR('',#744,10.);
#206=VECTOR('',#745,10.);
#207=VECTOR('',#746,10.);
#208=VECTOR('',#749,10.);
#209=VECTOR('',#750,10.);
#210=VECTOR('',#751,10.);
#211=VECTOR('',#754,10.);
#212=VECTOR('',#755,10.);
#213=VECTOR('',#756,10.);
#214=VECTOR('',#757,10.);
#215=VECTOR('',#758,10.);
#216=VECTOR('',#759,10.);
#217=VECTOR('',#760,10.);
#218=VECTOR('',#761,10.);
#219=VECTOR('',#762,10.);
#220=VECTOR('',#763,10.);
#221=VECTOR('',#764,10.);
#222=VECTOR('',#767,10.);
#223=VECTOR('',#774,10.);
#224=VECTOR('',#775,10.);
#225=VECTOR('',#778,10.);
#226=VECTOR('',#779,10.);
#227=VECTOR('',#780,10.);
#228=VECTOR('',#783,10.);
#229=VECTOR('',#786,10.);
#230=VECTOR('',#787,10.);
#231=VECTOR('',#788,10.);
#232=VECTOR('',#791,10.);
#233=VECTOR('',#792,10.);
#234=VECTOR('',#793,10.);
#235=VECTOR('',#800,10.);
#236=VECTOR('',#801,10.);
#237=VECTOR('',#802,10.);
#238=VECTOR('',#803,10.);
#239=VECTOR('',#806,10.);
#240=VECTOR('',#807,10.);
#241=VECTOR('',#810,10.);
#242=VECTOR('',#811,10.);
#243=VECTOR('',#812,10.);
#244=VECTOR('',#815,10.);
#245=VECTOR('',#822,10.);
#246=VECTOR('',#825,10.);
#247=VECTOR('',#826,10.);
#248=VECTOR('',#829,10.);
#249=VECTOR('',#830,10.);
#250=VECTOR('',#833,10.);
#251=VECTOR('',#834,10.);
#252=VECTOR('',#837,10.);
#253=VECTOR('',#838,10.);
#254=VECTOR('',#855,2.5);
#255=VECTOR('',#858,1.65);
#256=VECTOR('',#867,2.5);
#257=VECTOR('',#870,1.65);
#258=VECTOR('',#873,10.);
#259=VECTOR('',#874,10.);
#260=VECTOR('',#875,10.);
#261=VECTOR('',#876,10.);
#262=VECTOR('',#879,10.);
#263=VECTOR('',#880,10.);
#264=VECTOR('',#881,10.);
#265=VECTOR('',#884,10.);
#266=VECTOR('',#885,10.);
#267=VECTOR('',#888,10.);
#268=VECTOR('',#889,10.);
#269=VECTOR('',#890,10.);
#270=VECTOR('',#891,10.);
#271=VECTOR('',#896,10.);
#272=VECTOR('',#897,10.);
#273=VECTOR('',#900,10.);
#274=VECTOR('',#901,10.);
#275=VECTOR('',#904,10.);
#276=VECTOR('',#907,10.);
#277=VECTOR('',#908,10.);
#278=VECTOR('',#913,10.);
#279=VERTEX_POINT('',#920);
#280=VERTEX_POINT('',#921);
#281=VERTEX_POINT('',#923);
#282=VERTEX_POINT('',#925);
#283=VERTEX_POINT('',#929);
#284=VERTEX_POINT('',#930);
#285=VERTEX_POINT('',#935);
#286=VERTEX_POINT('',#937);
#287=VERTEX_POINT('',#939);
#288=VERTEX_POINT('',#941);
#289=VERTEX_POINT('',#943);
#290=VERTEX_POINT('',#945);
#291=VERTEX_POINT('',#947);
#292=VERTEX_POINT('',#949);
#293=VERTEX_POINT('',#951);
#294=VERTEX_POINT('',#954);
#295=VERTEX_POINT('',#955);
#296=VERTEX_POINT('',#957);
#297=VERTEX_POINT('',#959);
#298=VERTEX_POINT('',#962);
#299=VERTEX_POINT('',#964);
#300=VERTEX_POINT('',#966);
#301=VERTEX_POINT('',#967);
#302=VERTEX_POINT('',#969);
#303=VERTEX_POINT('',#971);
#304=VERTEX_POINT('',#973);
#305=VERTEX_POINT('',#975);
#306=VERTEX_POINT('',#977);
#307=VERTEX_POINT('',#979);
#308=VERTEX_POINT('',#983);
#309=VERTEX_POINT('',#985);
#310=VERTEX_POINT('',#989);
#311=VERTEX_POINT('',#991);
#312=VERTEX_POINT('',#997);
#313=VERTEX_POINT('',#999);
#314=VERTEX_POINT('',#1001);
#315=VERTEX_POINT('',#1005);
#316=VERTEX_POINT('',#1006);
#317=VERTEX_POINT('',#1008);
#318=VERTEX_POINT('',#1010);
#319=VERTEX_POINT('',#1012);
#320=VERTEX_POINT('',#1014);
#321=VERTEX_POINT('',#1016);
#322=VERTEX_POINT('',#1018);
#323=VERTEX_POINT('',#1021);
#324=VERTEX_POINT('',#1023);
#325=VERTEX_POINT('',#1044);
#326=VERTEX_POINT('',#1046);
#327=VERTEX_POINT('',#1053);
#328=VERTEX_POINT('',#1055);
#329=VERTEX_POINT('',#1062);
#330=VERTEX_POINT('',#1063);
#331=VERTEX_POINT('',#1065);
#332=VERTEX_POINT('',#1067);
#333=VERTEX_POINT('',#1071);
#334=VERTEX_POINT('',#1076);
#335=VERTEX_POINT('',#1081);
#336=VERTEX_POINT('',#1083);
#337=VERTEX_POINT('',#1088);
#338=VERTEX_POINT('',#1092);
#339=EDGE_CURVE('',#279,#280,#129,.T.);
#340=EDGE_CURVE('',#280,#281,#130,.T.);
#341=EDGE_CURVE('',#281,#282,#131,.T.);
#342=EDGE_CURVE('',#282,#279,#132,.T.);
#343=EDGE_CURVE('',#283,#284,#133,.T.);
#344=EDGE_CURVE('',#283,#280,#134,.T.);
#345=EDGE_CURVE('',#284,#279,#135,.T.);
#346=EDGE_CURVE('',#285,#284,#136,.T.);
#347=EDGE_CURVE('',#286,#282,#137,.T.);
#348=EDGE_CURVE('',#287,#286,#138,.T.);
#349=EDGE_CURVE('',#287,#288,#139,.T.);
#350=EDGE_CURVE('',#288,#289,#140,.T.);
#351=EDGE_CURVE('',#289,#290,#141,.T.);
#352=EDGE_CURVE('',#290,#291,#142,.T.);
#353=EDGE_CURVE('',#292,#291,#143,.T.);
#354=EDGE_CURVE('',#292,#293,#144,.T.);
#355=EDGE_CURVE('',#293,#285,#145,.T.);
#356=EDGE_CURVE('',#294,#295,#146,.T.);
#357=EDGE_CURVE('',#295,#296,#33,.T.);
#358=EDGE_CURVE('',#296,#297,#147,.T.);
#359=EDGE_CURVE('',#297,#294,#34,.T.);
#360=EDGE_CURVE('',#298,#298,#35,.T.);
#361=EDGE_CURVE('',#299,#299,#36,.T.);
#362=EDGE_CURVE('',#300,#301,#148,.T.);
#363=EDGE_CURVE('',#301,#302,#149,.T.);
#364=EDGE_CURVE('',#302,#303,#37,.T.);
#365=EDGE_CURVE('',#303,#304,#150,.T.);
#366=EDGE_CURVE('',#304,#305,#151,.T.);
#367=EDGE_CURVE('',#305,#306,#152,.T.);
#368=EDGE_CURVE('',#306,#307,#38,.T.);
#369=EDGE_CURVE('',#307,#300,#153,.T.);
#370=EDGE_CURVE('',#308,#296,#154,.T.);
#371=EDGE_CURVE('',#309,#308,#155,.T.);
#372=EDGE_CURVE('',#309,#297,#156,.T.);
#373=EDGE_CURVE('',#310,#295,#157,.T.);
#374=EDGE_CURVE('',#294,#311,#158,.T.);
#375=EDGE_CURVE('',#310,#311,#159,.T.);
#376=EDGE_CURVE('',#308,#310,#39,.F.);
#377=EDGE_CURVE('',#283,#312,#160,.T.);
#378=EDGE_CURVE('',#312,#313,#161,.T.);
#379=EDGE_CURVE('',#313,#314,#162,.T.);
#380=EDGE_CURVE('',#314,#281,#163,.T.);
#381=EDGE_CURVE('',#311,#309,#40,.F.);
#382=EDGE_CURVE('',#315,#316,#164,.T.);
#383=EDGE_CURVE('',#316,#317,#165,.T.);
#384=EDGE_CURVE('',#317,#318,#41,.T.);
#385=EDGE_CURVE('',#318,#319,#166,.T.);
#386=EDGE_CURVE('',#319,#320,#167,.T.);
#387=EDGE_CURVE('',#320,#321,#168,.T.);
#388=EDGE_CURVE('',#321,#322,#42,.T.);
#389=EDGE_CURVE('',#322,#315,#169,.T.);
#390=EDGE_CURVE('',#323,#323,#43,.T.);
#391=EDGE_CURVE('',#324,#324,#44,.T.);
#392=EDGE_CURVE('',#285,#312,#170,.T.);
#393=EDGE_CURVE('',#317,#307,#171,.T.);
#394=EDGE_CURVE('',#300,#316,#172,.T.);
#395=EDGE_CURVE('',#306,#318,#173,.T.);
#396=EDGE_CURVE('',#319,#305,#174,.T.);
#397=EDGE_CURVE('',#302,#322,#175,.T.);
#398=EDGE_CURVE('',#315,#301,#176,.T.);
#399=EDGE_CURVE('',#321,#303,#177,.T.);
#400=EDGE_CURVE('',#304,#320,#178,.T.);
#401=EDGE_CURVE('',#325,#325,#45,.T.);
#402=EDGE_CURVE('',#326,#326,#46,.T.);
#403=EDGE_CURVE('',#324,#325,#179,.T.);
#404=EDGE_CURVE('',#326,#299,#180,.T.);
#405=EDGE_CURVE('',#327,#327,#47,.T.);
#406=EDGE_CURVE('',#328,#328,#48,.T.);
#407=EDGE_CURVE('',#323,#327,#181,.T.);
#408=EDGE_CURVE('',#328,#298,#182,.T.);
#409=EDGE_CURVE('',#329,#330,#183,.T.);
#410=EDGE_CURVE('',#331,#329,#184,.T.);
#411=EDGE_CURVE('',#332,#331,#185,.T.);
#412=EDGE_CURVE('',#330,#332,#186,.T.);
#413=EDGE_CURVE('',#329,#333,#187,.T.);
#414=EDGE_CURVE('',#333,#293,#188,.T.);
#415=EDGE_CURVE('',#292,#331,#189,.T.);
#416=EDGE_CURVE('',#334,#330,#190,.T.);
#417=EDGE_CURVE('',#333,#334,#191,.T.);
#418=EDGE_CURVE('',#314,#286,#192,.T.);
#419=EDGE_CURVE('',#335,#313,#193,.T.);
#420=EDGE_CURVE('',#335,#336,#194,.T.);
#421=EDGE_CURVE('',#336,#287,#195,.T.);
#422=EDGE_CURVE('',#337,#336,#196,.T.);
#423=EDGE_CURVE('',#288,#337,#197,.T.);
#424=EDGE_CURVE('',#338,#337,#198,.T.);
#425=EDGE_CURVE('',#289,#338,#199,.T.);
#426=EDGE_CURVE('',#335,#338,#200,.T.);
#427=EDGE_CURVE('',#334,#290,#201,.T.);
#428=EDGE_CURVE('',#293,#290,#202,.T.);
#429=EDGE_CURVE('',#332,#291,#203,.T.);
#430=ORIENTED_EDGE('',*,*,#339,.T.);
#431=ORIENTED_EDGE('',*,*,#340,.T.);
#432=ORIENTED_EDGE('',*,*,#341,.T.);
#433=ORIENTED_EDGE('',*,*,#342,.T.);
#434=ORIENTED_EDGE('',*,*,#343,.F.);
#435=ORIENTED_EDGE('',*,*,#344,.T.);
#436=ORIENTED_EDGE('',*,*,#339,.F.);
#437=ORIENTED_EDGE('',*,*,#345,.F.);
#438=ORIENTED_EDGE('',*,*,#346,.T.);
#439=ORIENTED_EDGE('',*,*,#345,.T.);
#440=ORIENTED_EDGE('',*,*,#342,.F.);
#441=ORIENTED_EDGE('',*,*,#347,.F.);
#442=ORIENTED_EDGE('',*,*,#348,.F.);
#443=ORIENTED_EDGE('',*,*,#349,.T.);
#444=ORIENTED_EDGE('',*,*,#350,.T.);
#445=ORIENTED_EDGE('',*,*,#351,.T.);
#446=ORIENTED_EDGE('',*,*,#352,.T.);
#447=ORIENTED_EDGE('',*,*,#353,.F.);
#448=ORIENTED_EDGE('',*,*,#354,.T.);
#449=ORIENTED_EDGE('',*,*,#355,.T.);
#450=ORIENTED_EDGE('',*,*,#356,.T.);
#451=ORIENTED_EDGE('',*,*,#357,.T.);
#452=ORIENTED_EDGE('',*,*,#358,.T.);
#453=ORIENTED_EDGE('',*,*,#359,.T.);
#454=ORIENTED_EDGE('',*,*,#360,.T.);
#455=ORIENTED_EDGE('',*,*,#361,.T.);
#456=ORIENTED_EDGE('',*,*,#362,.T.);
#457=ORIENTED_EDGE('',*,*,#363,.T.);
#458=ORIENTED_EDGE('',*,*,#364,.T.);
#459=ORIENTED_EDGE('',*,*,#365,.T.);
#460=ORIENTED_EDGE('',*,*,#366,.T.);
#461=ORIENTED_EDGE('',*,*,#367,.T.);
#462=ORIENTED_EDGE('',*,*,#368,.T.);
#463=ORIENTED_EDGE('',*,*,#369,.T.);
#464=ORIENTED_EDGE('',*,*,#370,.F.);
#465=ORIENTED_EDGE('',*,*,#371,.F.);
#466=ORIENTED_EDGE('',*,*,#372,.T.);
#467=ORIENTED_EDGE('',*,*,#358,.F.);
#468=ORIENTED_EDGE('',*,*,#373,.T.);
#469=ORIENTED_EDGE('',*,*,#356,.F.);
#470=ORIENTED_EDGE('',*,*,#374,.T.);
#471=ORIENTED_EDGE('',*,*,#375,.F.);
#472=ORIENTED_EDGE('',*,*,#357,.F.);
#473=ORIENTED_EDGE('',*,*,#373,.F.);
#474=ORIENTED_EDGE('',*,*,#376,.F.);
#475=ORIENTED_EDGE('',*,*,#370,.T.);
#476=ORIENTED_EDGE('',*,*,#377,.T.);
#477=ORIENTED_EDGE('',*,*,#378,.T.);
#478=ORIENTED_EDGE('',*,*,#379,.T.);
#479=ORIENTED_EDGE('',*,*,#380,.T.);
#480=ORIENTED_EDGE('',*,*,#340,.F.);
#481=ORIENTED_EDGE('',*,*,#344,.F.);
#482=ORIENTED_EDGE('',*,*,#375,.T.);
#483=ORIENTED_EDGE('',*,*,#381,.T.);
#484=ORIENTED_EDGE('',*,*,#371,.T.);
#485=ORIENTED_EDGE('',*,*,#376,.T.);
#486=ORIENTED_EDGE('',*,*,#382,.T.);
#487=ORIENTED_EDGE('',*,*,#383,.T.);
#488=ORIENTED_EDGE('',*,*,#384,.T.);
#489=ORIENTED_EDGE('',*,*,#385,.T.);
#490=ORIENTED_EDGE('',*,*,#386,.T.);
#491=ORIENTED_EDGE('',*,*,#387,.T.);
#492=ORIENTED_EDGE('',*,*,#388,.T.);
#493=ORIENTED_EDGE('',*,*,#389,.T.);
#494=ORIENTED_EDGE('',*,*,#390,.T.);
#495=ORIENTED_EDGE('',*,*,#391,.T.);
#496=ORIENTED_EDGE('',*,*,#346,.F.);
#497=ORIENTED_EDGE('',*,*,#392,.T.);
#498=ORIENTED_EDGE('',*,*,#377,.F.);
#499=ORIENTED_EDGE('',*,*,#343,.T.);
#500=ORIENTED_EDGE('',*,*,#393,.F.);
#501=ORIENTED_EDGE('',*,*,#383,.F.);
#502=ORIENTED_EDGE('',*,*,#394,.F.);
#503=ORIENTED_EDGE('',*,*,#369,.F.);
#504=ORIENTED_EDGE('',*,*,#395,.F.);
#505=ORIENTED_EDGE('',*,*,#367,.F.);
#506=ORIENTED_EDGE('',*,*,#396,.F.);
#507=ORIENTED_EDGE('',*,*,#385,.F.);
#508=ORIENTED_EDGE('',*,*,#397,.F.);
#509=ORIENTED_EDGE('',*,*,#363,.F.);
#510=ORIENTED_EDGE('',*,*,#398,.F.);
#511=ORIENTED_EDGE('',*,*,#389,.F.);
#512=ORIENTED_EDGE('',*,*,#399,.F.);
#513=ORIENTED_EDGE('',*,*,#387,.F.);
#514=ORIENTED_EDGE('',*,*,#400,.F.);
#515=ORIENTED_EDGE('',*,*,#365,.F.);
#516=ORIENTED_EDGE('',*,*,#372,.F.);
#517=ORIENTED_EDGE('',*,*,#381,.F.);
#518=ORIENTED_EDGE('',*,*,#374,.F.);
#519=ORIENTED_EDGE('',*,*,#359,.F.);
#520=ORIENTED_EDGE('',*,*,#386,.F.);
#521=ORIENTED_EDGE('',*,*,#396,.T.);
#522=ORIENTED_EDGE('',*,*,#366,.F.);
#523=ORIENTED_EDGE('',*,*,#400,.T.);
#524=ORIENTED_EDGE('',*,*,#362,.F.);
#525=ORIENTED_EDGE('',*,*,#394,.T.);
#526=ORIENTED_EDGE('',*,*,#382,.F.);
#527=ORIENTED_EDGE('',*,*,#398,.T.);
#528=ORIENTED_EDGE('',*,*,#399,.T.);
#529=ORIENTED_EDGE('',*,*,#364,.F.);
#530=ORIENTED_EDGE('',*,*,#397,.T.);
#531=ORIENTED_EDGE('',*,*,#388,.F.);
#532=ORIENTED_EDGE('',*,*,#401,.F.);
#533=ORIENTED_EDGE('',*,*,#402,.T.);
#534=ORIENTED_EDGE('',*,*,#391,.F.);
#535=ORIENTED_EDGE('',*,*,#403,.T.);
#536=ORIENTED_EDGE('',*,*,#401,.T.);
#537=ORIENTED_EDGE('',*,*,#403,.F.);
#538=ORIENTED_EDGE('',*,*,#402,.F.);
#539=ORIENTED_EDGE('',*,*,#404,.T.);
#540=ORIENTED_EDGE('',*,*,#361,.F.);
#541=ORIENTED_EDGE('',*,*,#404,.F.);
#542=ORIENTED_EDGE('',*,*,#405,.F.);
#543=ORIENTED_EDGE('',*,*,#406,.T.);
#544=ORIENTED_EDGE('',*,*,#390,.F.);
#545=ORIENTED_EDGE('',*,*,#407,.T.);
#546=ORIENTED_EDGE('',*,*,#405,.T.);
#547=ORIENTED_EDGE('',*,*,#407,.F.);
#548=ORIENTED_EDGE('',*,*,#406,.F.);
#549=ORIENTED_EDGE('',*,*,#408,.T.);
#550=ORIENTED_EDGE('',*,*,#360,.F.);
#551=ORIENTED_EDGE('',*,*,#408,.F.);
#552=ORIENTED_EDGE('',*,*,#409,.F.);
#553=ORIENTED_EDGE('',*,*,#410,.F.);
#554=ORIENTED_EDGE('',*,*,#411,.F.);
#555=ORIENTED_EDGE('',*,*,#412,.F.);
#556=ORIENTED_EDGE('',*,*,#410,.T.);
#557=ORIENTED_EDGE('',*,*,#413,.T.);
#558=ORIENTED_EDGE('',*,*,#414,.T.);
#559=ORIENTED_EDGE('',*,*,#354,.F.);
#560=ORIENTED_EDGE('',*,*,#415,.T.);
#561=ORIENTED_EDGE('',*,*,#409,.T.);
#562=ORIENTED_EDGE('',*,*,#416,.F.);
#563=ORIENTED_EDGE('',*,*,#417,.F.);
#564=ORIENTED_EDGE('',*,*,#413,.F.);
#565=ORIENTED_EDGE('',*,*,#418,.F.);
#566=ORIENTED_EDGE('',*,*,#379,.F.);
#567=ORIENTED_EDGE('',*,*,#419,.F.);
#568=ORIENTED_EDGE('',*,*,#420,.T.);
#569=ORIENTED_EDGE('',*,*,#421,.T.);
#570=ORIENTED_EDGE('',*,*,#348,.T.);
#571=ORIENTED_EDGE('',*,*,#418,.T.);
#572=ORIENTED_EDGE('',*,*,#347,.T.);
#573=ORIENTED_EDGE('',*,*,#341,.F.);
#574=ORIENTED_EDGE('',*,*,#380,.F.);
#575=ORIENTED_EDGE('',*,*,#349,.F.);
#576=ORIENTED_EDGE('',*,*,#421,.F.);
#577=ORIENTED_EDGE('',*,*,#422,.F.);
#578=ORIENTED_EDGE('',*,*,#423,.F.);
#579=ORIENTED_EDGE('',*,*,#350,.F.);
#580=ORIENTED_EDGE('',*,*,#423,.T.);
#581=ORIENTED_EDGE('',*,*,#424,.F.);
#582=ORIENTED_EDGE('',*,*,#425,.F.);
#583=ORIENTED_EDGE('',*,*,#420,.F.);
#584=ORIENTED_EDGE('',*,*,#426,.T.);
#585=ORIENTED_EDGE('',*,*,#424,.T.);
#586=ORIENTED_EDGE('',*,*,#422,.T.);
#587=ORIENTED_EDGE('',*,*,#417,.T.);
#588=ORIENTED_EDGE('',*,*,#427,.T.);
#589=ORIENTED_EDGE('',*,*,#428,.F.);
#590=ORIENTED_EDGE('',*,*,#414,.F.);
#591=ORIENTED_EDGE('',*,*,#419,.T.);
#592=ORIENTED_EDGE('',*,*,#378,.F.);
#593=ORIENTED_EDGE('',*,*,#392,.F.);
#594=ORIENTED_EDGE('',*,*,#355,.F.);
#595=ORIENTED_EDGE('',*,*,#428,.T.);
#596=ORIENTED_EDGE('',*,*,#351,.F.);
#597=ORIENTED_EDGE('',*,*,#425,.T.);
#598=ORIENTED_EDGE('',*,*,#426,.F.);
#599=ORIENTED_EDGE('',*,*,#411,.T.);
#600=ORIENTED_EDGE('',*,*,#415,.F.);
#601=ORIENTED_EDGE('',*,*,#353,.T.);
#602=ORIENTED_EDGE('',*,*,#429,.F.);
#603=ORIENTED_EDGE('',*,*,#412,.T.);
#604=ORIENTED_EDGE('',*,*,#429,.T.);
#605=ORIENTED_EDGE('',*,*,#352,.F.);
#606=ORIENTED_EDGE('',*,*,#427,.F.);
#607=ORIENTED_EDGE('',*,*,#416,.T.);
#608=ORIENTED_EDGE('',*,*,#395,.T.);
#609=ORIENTED_EDGE('',*,*,#384,.F.);
#610=ORIENTED_EDGE('',*,*,#393,.T.);
#611=ORIENTED_EDGE('',*,*,#368,.F.);
#612=PLANE('',#688);
#613=PLANE('',#689);
#614=PLANE('',#690);
#615=PLANE('',#697);
#616=PLANE('',#698);
#617=PLANE('',#701);
#618=PLANE('',#707);
#619=PLANE('',#708);
#620=PLANE('',#709);
#621=PLANE('',#710);
#622=PLANE('',#711);
#623=PLANE('',#713);
#624=PLANE('',#714);
#625=PLANE('',#716);
#626=PLANE('',#721);
#627=PLANE('',#726);
#628=PLANE('',#727);
#629=PLANE('',#728);
#630=PLANE('',#729);
#631=PLANE('',#730);
#632=PLANE('',#731);
#633=PLANE('',#732);
#634=PLANE('',#733);
#635=PLANE('',#734);
#636=PLANE('',#735);
#637=PLANE('',#736);
#638=PLANE('',#737);
#639=ADVANCED_FACE('',(#49),#612,.T.);
#640=ADVANCED_FACE('',(#50),#613,.F.);
#641=ADVANCED_FACE('',(#51,#23,#24,#25,#26),#614,.T.);
#642=ADVANCED_FACE('',(#52),#615,.F.);
#643=ADVANCED_FACE('',(#53),#616,.F.);
#644=ADVANCED_FACE('',(#54),#15,.F.);
#645=ADVANCED_FACE('',(#55,#27,#28,#29,#30),#617,.F.);
#646=ADVANCED_FACE('',(#56),#618,.F.);
#647=ADVANCED_FACE('',(#57),#619,.F.);
#648=ADVANCED_FACE('',(#58),#620,.F.);
#649=ADVANCED_FACE('',(#59),#621,.F.);
#650=ADVANCED_FACE('',(#60),#622,.F.);
#651=ADVANCED_FACE('',(#61),#16,.F.);
#652=ADVANCED_FACE('',(#62),#623,.F.);
#653=ADVANCED_FACE('',(#63),#624,.F.);
#654=ADVANCED_FACE('',(#64),#17,.F.);
#655=ADVANCED_FACE('',(#65,#31),#625,.F.);
#656=ADVANCED_FACE('',(#66),#18,.F.);
#657=ADVANCED_FACE('',(#67),#19,.F.);
#658=ADVANCED_FACE('',(#68,#32),#626,.F.);
#659=ADVANCED_FACE('',(#69),#20,.F.);
#660=ADVANCED_FACE('',(#70),#21,.F.);
#661=ADVANCED_FACE('',(#71),#627,.F.);
#662=ADVANCED_FACE('',(#72),#628,.T.);
#663=ADVANCED_FACE('',(#73),#629,.F.);
#664=ADVANCED_FACE('',(#74),#630,.F.);
#665=ADVANCED_FACE('',(#75),#631,.F.);
#666=ADVANCED_FACE('',(#76),#632,.T.);
#667=ADVANCED_FACE('',(#77),#633,.T.);
#668=ADVANCED_FACE('',(#78),#634,.T.);
#669=ADVANCED_FACE('',(#79),#635,.F.);
#670=ADVANCED_FACE('',(#80),#636,.F.);
#671=ADVANCED_FACE('',(#81),#637,.F.);
#672=ADVANCED_FACE('',(#82),#638,.T.);
#673=ADVANCED_FACE('',(#83),#22,.F.);
#674=CLOSED_SHELL('',(#639,#640,#641,#642,#643,#644,#645,#646,#647,#648,
#649,#650,#651,#652,#653,#654,#655,#656,#657,#658,#659,#660,#661,#662,#663,
#664,#665,#666,#667,#668,#669,#670,#671,#672,#673));
#675=DERIVED_UNIT_ELEMENT(#677,1.);
#676=DERIVED_UNIT_ELEMENT(#1110,-3.);
#677=(
MASS_UNIT()
NAMED_UNIT(*)
SI_UNIT(.KILO.,.GRAM.)
);
#678=DERIVED_UNIT((#675,#676));
#679=MEASURE_REPRESENTATION_ITEM('density measure',
POSITIVE_RATIO_MEASURE(7850.),#678);
#680=PROPERTY_DEFINITION_REPRESENTATION(#685,#682);
#681=PROPERTY_DEFINITION_REPRESENTATION(#686,#683);
#682=REPRESENTATION('material name',(#684),#1107);
#683=REPRESENTATION('density',(#679),#1107);
#684=DESCRIPTIVE_REPRESENTATION_ITEM('Steel','Steel');
#685=PROPERTY_DEFINITION('material property','material name',#1117);
#686=PROPERTY_DEFINITION('material property','density of part',#1117);
#687=AXIS2_PLACEMENT_3D('',#918,#739,#740);
#688=AXIS2_PLACEMENT_3D('',#919,#741,#742);
#689=AXIS2_PLACEMENT_3D('',#928,#747,#748);
#690=AXIS2_PLACEMENT_3D('',#934,#752,#753);
#691=AXIS2_PLACEMENT_3D('',#958,#765,#766);
#692=AXIS2_PLACEMENT_3D('',#961,#768,#769);
#693=AXIS2_PLACEMENT_3D('',#963,#770,#771);
#694=AXIS2_PLACEMENT_3D('',#965,#772,#773);
#695=AXIS2_PLACEMENT_3D('',#972,#776,#777);
#696=AXIS2_PLACEMENT_3D('',#980,#781,#782);
#697=AXIS2_PLACEMENT_3D('',#982,#784,#785);
#698=AXIS2_PLACEMENT_3D('',#988,#789,#790);
#699=AXIS2_PLACEMENT_3D('',#994,#794,#795);
#700=AXIS2_PLACEMENT_3D('',#995,#796,#797);
#701=AXIS2_PLACEMENT_3D('',#996,#798,#799);
#702=AXIS2_PLACEMENT_3D('',#1004,#804,#805);
#703=AXIS2_PLACEMENT_3D('',#1011,#808,#809);
#704=AXIS2_PLACEMENT_3D('',#1019,#813,#814);
#705=AXIS2_PLACEMENT_3D('',#1022,#816,#817);
#706=AXIS2_PLACEMENT_3D('',#1024,#818,#819);
#707=AXIS2_PLACEMENT_3D('',#1025,#820,#821);
#708=AXIS2_PLACEMENT_3D('',#1027,#823,#824);
#709=AXIS2_PLACEMENT_3D('',#1030,#827,#828);
#710=AXIS2_PLACEMENT_3D('',#1033,#831,#832);
#711=AXIS2_PLACEMENT_3D('',#1036,#835,#836);
#712=AXIS2_PLACEMENT_3D('',#1039,#839,#840);
#713=AXIS2_PLACEMENT_3D('',#1040,#841,#842);
#714=AXIS2_PLACEMENT_3D('',#1041,#843,#844);
#715=AXIS2_PLACEMENT_3D('',#1042,#845,#846);
#716=AXIS2_PLACEMENT_3D('',#1043,#847,#848);
#717=AXIS2_PLACEMENT_3D('',#1045,#849,#850);
#718=AXIS2_PLACEMENT_3D('',#1047,#851,#852);
#719=AXIS2_PLACEMENT_3D('',#1048,#853,#854);
#720=AXIS2_PLACEMENT_3D('',#1050,#856,#857);
#721=AXIS2_PLACEMENT_3D('',#1052,#859,#860);
#722=AXIS2_PLACEMENT_3D('',#1054,#861,#862);
#723=AXIS2_PLACEMENT_3D('',#1056,#863,#864);
#724=AXIS2_PLACEMENT_3D('',#1057,#865,#866);
#725=AXIS2_PLACEMENT_3D('',#1059,#868,#869);
#726=AXIS2_PLACEMENT_3D('',#1061,#871,#872);
#727=AXIS2_PLACEMENT_3D('',#1070,#877,#878);
#728=AXIS2_PLACEMENT_3D('',#1075,#882,#883);
#729=AXIS2_PLACEMENT_3D('',#1079,#886,#887);
#730=AXIS2_PLACEMENT_3D('',#1086,#892,#893);
#731=AXIS2_PLACEMENT_3D('',#1087,#894,#895);
#732=AXIS2_PLACEMENT_3D('',#1091,#898,#899);
#733=AXIS2_PLACEMENT_3D('',#1095,#902,#903);
#734=AXIS2_PLACEMENT_3D('',#1097,#905,#906);
#735=AXIS2_PLACEMENT_3D('',#1100,#909,#910);
#736=AXIS2_PLACEMENT_3D('',#1101,#911,#912);
#737=AXIS2_PLACEMENT_3D('',#1103,#914,#915);
#738=AXIS2_PLACEMENT_3D('',#1104,#916,#917);
#739=DIRECTION('axis',(0.,0.,1.));
#740=DIRECTION('refdir',(1.,0.,0.));
#741=DIRECTION('center_axis',(0.,-1.,0.));
#742=DIRECTION('ref_axis',(0.,0.,-1.));
#743=DIRECTION('',(0.,0.,-1.));
#744=DIRECTION('',(1.,0.,0.));
#745=DIRECTION('',(0.,0.,1.));
#746=DIRECTION('',(-1.,0.,0.));
#747=DIRECTION('center_axis',(1.,0.,0.));
#748=DIRECTION('ref_axis',(0.,0.,-1.));
#749=DIRECTION('',(0.,0.,1.));
#750=DIRECTION('',(0.,-1.,0.));
#751=DIRECTION('',(0.,-1.,0.));
#752=DIRECTION('center_axis',(0.,0.,1.));
#753=DIRECTION('ref_axis',(1.,0.,0.));
#754=DIRECTION('',(1.,0.,0.));
#755=DIRECTION('',(0.,-1.,0.));
#756=DIRECTION('',(1.,0.,0.));
#757=DIRECTION('',(0.,-1.,0.));
#758=DIRECTION('',(-1.,0.,0.));
#759=DIRECTION('',(0.,-1.,0.));
#760=DIRECTION('',(1.,0.,0.));
#761=DIRECTION('',(0.,1.,0.));
#762=DIRECTION('',(-1.,0.,0.));
#763=DIRECTION('',(0.,-1.,0.));
#764=DIRECTION('',(-1.,0.,0.));
#765=DIRECTION('center_axis',(0.,0.,-1.));
#766=DIRECTION('ref_axis',(1.,0.,0.));
#767=DIRECTION('',(1.,0.,0.));
#768=DIRECTION('center_axis',(0.,0.,-1.));
#769=DIRECTION('ref_axis',(1.,0.,0.));
#770=DIRECTION('center_axis',(0.,0.,-1.));
#771=DIRECTION('ref_axis',(-1.,0.,0.));
#772=DIRECTION('center_axis',(0.,0.,-1.));
#773=DIRECTION('ref_axis',(-1.,0.,0.));
#774=DIRECTION('',(1.,0.,0.));
#775=DIRECTION('',(0.,-1.,0.));
#776=DIRECTION('center_axis',(0.,0.,-1.));
#777=DIRECTION('ref_axis',(-1.,0.,0.));
#778=DIRECTION('',(0.,-1.,0.));
#779=DIRECTION('',(-1.,0.,0.));
#780=DIRECTION('',(0.,1.,0.));
#781=DIRECTION('center_axis',(0.,0.,-1.));
#782=DIRECTION('ref_axis',(-1.,0.,0.));
#783=DIRECTION('',(0.,1.,0.));
#784=DIRECTION('center_axis',(0.,1.,0.));
#785=DIRECTION('ref_axis',(0.,0.,-1.));
#786=DIRECTION('',(0.,0.,1.));
#787=DIRECTION('',(-1.,0.,0.));
#788=DIRECTION('',(0.,0.,1.));
#789=DIRECTION('center_axis',(0.,-1.,0.));
#790=DIRECTION('ref_axis',(0.,0.,1.));
#791=DIRECTION('',(0.,0.,1.));
#792=DIRECTION('',(0.,0.,-1.));
#793=DIRECTION('',(1.,0.,0.));
#794=DIRECTION('center_axis',(0.,0.,-1.));
#795=DIRECTION('ref_axis',(-1.,-1.22464679914735E-16,0.));
#796=DIRECTION('center_axis',(0.,0.,-1.));
#797=DIRECTION('ref_axis',(1.,0.,0.));
#798=DIRECTION('center_axis',(0.,0.,1.));
#799=DIRECTION('ref_axis',(1.,0.,0.));
#800=DIRECTION('',(-1.,0.,0.));
#801=DIRECTION('',(0.,1.,0.));
#802=DIRECTION('',(1.,0.,0.));
#803=DIRECTION('',(0.,-1.,0.));
#804=DIRECTION('center_axis',(0.,0.,-1.));
#805=DIRECTION('ref_axis',(1.,0.,0.));
#806=DIRECTION('',(-1.,0.,0.));
#807=DIRECTION('',(0.,-1.,0.));
#808=DIRECTION('center_axis',(0.,0.,1.));
#809=DIRECTION('ref_axis',(-1.,0.,0.));
#810=DIRECTION('',(0.,-1.,0.));
#811=DIRECTION('',(1.,0.,0.));
#812=DIRECTION('',(0.,1.,0.));
#813=DIRECTION('center_axis',(0.,0.,1.));
#814=DIRECTION('ref_axis',(-1.,0.,0.));
#815=DIRECTION('',(0.,1.,0.));
#816=DIRECTION('center_axis',(0.,0.,1.));
#817=DIRECTION('ref_axis',(-1.,0.,0.));
#818=DIRECTION('center_axis',(0.,0.,1.));
#819=DIRECTION('ref_axis',(-1.,0.,0.));
#820=DIRECTION('center_axis',(0.,1.,0.));
#821=DIRECTION('ref_axis',(1.,0.,0.));
#822=DIRECTION('',(0.,0.,-1.));
#823=DIRECTION('center_axis',(-1.,0.,0.));
#824=DIRECTION('ref_axis',(0.,0.,1.));
#825=DIRECTION('',(0.,0.,1.));
#826=DIRECTION('',(0.,0.,-1.));
#827=DIRECTION('center_axis',(-1.,0.,0.));
#828=DIRECTION('ref_axis',(0.,0.,1.));
#829=DIRECTION('',(0.,0.,-1.));
#830=DIRECTION('',(0.,0.,1.));
#831=DIRECTION('center_axis',(1.,0.,0.));
#832=DIRECTION('ref_axis',(0.,0.,-1.));
#833=DIRECTION('',(0.,0.,-1.));
#834=DIRECTION('',(0.,0.,1.));
#835=DIRECTION('center_axis',(1.,0.,0.));
#836=DIRECTION('ref_axis',(0.,0.,-1.));
#837=DIRECTION('',(0.,0.,1.));
#838=DIRECTION('',(0.,0.,-1.));
#839=DIRECTION('center_axis',(0.,0.,-1.));
#840=DIRECTION('ref_axis',(1.,0.,0.));
#841=DIRECTION('center_axis',(0.,-1.,0.));
#842=DIRECTION('ref_axis',(-1.,0.,0.));
#843=DIRECTION('center_axis',(0.,1.,0.));
#844=DIRECTION('ref_axis',(1.,0.,0.));
#845=DIRECTION('center_axis',(0.,0.,-1.));
#846=DIRECTION('ref_axis',(1.,-1.22464679914735E-16,0.));
#847=DIRECTION('center_axis',(0.,0.,1.));
#848=DIRECTION('ref_axis',(-1.,0.,0.));
#849=DIRECTION('center_axis',(0.,0.,1.));
#850=DIRECTION('ref_axis',(-1.,0.,0.));
#851=DIRECTION('center_axis',(0.,0.,1.));
#852=DIRECTION('ref_axis',(-1.,0.,0.));
#853=DIRECTION('center_axis',(0.,0.,1.));
#854=DIRECTION('ref_axis',(-1.,0.,0.));
#855=DIRECTION('',(0.,0.,1.));
#856=DIRECTION('center_axis',(0.,0.,1.));
#857=DIRECTION('ref_axis',(-1.,0.,0.));
#858=DIRECTION('',(0.,0.,1.));
#859=DIRECTION('center_axis',(0.,0.,1.));
#860=DIRECTION('ref_axis',(-1.,0.,0.));
#861=DIRECTION('center_axis',(0.,0.,1.));
#862=DIRECTION('ref_axis',(-1.,0.,0.));
#863=DIRECTION('center_axis',(0.,0.,1.));
#864=DIRECTION('ref_axis',(-1.,0.,0.));
#865=DIRECTION('center_axis',(0.,0.,1.));
#866=DIRECTION('ref_axis',(-1.,0.,0.));
#867=DIRECTION('',(0.,0.,1.));
#868=DIRECTION('center_axis',(0.,0.,1.));
#869=DIRECTION('ref_axis',(-1.,0.,0.));
#870=DIRECTION('',(0.,0.,1.));
#871=DIRECTION('center_axis',(0.,0.,-1.));
#872=DIRECTION('ref_axis',(-1.,0.,0.));
#873=DIRECTION('',(0.,1.,0.));
#874=DIRECTION('',(-1.,0.,0.));
#875=DIRECTION('',(0.,-1.,0.));
#876=DIRECTION('',(1.,0.,0.));
#877=DIRECTION('center_axis',(0.,-1.,0.));
#878=DIRECTION('ref_axis',(1.,0.,0.));
#879=DIRECTION('',(0.,0.,-1.));
#880=DIRECTION('',(1.,0.,0.));
#881=DIRECTION('',(0.,0.,1.));
#882=DIRECTION('center_axis',(1.,0.,0.));
#883=DIRECTION('ref_axis',(0.,-1.,0.));
#884=DIRECTION('',(0.,0.,1.));
#885=DIRECTION('',(0.,1.,0.));
#886=DIRECTION('center_axis',(0.,-1.,0.));
#887=DIRECTION('ref_axis',(-1.,0.,0.));
#888=DIRECTION('',(0.,0.,1.));
#889=DIRECTION('',(0.,0.,-1.));
#890=DIRECTION('',(1.,0.,0.));
#891=DIRECTION('',(0.,0.,-1.));
#892=DIRECTION('center_axis',(-1.,0.,0.));
#893=DIRECTION('ref_axis',(0.,1.,0.));
#894=DIRECTION('center_axis',(1.,0.,0.));
#895=DIRECTION('ref_axis',(0.,1.,0.));
#896=DIRECTION('',(0.,1.,0.));
#897=DIRECTION('',(0.,0.,1.));
#898=DIRECTION('center_axis',(0.,-1.,0.));
#899=DIRECTION('ref_axis',(1.,0.,0.));
#900=DIRECTION('',(1.,0.,0.));
#901=DIRECTION('',(0.,0.,1.));
#902=DIRECTION('center_axis',(0.,0.,1.));
#903=DIRECTION('ref_axis',(1.,0.,0.));
#904=DIRECTION('',(0.,-1.,0.));
#905=DIRECTION('center_axis',(0.,0.,1.));
#906=DIRECTION('ref_axis',(1.,0.,0.));
#907=DIRECTION('',(1.,0.,0.));
#908=DIRECTION('',(0.,1.,0.));
#909=DIRECTION('center_axis',(1.,0.,0.));
#910=DIRECTION('ref_axis',(0.,-1.,0.));
#911=DIRECTION('center_axis',(-1.,0.,0.));
#912=DIRECTION('ref_axis',(0.,1.,0.));
#913=DIRECTION('',(0.,0.,-1.));
#914=DIRECTION('center_axis',(0.,1.,0.));
#915=DIRECTION('ref_axis',(-1.,0.,0.));
#916=DIRECTION('center_axis',(0.,0.,-1.));
#917=DIRECTION('ref_axis',(-1.,0.,0.));
#918=CARTESIAN_POINT('',(0.,0.,0.));
#919=CARTESIAN_POINT('Origin',(-6.47350011920929,-15.7000000447035,7.86250013411045));
#920=CARTESIAN_POINT('',(-11.6520001192093,-15.7000000447035,10.0000001341105));
#921=CARTESIAN_POINT('',(-11.6520001192093,-15.7000000447035,5.00000013411045));
#922=CARTESIAN_POINT('',(-11.6520001192093,-15.7000000447035,7.86250013411045));
#923=CARTESIAN_POINT('',(27.9999998807907,-15.7000000447035,5.00000013411045));
#924=CARTESIAN_POINT('',(-9.65200011920929,-15.7000000447035,5.00000013411045));
#925=CARTESIAN_POINT('',(27.9999998807907,-15.7000000447035,10.0000001341105));
#926=CARTESIAN_POINT('',(27.9999998807907,-15.7000000447035,6.72500013411045));
#927=CARTESIAN_POINT('',(-4.94700011920929,-15.7000000447035,10.0000001341105));
#928=CARTESIAN_POINT('Origin',(-11.6520001192093,-4.00000004470348,7.86250013411045));
#929=CARTESIAN_POINT('',(-11.6520001192093,-3.00000004470348,5.00000013411045));
#930=CARTESIAN_POINT('',(-11.6520001192093,-3.00000004470348,10.0000001341105));
#931=CARTESIAN_POINT('',(-11.6520001192093,-3.00000004470348,8.93125006705523));
#932=CARTESIAN_POINT('',(-11.6520001192093,-13.7000000447035,5.00000013411045));
#933=CARTESIAN_POINT('',(-11.6520001192093,-13.7000000447035,10.0000001341105));
#934=CARTESIAN_POINT('Origin',(-4.4703483581543E-7,3.5,10.));
#935=CARTESIAN_POINT('',(-28.0000004470348,-3.00000004470348,10.));
#936=CARTESIAN_POINT('',(-6.82600028312206,-3.00000004470348,10.));
#937=CARTESIAN_POINT('',(28.0000004470348,30.9700002533197,10.));
#938=CARTESIAN_POINT('',(28.0000004470348,32.0000004768372,10.));
#939=CARTESIAN_POINT('',(27.9228713633917,30.9700002533197,10.));
#940=CARTESIAN_POINT('',(-30.0000004470348,30.9700002533197,10.));
#941=CARTESIAN_POINT('',(27.9228713633917,29.8270002533197,10.));
#942=CARTESIAN_POINT('',(27.9228713633917,16.6635001266599,10.));
#943=CARTESIAN_POINT('',(-28.0000004470348,29.8270002533197,10.));
#944=CARTESIAN_POINT('',(-14.0000004470348,29.8270002533197,10.));
#945=CARTESIAN_POINT('',(-28.0000004470348,4.30000025331974,10.));
#946=CARTESIAN_POINT('',(-28.0000004470348,3.40000012665987,10.));
#947=CARTESIAN_POINT('',(27.9228713633917,4.30000025331974,10.));
#948=CARTESIAN_POINT('',(15.,4.30000025331974,10.));
#949=CARTESIAN_POINT('',(27.9228713633917,3.30000025331974,10.));
#950=CARTESIAN_POINT('',(27.9228713633917,3.30000025331974,10.));
#951=CARTESIAN_POINT('',(-28.0000004470348,3.30000025331974,10.));
#952=CARTESIAN_POINT('',(-15.0000004470348,3.30000025331974,10.));
#953=CARTESIAN_POINT('',(-28.0000004470348,3.40000012665987,10.));
#954=CARTESIAN_POINT('',(21.0338368331159,-12.1149999999999,10.));
#955=CARTESIAN_POINT('',(15.034,-12.115,10.));
#956=CARTESIAN_POINT('',(10.5169181930405,-12.1149999999999,10.));
#957=CARTESIAN_POINT('',(15.034,-8.205,10.));
#958=CARTESIAN_POINT('Origin',(15.034,-10.16,10.));
#959=CARTESIAN_POINT('',(21.0338368331159,-8.20499999999994,9.99999999999998));
#960=CARTESIAN_POINT('',(10.5169181930405,-8.20499999999994,10.));
#961=CARTESIAN_POINT('Origin',(21.034,-10.16,10.));
#962=CARTESIAN_POINT('',(23.875,17.0000002533197,10.));
#963=CARTESIAN_POINT('Origin',(22.225,17.0000002533197,10.));
#964=CARTESIAN_POINT('',(-20.575,17.0000002533197,10.));
#965=CARTESIAN_POINT('Origin',(-22.225,17.0000002533197,10.));
#966=CARTESIAN_POINT('',(-21.0650001937151,1.96200001490116,10.));
#967=CARTESIAN_POINT('',(21.1369998062849,1.96200001490116,10.));
#968=CARTESIAN_POINT('',(-9.03250032037497,1.96200001490116,10.));
#969=CARTESIAN_POINT('',(21.1369998062849,1.9522848255071,10.));
#970=CARTESIAN_POINT('',(21.1369998062849,2.73100000745058,10.));
#971=CARTESIAN_POINT('',(21.1369998062849,-1.9522848255071,10.));
#972=CARTESIAN_POINT('Origin',(21.034,0.,10.));
#973=CARTESIAN_POINT('',(21.1369998062849,-1.95699998509884,10.));
#974=CARTESIAN_POINT('',(21.1369998062849,2.73100000745058,10.));
#975=CARTESIAN_POINT('',(-21.0650001937151,-1.95699998509884,10.));
#976=CARTESIAN_POINT('',(-4.78750032037497,-1.95699998509884,10.));
#977=CARTESIAN_POINT('',(-21.0650001937151,-1.95475420142524,10.));
#978=CARTESIAN_POINT('',(-21.0650001937151,0.77150000745058,10.));
#979=CARTESIAN_POINT('',(-21.0650001937151,1.95475420142524,10.));
#980=CARTESIAN_POINT('Origin',(-21.034,0.,10.));
#981=CARTESIAN_POINT('',(-21.0650001937151,0.77150000745058,10.));
#982=CARTESIAN_POINT('Origin',(21.0338368331159,-8.20499999999994,9.99999999999997));
#983=CARTESIAN_POINT('',(15.034,-8.205,5.));
#984=CARTESIAN_POINT('',(15.034,-8.205,2.5));
#985=CARTESIAN_POINT('',(21.0338368331159,-8.20499999999994,5.));
#986=CARTESIAN_POINT('',(10.5169181930405,-8.20499999999994,5.));
#987=CARTESIAN_POINT('',(21.0338368331159,-8.20499999999994,7.49999999999999));
#988=CARTESIAN_POINT('Origin',(21.0338368331159,-12.1149999999999,4.99999999999998));
#989=CARTESIAN_POINT('',(15.034,-12.115,5.));
#990=CARTESIAN_POINT('',(15.034,-12.115,2.5));
#991=CARTESIAN_POINT('',(21.0338368331159,-12.1149999999999,4.99999999999998));
#992=CARTESIAN_POINT('',(21.0338368331159,-12.1149999999999,7.49999999999999));
#993=CARTESIAN_POINT('',(10.5169181930405,-12.1149999999999,5.));
#994=CARTESIAN_POINT('Origin',(15.034,-10.16,2.5));
#995=CARTESIAN_POINT('Origin',(15.034,-10.16,5.));
#996=CARTESIAN_POINT('Origin',(-4.4703483581543E-7,3.5,5.));
#997=CARTESIAN_POINT('',(-28.0000004470348,-3.00000004470348,5.));
#998=CARTESIAN_POINT('',(-15.0000004470348,-3.00000004470348,5.));
#999=CARTESIAN_POINT('',(-28.0000004470348,30.9700002533197,5.));
#1000=CARTESIAN_POINT('',(-28.0000004470348,3.40000012665987,5.));
#1001=CARTESIAN_POINT('',(28.0000004470348,30.9700002533197,5.));
#1002=CARTESIAN_POINT('',(14.0575003820271,30.9700002533197,5.));
#1003=CARTESIAN_POINT('',(27.9999998807907,-13.7000000447035,5.00000013411045));
#1004=CARTESIAN_POINT('Origin',(21.034,-10.16,5.));
#1005=CARTESIAN_POINT('',(21.1369998062849,1.96200001490116,5.));
#1006=CARTESIAN_POINT('',(-21.0650001937151,1.96200001490116,5.));
#1007=CARTESIAN_POINT('',(-9.03250032037497,1.96200001490116,5.));
#1008=CARTESIAN_POINT('',(-21.0650001937151,1.95475420142524,5.));
#1009=CARTESIAN_POINT('',(-21.0650001937151,0.77150000745058,5.));
#1010=CARTESIAN_POINT('',(-21.0650001937151,-1.95475420142524,5.));
#1011=CARTESIAN_POINT('Origin',(-21.034,0.,5.));
#1012=CARTESIAN_POINT('',(-21.0650001937151,-1.95699998509884,5.));
#1013=CARTESIAN_POINT('',(-21.0650001937151,0.77150000745058,5.));
#1014=CARTESIAN_POINT('',(21.1369998062849,-1.95699998509884,5.));
#1015=CARTESIAN_POINT('',(9.06849967962504,-1.95699998509884,5.));
#1016=CARTESIAN_POINT('',(21.1369998062849,-1.9522848255071,5.));
#1017=CARTESIAN_POINT('',(21.1369998062849,2.73100000745058,5.));
#1018=CARTESIAN_POINT('',(21.1369998062849,1.9522848255071,5.));
#1019=CARTESIAN_POINT('Origin',(21.034,0.,5.));
#1020=CARTESIAN_POINT('',(21.1369998062849,2.73100000745058,5.));
#1021=CARTESIAN_POINT('',(24.725,17.0000002533197,5.));
#1022=CARTESIAN_POINT('Origin',(22.225,17.0000002533197,5.));
#1023=CARTESIAN_POINT('',(-19.725,17.0000002533197,5.));
#1024=CARTESIAN_POINT('Origin',(-22.225,17.0000002533197,5.));
#1025=CARTESIAN_POINT('Origin',(-30.0000004470348,-3.00000004470348,10.));
#1026=CARTESIAN_POINT('',(-28.0000004470348,-3.00000004470348,10.));
#1027=CARTESIAN_POINT('Origin',(-21.0650001937151,-1.95699998509884,14.));
#1028=CARTESIAN_POINT('',(-21.0650001937151,1.95475420142524,10.));
#1029=CARTESIAN_POINT('',(-21.0650001937151,1.96200001490116,14.));
#1030=CARTESIAN_POINT('Origin',(-21.0650001937151,-1.95699998509884,14.));
#1031=CARTESIAN_POINT('',(-21.0650001937151,-1.95475420142524,10.));
#1032=CARTESIAN_POINT('',(-21.0650001937151,-1.95699998509884,14.));
#1033=CARTESIAN_POINT('Origin',(21.1369998062849,1.96200001490116,14.));
#1034=CARTESIAN_POINT('',(21.1369998062849,1.9522848255071,10.));
#1035=CARTESIAN_POINT('',(21.1369998062849,1.96200001490116,14.));
#1036=CARTESIAN_POINT('Origin',(21.1369998062849,1.96200001490116,14.));
#1037=CARTESIAN_POINT('',(21.1369998062849,-1.9522848255071,10.));
#1038=CARTESIAN_POINT('',(21.1369998062849,-1.95699998509884,14.));
#1039=CARTESIAN_POINT('Origin',(21.034,-10.16,7.246));
#1040=CARTESIAN_POINT('Origin',(18.1369998062849,-1.95699998509884,14.));
#1041=CARTESIAN_POINT('Origin',(-18.0650001937151,1.96200001490116,14.));
#1042=CARTESIAN_POINT('Origin',(21.034,0.,10.));
#1043=CARTESIAN_POINT('Origin',(-22.225,17.0000002533197,9.5));
#1044=CARTESIAN_POINT('',(-19.725,17.0000002533197,9.5));
#1045=CARTESIAN_POINT('Origin',(-22.225,17.0000002533197,9.5));
#1046=CARTESIAN_POINT('',(-20.575,17.0000002533197,9.5));
#1047=CARTESIAN_POINT('Origin',(-22.225,17.0000002533197,9.5));
#1048=CARTESIAN_POINT('Origin',(-22.225,17.0000002533197,7.25));
#1049=CARTESIAN_POINT('',(-19.725,17.0000002533197,7.25));
#1050=CARTESIAN_POINT('Origin',(-22.225,17.0000002533197,7.5));
#1051=CARTESIAN_POINT('',(-20.575,17.0000002533197,7.5));
#1052=CARTESIAN_POINT('Origin',(22.225,17.0000002533197,9.5));
#1053=CARTESIAN_POINT('',(24.725,17.0000002533197,9.5));
#1054=CARTESIAN_POINT('Origin',(22.225,17.0000002533197,9.5));
#1055=CARTESIAN_POINT('',(23.875,17.0000002533197,9.5));
#1056=CARTESIAN_POINT('Origin',(22.225,17.0000002533197,9.5));
#1057=CARTESIAN_POINT('Origin',(22.225,17.0000002533197,7.25));
#1058=CARTESIAN_POINT('',(24.725,17.0000002533197,7.25));
#1059=CARTESIAN_POINT('Origin',(22.225,17.0000002533197,7.5));
#1060=CARTESIAN_POINT('',(23.875,17.0000002533197,7.5));
#1061=CARTESIAN_POINT('Origin',(0.,3.80000025331974,11.));
#1062=CARTESIAN_POINT('',(-28.0509579292788,3.30000025331974,11.));
#1063=CARTESIAN_POINT('',(-28.0509579292788,4.30000025331974,11.));
#1064=CARTESIAN_POINT('',(-28.0509579292788,4.05000025331974,11.));
#1065=CARTESIAN_POINT('',(27.9228713633917,3.30000025331974,11.));
#1066=CARTESIAN_POINT('',(-15.0000002235174,3.30000025331974,11.));
#1067=CARTESIAN_POINT('',(27.9228713633917,4.30000025331974,11.));
#1068=CARTESIAN_POINT('',(27.9228713633917,3.55000025331974,11.));
#1069=CARTESIAN_POINT('',(15.0000002235174,4.30000025331974,11.));
#1070=CARTESIAN_POINT('Origin',(-30.0000004470348,3.30000025331974,10.));
#1071=CARTESIAN_POINT('',(-28.0509579292788,3.30000025331974,10.));
#1072=CARTESIAN_POINT('',(-28.0509579292788,3.30000025331974,10.75));
#1073=CARTESIAN_POINT('',(-29.5000004470348,3.30000025331974,10.));
#1074=CARTESIAN_POINT('',(27.9228713633917,3.30000025331974,10.75));
#1075=CARTESIAN_POINT('Origin',(-28.0509579292788,4.30000025331974,11.5));
#1076=CARTESIAN_POINT('',(-28.0509579292788,4.30000025331974,10.));
#1077=CARTESIAN_POINT('',(-28.0509579292788,4.30000025331974,10.75));
#1078=CARTESIAN_POINT('',(-28.0509579292788,10.9675002533197,10.));
#1079=CARTESIAN_POINT('Origin',(28.115001211089,30.9700002533197,11.5));
#1080=CARTESIAN_POINT('',(28.0000004470348,30.9700002533197,10.75));
#1081=CARTESIAN_POINT('',(-28.0000004470348,30.9700002533197,11.));
#1082=CARTESIAN_POINT('',(-28.0000004470348,30.9700002533197,10.75));
#1083=CARTESIAN_POINT('',(27.9228713633917,30.9700002533197,11.));
#1084=CARTESIAN_POINT('',(-15.0192824944282,30.9700002533197,11.));
#1085=CARTESIAN_POINT('',(27.9228713633917,30.9700002533197,10.));
#1086=CARTESIAN_POINT('Origin',(28.0000004470348,-3.00000004470348,10.));
#1087=CARTESIAN_POINT('Origin',(27.9228713633917,29.8270002533197,10.));
#1088=CARTESIAN_POINT('',(27.9228713633917,29.8270002533197,11.));
#1089=CARTESIAN_POINT('',(27.9228713633917,30.9700002533197,11.));
#1090=CARTESIAN_POINT('',(27.9228713633917,29.8270002533197,10.));
#1091=CARTESIAN_POINT('Origin',(-28.0000004470348,29.8270002533197,10.));
#1092=CARTESIAN_POINT('',(-28.0000004470348,29.8270002533197,11.));
#1093=CARTESIAN_POINT('',(27.9228713633917,29.8270002533197,11.));
#1094=CARTESIAN_POINT('',(-28.0000004470348,29.8270002533197,10.));
#1095=CARTESIAN_POINT('Origin',(-0.0385645418215841,30.3985002533197,11.));
#1096=CARTESIAN_POINT('',(-28.0000004470348,29.8270002533197,11.));
#1097=CARTESIAN_POINT('Origin',(-29.0000004470348,17.6350002533197,10.));
#1098=CARTESIAN_POINT('',(15.,4.30000025331974,10.));
#1099=CARTESIAN_POINT('',(-28.0000004470348,3.30000025331974,10.));
#1100=CARTESIAN_POINT('Origin',(-28.0000004470348,3.30000025331974,10.));
#1101=CARTESIAN_POINT('Origin',(27.9228713633917,3.30000025331974,11.5));
#1102=CARTESIAN_POINT('',(27.9228713633917,4.30000025331974,10.75));
#1103=CARTESIAN_POINT('Origin',(30.0000004470348,4.30000025331974,10.));
#1104=CARTESIAN_POINT('Origin',(-21.034,0.,10.));
#1105=UNCERTAINTY_MEASURE_WITH_UNIT(LENGTH_MEASURE(0.01),#1109,
'DISTANCE_ACCURACY_VALUE',
'Maximum model space distance between geometric entities at asserted c
onnectivities');
#1106=UNCERTAINTY_MEASURE_WITH_UNIT(LENGTH_MEASURE(0.01),#1109,
'DISTANCE_ACCURACY_VALUE',
'Maximum model space distance between geometric entities at asserted c
onnectivities');
#1107=(
GEOMETRIC_REPRESENTATION_CONTEXT(3)
GLOBAL_UNCERTAINTY_ASSIGNED_CONTEXT((#1105))
GLOBAL_UNIT_ASSIGNED_CONTEXT((#1109,#1111,#1112))
REPRESENTATION_CONTEXT('','3D')
);
#1108=(
GEOMETRIC_REPRESENTATION_CONTEXT(3)
GLOBAL_UNCERTAINTY_ASSIGNED_CONTEXT((#1106))
GLOBAL_UNIT_ASSIGNED_CONTEXT((#1109,#1111,#1112))
REPRESENTATION_CONTEXT('','3D')
);
#1109=(
LENGTH_UNIT()
NAMED_UNIT(*)
SI_UNIT(.MILLI.,.METRE.)
);
#1110=(
LENGTH_UNIT()
NAMED_UNIT(*)
SI_UNIT($,.METRE.)
);
#1111=(
NAMED_UNIT(*)
PLANE_ANGLE_UNIT()
SI_UNIT($,.RADIAN.)
);
#1112=(
NAMED_UNIT(*)
SI_UNIT($,.STERADIAN.)
SOLID_ANGLE_UNIT()
);
#1113=SHAPE_DEFINITION_REPRESENTATION(#1114,#1115);
#1114=PRODUCT_DEFINITION_SHAPE('',$,#1117);
#1115=SHAPE_REPRESENTATION('',(#687),#1107);
#1116=PRODUCT_DEFINITION_CONTEXT('part definition',#1121,'design');
#1117=PRODUCT_DEFINITION('2026-04-15-21-42-02-172','AOM_Adapter',#1118,
#1116);
#1118=PRODUCT_DEFINITION_FORMATION('',$,#1123);
#1119=PRODUCT_RELATED_PRODUCT_CATEGORY('AOM_Adapter','AOM_Adapter',(#1123));
#1120=APPLICATION_PROTOCOL_DEFINITION('international standard',
'automotive_design',2009,#1121);
#1121=APPLICATION_CONTEXT(
'Core Data for Automotive Mechanical Design Process');
#1122=PRODUCT_CONTEXT('part definition',#1121,'mechanical');
#1123=PRODUCT('2026-04-15-21-42-02-172','AOM_Adapter',$,(#1122));
#1124=PRESENTATION_STYLE_ASSIGNMENT((#1126));
#1125=PRESENTATION_STYLE_ASSIGNMENT((#1127));
#1126=SURFACE_STYLE_USAGE(.BOTH.,#1128);
#1127=SURFACE_STYLE_USAGE(.BOTH.,#1129);
#1128=SURFACE_SIDE_STYLE('',(#1130));
#1129=SURFACE_SIDE_STYLE('',(#1131));
#1130=SURFACE_STYLE_FILL_AREA(#1132);
#1131=SURFACE_STYLE_FILL_AREA(#1133);
#1132=FILL_AREA_STYLE('Steel - Satin',(#1134));
#1133=FILL_AREA_STYLE('Opaque(160,160,160)',(#1135));
#1134=FILL_AREA_STYLE_COLOUR('Steel - Satin',#1136);
#1135=FILL_AREA_STYLE_COLOUR('Opaque(160,160,160)',#1137);
#1136=COLOUR_RGB('Steel - Satin',0.627450980392157,0.627450980392157,0.627450980392157);
#1137=COLOUR_RGB('Opaque(160,160,160)',0.627450980392157,0.627450980392157,
0.627450980392157);
ENDSEC;
END-ISO-10303-21;
