ISO-10303-21;
HEADER;
/* Generated by software containing ST-Developer
 * from STEP Tools, Inc. (www.steptools.com) 
 */

FILE_DESCRIPTION(
/* description */ ('FreeCAD Model'),
/* implementation_level */ '2;1');

FILE_NAME(
/* name */ 'Beam_Profiler_adapter.step',
/* time_stamp */ '2026-08-13T20:31:04-05:00',
/* author */ (''),
/* organization */ (''),
/* preprocessor_version */ 'ST-DEVELOPER v20.1',
/* originating_system */ 'Autodesk Translation Framework v15.8.0.0',
/* authorisation */ '');

FILE_SCHEMA (('AUTOMOTIVE_DESIGN { 1 0 10303 214 3 1 1 }'));
ENDSEC;

DATA;
#10=MECHANICAL_DESIGN_GEOMETRIC_PRESENTATION_REPRESENTATION('',(#13),#779);
#11=SHAPE_REPRESENTATION_RELATIONSHIP('SRR','None',#786,#12);
#12=ADVANCED_BREP_SHAPE_REPRESENTATION('',(#14),#778);
#13=STYLED_ITEM('',(#796),#14);
#14=MANIFOLD_SOLID_BREP('Body1',#455);
#15=FACE_BOUND('',#67,.T.);
#16=FACE_BOUND('',#69,.T.);
#17=FACE_BOUND('',#81,.T.);
#18=FACE_BOUND('',#82,.T.);
#19=FACE_BOUND('',#86,.T.);
#20=FACE_BOUND('',#87,.T.);
#21=FACE_BOUND('',#94,.T.);
#22=FACE_BOUND('',#95,.T.);
#23=FACE_BOUND('',#96,.T.);
#24=FACE_BOUND('',#97,.T.);
#25=FACE_BOUND('',#99,.T.);
#26=FACE_BOUND('',#100,.T.);
#27=FACE_BOUND('',#101,.T.);
#28=FACE_BOUND('',#102,.T.);
#29=PLANE('',#472);
#30=PLANE('',#475);
#31=PLANE('',#486);
#32=PLANE('',#490);
#33=PLANE('',#494);
#34=PLANE('',#498);
#35=PLANE('',#502);
#36=PLANE('',#503);
#37=PLANE('',#504);
#38=PLANE('',#505);
#39=PLANE('',#515);
#40=PLANE('',#516);
#41=FACE_OUTER_BOUND('',#65,.T.);
#42=FACE_OUTER_BOUND('',#66,.T.);
#43=FACE_OUTER_BOUND('',#68,.T.);
#44=FACE_OUTER_BOUND('',#70,.T.);
#45=FACE_OUTER_BOUND('',#71,.T.);
#46=FACE_OUTER_BOUND('',#72,.T.);
#47=FACE_OUTER_BOUND('',#73,.T.);
#48=FACE_OUTER_BOUND('',#74,.T.);
#49=FACE_OUTER_BOUND('',#75,.T.);
#50=FACE_OUTER_BOUND('',#76,.T.);
#51=FACE_OUTER_BOUND('',#77,.T.);
#52=FACE_OUTER_BOUND('',#78,.T.);
#53=FACE_OUTER_BOUND('',#79,.T.);
#54=FACE_OUTER_BOUND('',#80,.T.);
#55=FACE_OUTER_BOUND('',#83,.T.);
#56=FACE_OUTER_BOUND('',#84,.T.);
#57=FACE_OUTER_BOUND('',#85,.T.);
#58=FACE_OUTER_BOUND('',#88,.T.);
#59=FACE_OUTER_BOUND('',#89,.T.);
#60=FACE_OUTER_BOUND('',#90,.T.);
#61=FACE_OUTER_BOUND('',#91,.T.);
#62=FACE_OUTER_BOUND('',#92,.T.);
#63=FACE_OUTER_BOUND('',#93,.T.);
#64=FACE_OUTER_BOUND('',#98,.T.);
#65=EDGE_LOOP('',(#299,#300,#301,#302));
#66=EDGE_LOOP('',(#303));
#67=EDGE_LOOP('',(#304));
#68=EDGE_LOOP('',(#305));
#69=EDGE_LOOP('',(#306));
#70=EDGE_LOOP('',(#307,#308,#309,#310));
#71=EDGE_LOOP('',(#311,#312,#313,#314));
#72=EDGE_LOOP('',(#315,#316,#317,#318));
#73=EDGE_LOOP('',(#319,#320,#321,#322));
#74=EDGE_LOOP('',(#323,#324,#325,#326));
#75=EDGE_LOOP('',(#327,#328,#329,#330));
#76=EDGE_LOOP('',(#331,#332,#333,#334));
#77=EDGE_LOOP('',(#335,#336,#337,#338));
#78=EDGE_LOOP('',(#339,#340,#341,#342));
#79=EDGE_LOOP('',(#343,#344,#345,#346));
#80=EDGE_LOOP('',(#347,#348,#349,#350,#351,#352,#353,#354));
#81=EDGE_LOOP('',(#355));
#82=EDGE_LOOP('',(#356));
#83=EDGE_LOOP('',(#357,#358,#359,#360));
#84=EDGE_LOOP('',(#361,#362,#363,#364));
#85=EDGE_LOOP('',(#365,#366,#367,#368,#369,#370,#371,#372,#373,#374,#375,
#376));
#86=EDGE_LOOP('',(#377));
#87=EDGE_LOOP('',(#378));
#88=EDGE_LOOP('',(#379,#380,#381,#382,#383,#384,#385,#386));
#89=EDGE_LOOP('',(#387,#388,#389,#390));
#90=EDGE_LOOP('',(#391,#392,#393,#394));
#91=EDGE_LOOP('',(#395,#396,#397,#398));
#92=EDGE_LOOP('',(#399,#400,#401,#402));
#93=EDGE_LOOP('',(#403,#404,#405,#406));
#94=EDGE_LOOP('',(#407));
#95=EDGE_LOOP('',(#408));
#96=EDGE_LOOP('',(#409));
#97=EDGE_LOOP('',(#410));
#98=EDGE_LOOP('',(#411,#412,#413,#414));
#99=EDGE_LOOP('',(#415));
#100=EDGE_LOOP('',(#416));
#101=EDGE_LOOP('',(#417));
#102=EDGE_LOOP('',(#418));
#103=LINE('',#656,#139);
#104=LINE('',#670,#140);
#105=LINE('',#674,#141);
#106=LINE('',#679,#142);
#107=LINE('',#683,#143);
#108=LINE('',#687,#144);
#109=LINE('',#689,#145);
#110=LINE('',#691,#146);
#111=LINE('',#692,#147);
#112=LINE('',#697,#148);
#113=LINE('',#701,#149);
#114=LINE('',#703,#150);
#115=LINE('',#704,#151);
#116=LINE('',#709,#152);
#117=LINE('',#713,#153);
#118=LINE('',#715,#154);
#119=LINE('',#716,#155);
#120=LINE('',#721,#156);
#121=LINE('',#725,#157);
#122=LINE('',#729,#158);
#123=LINE('',#734,#159);
#124=LINE('',#736,#160);
#125=LINE('',#738,#161);
#126=LINE('',#739,#162);
#127=LINE('',#742,#163);
#128=LINE('',#744,#164);
#129=LINE('',#745,#165);
#130=LINE('',#746,#166);
#131=LINE('',#750,#167);
#132=LINE('',#751,#168);
#133=LINE('',#752,#169);
#134=LINE('',#754,#170);
#135=LINE('',#755,#171);
#136=LINE('',#760,#172);
#137=LINE('',#766,#173);
#138=LINE('',#772,#174);
#139=VECTOR('',#523,2.75);
#140=VECTOR('',#540,2.1844);
#141=VECTOR('',#545,2.1844);
#142=VECTOR('',#552,4.5);
#143=VECTOR('',#557,4.5);
#144=VECTOR('',#560,10.);
#145=VECTOR('',#561,1.);
#146=VECTOR('',#562,10.);
#147=VECTOR('',#563,1.);
#148=VECTOR('',#568,10.);
#149=VECTOR('',#573,1.);
#150=VECTOR('',#574,1.);
#151=VECTOR('',#575,1.);
#152=VECTOR('',#580,1.);
#153=VECTOR('',#585,1.);
#154=VECTOR('',#586,1.);
#155=VECTOR('',#587,1.);
#156=VECTOR('',#592,1.);
#157=VECTOR('',#597,1.);
#158=VECTOR('',#602,1.);
#159=VECTOR('',#607,10.);
#160=VECTOR('',#608,10.);
#161=VECTOR('',#609,10.);
#162=VECTOR('',#610,10.);
#163=VECTOR('',#613,10.);
#164=VECTOR('',#614,10.);
#165=VECTOR('',#615,1.);
#166=VECTOR('',#616,1.);
#167=VECTOR('',#619,10.);
#168=VECTOR('',#620,10.);
#169=VECTOR('',#621,10.);
#170=VECTOR('',#624,10.);
#171=VECTOR('',#625,10.);
#172=VECTOR('',#630,2.75);
#173=VECTOR('',#637,2.75);
#174=VECTOR('',#644,2.75);
#175=CIRCLE('',#470,2.75);
#176=CIRCLE('',#471,2.75);
#177=CIRCLE('',#473,4.5);
#178=CIRCLE('',#474,2.1844);
#179=CIRCLE('',#476,4.5);
#180=CIRCLE('',#477,2.1844);
#181=CIRCLE('',#479,2.1844);
#182=CIRCLE('',#481,2.1844);
#183=CIRCLE('',#483,4.5);
#184=CIRCLE('',#485,4.5);
#185=CIRCLE('',#488,4.999);
#186=CIRCLE('',#489,4.999);
#187=CIRCLE('',#492,4.999);
#188=CIRCLE('',#493,4.999);
#189=CIRCLE('',#496,4.999);
#190=CIRCLE('',#497,4.999);
#191=CIRCLE('',#499,4.999);
#192=CIRCLE('',#501,4.999);
#193=CIRCLE('',#507,2.75);
#194=CIRCLE('',#508,2.75);
#195=CIRCLE('',#510,2.75);
#196=CIRCLE('',#511,2.75);
#197=CIRCLE('',#513,2.75);
#198=CIRCLE('',#514,2.75);
#199=VERTEX_POINT('',#653);
#200=VERTEX_POINT('',#655);
#201=VERTEX_POINT('',#659);
#202=VERTEX_POINT('',#661);
#203=VERTEX_POINT('',#664);
#204=VERTEX_POINT('',#666);
#205=VERTEX_POINT('',#669);
#206=VERTEX_POINT('',#673);
#207=VERTEX_POINT('',#677);
#208=VERTEX_POINT('',#681);
#209=VERTEX_POINT('',#685);
#210=VERTEX_POINT('',#686);
#211=VERTEX_POINT('',#688);
#212=VERTEX_POINT('',#690);
#213=VERTEX_POINT('',#694);
#214=VERTEX_POINT('',#696);
#215=VERTEX_POINT('',#700);
#216=VERTEX_POINT('',#702);
#217=VERTEX_POINT('',#706);
#218=VERTEX_POINT('',#708);
#219=VERTEX_POINT('',#712);
#220=VERTEX_POINT('',#714);
#221=VERTEX_POINT('',#718);
#222=VERTEX_POINT('',#720);
#223=VERTEX_POINT('',#724);
#224=VERTEX_POINT('',#728);
#225=VERTEX_POINT('',#732);
#226=VERTEX_POINT('',#733);
#227=VERTEX_POINT('',#735);
#228=VERTEX_POINT('',#737);
#229=VERTEX_POINT('',#741);
#230=VERTEX_POINT('',#743);
#231=VERTEX_POINT('',#748);
#232=VERTEX_POINT('',#749);
#233=VERTEX_POINT('',#757);
#234=VERTEX_POINT('',#759);
#235=VERTEX_POINT('',#763);
#236=VERTEX_POINT('',#765);
#237=VERTEX_POINT('',#769);
#238=VERTEX_POINT('',#771);
#239=EDGE_CURVE('',#199,#199,#175,.T.);
#240=EDGE_CURVE('',#199,#200,#103,.T.);
#241=EDGE_CURVE('',#200,#200,#176,.T.);
#242=EDGE_CURVE('',#201,#201,#177,.T.);
#243=EDGE_CURVE('',#202,#202,#178,.T.);
#244=EDGE_CURVE('',#203,#203,#179,.T.);
#245=EDGE_CURVE('',#204,#204,#180,.T.);
#246=EDGE_CURVE('',#202,#205,#104,.T.);
#247=EDGE_CURVE('',#205,#205,#181,.T.);
#248=EDGE_CURVE('',#204,#206,#105,.T.);
#249=EDGE_CURVE('',#206,#206,#182,.T.);
#250=EDGE_CURVE('',#207,#207,#183,.T.);
#251=EDGE_CURVE('',#207,#201,#106,.T.);
#252=EDGE_CURVE('',#208,#208,#184,.T.);
#253=EDGE_CURVE('',#208,#203,#107,.T.);
#254=EDGE_CURVE('',#209,#210,#108,.T.);
#255=EDGE_CURVE('',#211,#209,#109,.T.);
#256=EDGE_CURVE('',#211,#212,#110,.T.);
#257=EDGE_CURVE('',#210,#212,#111,.T.);
#258=EDGE_CURVE('',#213,#211,#185,.T.);
#259=EDGE_CURVE('',#213,#214,#112,.T.);
#260=EDGE_CURVE('',#212,#214,#186,.T.);
#261=EDGE_CURVE('',#213,#215,#113,.T.);
#262=EDGE_CURVE('',#216,#215,#114,.T.);
#263=EDGE_CURVE('',#214,#216,#115,.T.);
#264=EDGE_CURVE('',#215,#217,#187,.T.);
#265=EDGE_CURVE('',#218,#217,#116,.T.);
#266=EDGE_CURVE('',#216,#218,#188,.T.);
#267=EDGE_CURVE('',#217,#219,#117,.T.);
#268=EDGE_CURVE('',#220,#219,#118,.T.);
#269=EDGE_CURVE('',#218,#220,#119,.T.);
#270=EDGE_CURVE('',#221,#219,#189,.T.);
#271=EDGE_CURVE('',#222,#221,#120,.T.);
#272=EDGE_CURVE('',#220,#222,#190,.T.);
#273=EDGE_CURVE('',#222,#223,#121,.T.);
#274=EDGE_CURVE('',#223,#210,#191,.T.);
#275=EDGE_CURVE('',#223,#224,#122,.T.);
#276=EDGE_CURVE('',#209,#224,#192,.T.);
#277=EDGE_CURVE('',#225,#226,#123,.T.);
#278=EDGE_CURVE('',#227,#226,#124,.T.);
#279=EDGE_CURVE('',#228,#227,#125,.T.);
#280=EDGE_CURVE('',#228,#225,#126,.T.);
#281=EDGE_CURVE('',#229,#228,#127,.T.);
#282=EDGE_CURVE('',#227,#230,#128,.T.);
#283=EDGE_CURVE('',#230,#221,#129,.T.);
#284=EDGE_CURVE('',#224,#229,#130,.T.);
#285=EDGE_CURVE('',#231,#232,#131,.T.);
#286=EDGE_CURVE('',#232,#229,#132,.T.);
#287=EDGE_CURVE('',#230,#231,#133,.T.);
#288=EDGE_CURVE('',#226,#231,#134,.T.);
#289=EDGE_CURVE('',#232,#225,#135,.T.);
#290=EDGE_CURVE('',#233,#233,#193,.T.);
#291=EDGE_CURVE('',#233,#234,#136,.T.);
#292=EDGE_CURVE('',#234,#234,#194,.T.);
#293=EDGE_CURVE('',#235,#235,#195,.T.);
#294=EDGE_CURVE('',#235,#236,#137,.T.);
#295=EDGE_CURVE('',#236,#236,#196,.T.);
#296=EDGE_CURVE('',#237,#237,#197,.T.);
#297=EDGE_CURVE('',#237,#238,#138,.T.);
#298=EDGE_CURVE('',#238,#238,#198,.T.);
#299=ORIENTED_EDGE('',*,*,#239,.F.);
#300=ORIENTED_EDGE('',*,*,#240,.T.);
#301=ORIENTED_EDGE('',*,*,#241,.F.);
#302=ORIENTED_EDGE('',*,*,#240,.F.);
#303=ORIENTED_EDGE('',*,*,#242,.F.);
#304=ORIENTED_EDGE('',*,*,#243,.T.);
#305=ORIENTED_EDGE('',*,*,#244,.F.);
#306=ORIENTED_EDGE('',*,*,#245,.T.);
#307=ORIENTED_EDGE('',*,*,#243,.F.);
#308=ORIENTED_EDGE('',*,*,#246,.T.);
#309=ORIENTED_EDGE('',*,*,#247,.F.);
#310=ORIENTED_EDGE('',*,*,#246,.F.);
#311=ORIENTED_EDGE('',*,*,#245,.F.);
#312=ORIENTED_EDGE('',*,*,#248,.T.);
#313=ORIENTED_EDGE('',*,*,#249,.F.);
#314=ORIENTED_EDGE('',*,*,#248,.F.);
#315=ORIENTED_EDGE('',*,*,#250,.F.);
#316=ORIENTED_EDGE('',*,*,#251,.T.);
#317=ORIENTED_EDGE('',*,*,#242,.T.);
#318=ORIENTED_EDGE('',*,*,#251,.F.);
#319=ORIENTED_EDGE('',*,*,#252,.F.);
#320=ORIENTED_EDGE('',*,*,#253,.T.);
#321=ORIENTED_EDGE('',*,*,#244,.T.);
#322=ORIENTED_EDGE('',*,*,#253,.F.);
#323=ORIENTED_EDGE('',*,*,#254,.F.);
#324=ORIENTED_EDGE('',*,*,#255,.F.);
#325=ORIENTED_EDGE('',*,*,#256,.T.);
#326=ORIENTED_EDGE('',*,*,#257,.F.);
#327=ORIENTED_EDGE('',*,*,#256,.F.);
#328=ORIENTED_EDGE('',*,*,#258,.F.);
#329=ORIENTED_EDGE('',*,*,#259,.T.);
#330=ORIENTED_EDGE('',*,*,#260,.F.);
#331=ORIENTED_EDGE('',*,*,#261,.T.);
#332=ORIENTED_EDGE('',*,*,#262,.F.);
#333=ORIENTED_EDGE('',*,*,#263,.F.);
#334=ORIENTED_EDGE('',*,*,#259,.F.);
#335=ORIENTED_EDGE('',*,*,#262,.T.);
#336=ORIENTED_EDGE('',*,*,#264,.T.);
#337=ORIENTED_EDGE('',*,*,#265,.F.);
#338=ORIENTED_EDGE('',*,*,#266,.F.);
#339=ORIENTED_EDGE('',*,*,#265,.T.);
#340=ORIENTED_EDGE('',*,*,#267,.T.);
#341=ORIENTED_EDGE('',*,*,#268,.F.);
#342=ORIENTED_EDGE('',*,*,#269,.F.);
#343=ORIENTED_EDGE('',*,*,#268,.T.);
#344=ORIENTED_EDGE('',*,*,#270,.F.);
#345=ORIENTED_EDGE('',*,*,#271,.F.);
#346=ORIENTED_EDGE('',*,*,#272,.F.);
#347=ORIENTED_EDGE('',*,*,#273,.T.);
#348=ORIENTED_EDGE('',*,*,#274,.T.);
#349=ORIENTED_EDGE('',*,*,#257,.T.);
#350=ORIENTED_EDGE('',*,*,#260,.T.);
#351=ORIENTED_EDGE('',*,*,#263,.T.);
#352=ORIENTED_EDGE('',*,*,#266,.T.);
#353=ORIENTED_EDGE('',*,*,#269,.T.);
#354=ORIENTED_EDGE('',*,*,#272,.T.);
#355=ORIENTED_EDGE('',*,*,#249,.T.);
#356=ORIENTED_EDGE('',*,*,#247,.T.);
#357=ORIENTED_EDGE('',*,*,#275,.T.);
#358=ORIENTED_EDGE('',*,*,#276,.F.);
#359=ORIENTED_EDGE('',*,*,#254,.T.);
#360=ORIENTED_EDGE('',*,*,#274,.F.);
#361=ORIENTED_EDGE('',*,*,#277,.T.);
#362=ORIENTED_EDGE('',*,*,#278,.F.);
#363=ORIENTED_EDGE('',*,*,#279,.F.);
#364=ORIENTED_EDGE('',*,*,#280,.T.);
#365=ORIENTED_EDGE('',*,*,#281,.T.);
#366=ORIENTED_EDGE('',*,*,#279,.T.);
#367=ORIENTED_EDGE('',*,*,#282,.T.);
#368=ORIENTED_EDGE('',*,*,#283,.T.);
#369=ORIENTED_EDGE('',*,*,#270,.T.);
#370=ORIENTED_EDGE('',*,*,#267,.F.);
#371=ORIENTED_EDGE('',*,*,#264,.F.);
#372=ORIENTED_EDGE('',*,*,#261,.F.);
#373=ORIENTED_EDGE('',*,*,#258,.T.);
#374=ORIENTED_EDGE('',*,*,#255,.T.);
#375=ORIENTED_EDGE('',*,*,#276,.T.);
#376=ORIENTED_EDGE('',*,*,#284,.T.);
#377=ORIENTED_EDGE('',*,*,#252,.T.);
#378=ORIENTED_EDGE('',*,*,#250,.T.);
#379=ORIENTED_EDGE('',*,*,#285,.T.);
#380=ORIENTED_EDGE('',*,*,#286,.T.);
#381=ORIENTED_EDGE('',*,*,#284,.F.);
#382=ORIENTED_EDGE('',*,*,#275,.F.);
#383=ORIENTED_EDGE('',*,*,#273,.F.);
#384=ORIENTED_EDGE('',*,*,#271,.T.);
#385=ORIENTED_EDGE('',*,*,#283,.F.);
#386=ORIENTED_EDGE('',*,*,#287,.T.);
#387=ORIENTED_EDGE('',*,*,#288,.F.);
#388=ORIENTED_EDGE('',*,*,#277,.F.);
#389=ORIENTED_EDGE('',*,*,#289,.F.);
#390=ORIENTED_EDGE('',*,*,#285,.F.);
#391=ORIENTED_EDGE('',*,*,#290,.F.);
#392=ORIENTED_EDGE('',*,*,#291,.T.);
#393=ORIENTED_EDGE('',*,*,#292,.F.);
#394=ORIENTED_EDGE('',*,*,#291,.F.);
#395=ORIENTED_EDGE('',*,*,#293,.F.);
#396=ORIENTED_EDGE('',*,*,#294,.T.);
#397=ORIENTED_EDGE('',*,*,#295,.F.);
#398=ORIENTED_EDGE('',*,*,#294,.F.);
#399=ORIENTED_EDGE('',*,*,#296,.F.);
#400=ORIENTED_EDGE('',*,*,#297,.T.);
#401=ORIENTED_EDGE('',*,*,#298,.F.);
#402=ORIENTED_EDGE('',*,*,#297,.F.);
#403=ORIENTED_EDGE('',*,*,#289,.T.);
#404=ORIENTED_EDGE('',*,*,#280,.F.);
#405=ORIENTED_EDGE('',*,*,#281,.F.);
#406=ORIENTED_EDGE('',*,*,#286,.F.);
#407=ORIENTED_EDGE('',*,*,#239,.T.);
#408=ORIENTED_EDGE('',*,*,#296,.T.);
#409=ORIENTED_EDGE('',*,*,#293,.T.);
#410=ORIENTED_EDGE('',*,*,#290,.T.);
#411=ORIENTED_EDGE('',*,*,#288,.T.);
#412=ORIENTED_EDGE('',*,*,#287,.F.);
#413=ORIENTED_EDGE('',*,*,#282,.F.);
#414=ORIENTED_EDGE('',*,*,#278,.T.);
#415=ORIENTED_EDGE('',*,*,#241,.T.);
#416=ORIENTED_EDGE('',*,*,#298,.T.);
#417=ORIENTED_EDGE('',*,*,#295,.T.);
#418=ORIENTED_EDGE('',*,*,#292,.T.);
#419=CYLINDRICAL_SURFACE('',#469,2.75);
#420=CYLINDRICAL_SURFACE('',#478,2.1844);
#421=CYLINDRICAL_SURFACE('',#480,2.1844);
#422=CYLINDRICAL_SURFACE('',#482,4.5);
#423=CYLINDRICAL_SURFACE('',#484,4.5);
#424=CYLINDRICAL_SURFACE('',#487,4.999);
#425=CYLINDRICAL_SURFACE('',#491,4.999);
#426=CYLINDRICAL_SURFACE('',#495,4.999);
#427=CYLINDRICAL_SURFACE('',#500,4.999);
#428=CYLINDRICAL_SURFACE('',#506,2.75);
#429=CYLINDRICAL_SURFACE('',#509,2.75);
#430=CYLINDRICAL_SURFACE('',#512,2.75);
#431=ADVANCED_FACE('',(#41),#419,.F.);
#432=ADVANCED_FACE('',(#42,#15),#29,.F.);
#433=ADVANCED_FACE('',(#43,#16),#30,.F.);
#434=ADVANCED_FACE('',(#44),#420,.F.);
#435=ADVANCED_FACE('',(#45),#421,.F.);
#436=ADVANCED_FACE('',(#46),#422,.F.);
#437=ADVANCED_FACE('',(#47),#423,.F.);
#438=ADVANCED_FACE('',(#48),#31,.F.);
#439=ADVANCED_FACE('',(#49),#424,.T.);
#440=ADVANCED_FACE('',(#50),#32,.F.);
#441=ADVANCED_FACE('',(#51),#425,.T.);
#442=ADVANCED_FACE('',(#52),#33,.T.);
#443=ADVANCED_FACE('',(#53),#426,.T.);
#444=ADVANCED_FACE('',(#54,#17,#18),#34,.F.);
#445=ADVANCED_FACE('',(#55),#427,.T.);
#446=ADVANCED_FACE('',(#56),#35,.T.);
#447=ADVANCED_FACE('',(#57,#19,#20),#36,.T.);
#448=ADVANCED_FACE('',(#58),#37,.T.);
#449=ADVANCED_FACE('',(#59),#38,.F.);
#450=ADVANCED_FACE('',(#60),#428,.F.);
#451=ADVANCED_FACE('',(#61),#429,.F.);
#452=ADVANCED_FACE('',(#62),#430,.F.);
#453=ADVANCED_FACE('',(#63,#21,#22,#23,#24),#39,.T.);
#454=ADVANCED_FACE('',(#64,#25,#26,#27,#28),#40,.F.);
#455=CLOSED_SHELL('',(#431,#432,#433,#434,#435,#436,#437,#438,#439,#440,
#441,#442,#443,#444,#445,#446,#447,#448,#449,#450,#451,#452,#453,#454));
#456=DERIVED_UNIT_ELEMENT(#458,1.);
#457=DERIVED_UNIT_ELEMENT(#781,-3.);
#458=(
MASS_UNIT()
NAMED_UNIT(*)
SI_UNIT(.KILO.,.GRAM.)
);
#459=DERIVED_UNIT((#456,#457));
#460=MEASURE_REPRESENTATION_ITEM('density measure',
POSITIVE_RATIO_MEASURE(7850.),#459);
#461=PROPERTY_DEFINITION_REPRESENTATION(#466,#463);
#462=PROPERTY_DEFINITION_REPRESENTATION(#467,#464);
#463=REPRESENTATION('material name',(#465),#778);
#464=REPRESENTATION('density',(#460),#778);
#465=DESCRIPTIVE_REPRESENTATION_ITEM('Steel','Steel');
#466=PROPERTY_DEFINITION('material property','material name',#788);
#467=PROPERTY_DEFINITION('material property','density of part',#788);
#468=AXIS2_PLACEMENT_3D('',#651,#517,#518);
#469=AXIS2_PLACEMENT_3D('',#652,#519,#520);
#470=AXIS2_PLACEMENT_3D('',#654,#521,#522);
#471=AXIS2_PLACEMENT_3D('',#657,#524,#525);
#472=AXIS2_PLACEMENT_3D('',#658,#526,#527);
#473=AXIS2_PLACEMENT_3D('',#660,#528,#529);
#474=AXIS2_PLACEMENT_3D('',#662,#530,#531);
#475=AXIS2_PLACEMENT_3D('',#663,#532,#533);
#476=AXIS2_PLACEMENT_3D('',#665,#534,#535);
#477=AXIS2_PLACEMENT_3D('',#667,#536,#537);
#478=AXIS2_PLACEMENT_3D('',#668,#538,#539);
#479=AXIS2_PLACEMENT_3D('',#671,#541,#542);
#480=AXIS2_PLACEMENT_3D('',#672,#543,#544);
#481=AXIS2_PLACEMENT_3D('',#675,#546,#547);
#482=AXIS2_PLACEMENT_3D('',#676,#548,#549);
#483=AXIS2_PLACEMENT_3D('',#678,#550,#551);
#484=AXIS2_PLACEMENT_3D('',#680,#553,#554);
#485=AXIS2_PLACEMENT_3D('',#682,#555,#556);
#486=AXIS2_PLACEMENT_3D('',#684,#558,#559);
#487=AXIS2_PLACEMENT_3D('',#693,#564,#565);
#488=AXIS2_PLACEMENT_3D('',#695,#566,#567);
#489=AXIS2_PLACEMENT_3D('',#698,#569,#570);
#490=AXIS2_PLACEMENT_3D('',#699,#571,#572);
#491=AXIS2_PLACEMENT_3D('',#705,#576,#577);
#492=AXIS2_PLACEMENT_3D('',#707,#578,#579);
#493=AXIS2_PLACEMENT_3D('',#710,#581,#582);
#494=AXIS2_PLACEMENT_3D('',#711,#583,#584);
#495=AXIS2_PLACEMENT_3D('',#717,#588,#589);
#496=AXIS2_PLACEMENT_3D('',#719,#590,#591);
#497=AXIS2_PLACEMENT_3D('',#722,#593,#594);
#498=AXIS2_PLACEMENT_3D('',#723,#595,#596);
#499=AXIS2_PLACEMENT_3D('',#726,#598,#599);
#500=AXIS2_PLACEMENT_3D('',#727,#600,#601);
#501=AXIS2_PLACEMENT_3D('',#730,#603,#604);
#502=AXIS2_PLACEMENT_3D('',#731,#605,#606);
#503=AXIS2_PLACEMENT_3D('',#740,#611,#612);
#504=AXIS2_PLACEMENT_3D('',#747,#617,#618);
#505=AXIS2_PLACEMENT_3D('',#753,#622,#623);
#506=AXIS2_PLACEMENT_3D('',#756,#626,#627);
#507=AXIS2_PLACEMENT_3D('',#758,#628,#629);
#508=AXIS2_PLACEMENT_3D('',#761,#631,#632);
#509=AXIS2_PLACEMENT_3D('',#762,#633,#634);
#510=AXIS2_PLACEMENT_3D('',#764,#635,#636);
#511=AXIS2_PLACEMENT_3D('',#767,#638,#639);
#512=AXIS2_PLACEMENT_3D('',#768,#640,#641);
#513=AXIS2_PLACEMENT_3D('',#770,#642,#643);
#514=AXIS2_PLACEMENT_3D('',#773,#645,#646);
#515=AXIS2_PLACEMENT_3D('',#774,#647,#648);
#516=AXIS2_PLACEMENT_3D('',#775,#649,#650);
#517=DIRECTION('axis',(0.,0.,1.));
#518=DIRECTION('refdir',(1.,0.,0.));
#519=DIRECTION('center_axis',(0.,1.,0.));
#520=DIRECTION('ref_axis',(0.,0.,-1.));
#521=DIRECTION('center_axis',(0.,1.,0.));
#522=DIRECTION('ref_axis',(0.,0.,-1.));
#523=DIRECTION('',(0.,1.,0.));
#524=DIRECTION('center_axis',(0.,-1.,0.));
#525=DIRECTION('ref_axis',(0.,0.,-1.));
#526=DIRECTION('center_axis',(0.,0.,-1.));
#527=DIRECTION('ref_axis',(-1.,0.,0.));
#528=DIRECTION('center_axis',(0.,0.,-1.));
#529=DIRECTION('ref_axis',(-1.,0.,0.));
#530=DIRECTION('center_axis',(0.,0.,-1.));
#531=DIRECTION('ref_axis',(-1.,0.,0.));
#532=DIRECTION('center_axis',(0.,0.,-1.));
#533=DIRECTION('ref_axis',(-1.,0.,0.));
#534=DIRECTION('center_axis',(0.,0.,-1.));
#535=DIRECTION('ref_axis',(-1.,0.,0.));
#536=DIRECTION('center_axis',(0.,0.,-1.));
#537=DIRECTION('ref_axis',(-1.,0.,0.));
#538=DIRECTION('center_axis',(0.,0.,-1.));
#539=DIRECTION('ref_axis',(-1.,0.,0.));
#540=DIRECTION('',(0.,0.,-1.));
#541=DIRECTION('center_axis',(0.,0.,1.));
#542=DIRECTION('ref_axis',(-1.,0.,0.));
#543=DIRECTION('center_axis',(0.,0.,-1.));
#544=DIRECTION('ref_axis',(-1.,0.,0.));
#545=DIRECTION('',(0.,0.,-1.));
#546=DIRECTION('center_axis',(0.,0.,1.));
#547=DIRECTION('ref_axis',(-1.,0.,0.));
#548=DIRECTION('center_axis',(0.,0.,-1.));
#549=DIRECTION('ref_axis',(-1.,0.,0.));
#550=DIRECTION('center_axis',(0.,0.,-1.));
#551=DIRECTION('ref_axis',(-1.,0.,0.));
#552=DIRECTION('',(0.,0.,-1.));
#553=DIRECTION('center_axis',(0.,0.,-1.));
#554=DIRECTION('ref_axis',(-1.,0.,0.));
#555=DIRECTION('center_axis',(0.,0.,-1.));
#556=DIRECTION('ref_axis',(-1.,0.,0.));
#557=DIRECTION('',(0.,0.,-1.));
#558=DIRECTION('center_axis',(0.,1.,0.));
#559=DIRECTION('ref_axis',(0.,0.,1.));
#560=DIRECTION('',(0.,0.,-1.));
#561=DIRECTION('',(1.,0.,0.));
#562=DIRECTION('',(0.,0.,-1.));
#563=DIRECTION('',(-1.,0.,0.));
#564=DIRECTION('center_axis',(0.,0.,1.));
#565=DIRECTION('ref_axis',(-1.,0.,0.));
#566=DIRECTION('center_axis',(0.,0.,1.));
#567=DIRECTION('ref_axis',(0.,-1.,0.));
#568=DIRECTION('',(0.,0.,-1.));
#569=DIRECTION('center_axis',(0.,0.,-1.));
#570=DIRECTION('ref_axis',(0.,-1.,0.));
#571=DIRECTION('center_axis',(1.,0.,0.));
#572=DIRECTION('ref_axis',(0.,0.,1.));
#573=DIRECTION('',(0.,1.,0.));
#574=DIRECTION('',(0.,0.,1.));
#575=DIRECTION('',(0.,1.,0.));
#576=DIRECTION('center_axis',(0.,0.,1.));
#577=DIRECTION('ref_axis',(-1.,0.,0.));
#578=DIRECTION('center_axis',(0.,0.,-1.));
#579=DIRECTION('ref_axis',(0.,-1.,0.));
#580=DIRECTION('',(0.,0.,1.));
#581=DIRECTION('center_axis',(0.,0.,-1.));
#582=DIRECTION('ref_axis',(0.,-1.,0.));
#583=DIRECTION('center_axis',(0.,1.,0.));
#584=DIRECTION('ref_axis',(0.,0.,1.));
#585=DIRECTION('',(1.,0.,0.));
#586=DIRECTION('',(0.,0.,1.));
#587=DIRECTION('',(1.,0.,0.));
#588=DIRECTION('center_axis',(0.,0.,1.));
#589=DIRECTION('ref_axis',(1.,0.,0.));
#590=DIRECTION('center_axis',(0.,0.,1.));
#591=DIRECTION('ref_axis',(0.,-1.,0.));
#592=DIRECTION('',(0.,0.,1.));
#593=DIRECTION('center_axis',(0.,0.,-1.));
#594=DIRECTION('ref_axis',(0.,-1.,0.));
#595=DIRECTION('center_axis',(0.,0.,1.));
#596=DIRECTION('ref_axis',(1.,0.,0.));
#597=DIRECTION('',(0.,-1.,0.));
#598=DIRECTION('center_axis',(0.,0.,-1.));
#599=DIRECTION('ref_axis',(0.,-1.,0.));
#600=DIRECTION('center_axis',(0.,0.,1.));
#601=DIRECTION('ref_axis',(0.,-1.,0.));
#602=DIRECTION('',(0.,0.,1.));
#603=DIRECTION('center_axis',(0.,0.,1.));
#604=DIRECTION('ref_axis',(0.,-1.,0.));
#605=DIRECTION('center_axis',(-1.,0.,0.));
#606=DIRECTION('ref_axis',(0.,0.,1.));
#607=DIRECTION('',(0.,1.,0.));
#608=DIRECTION('',(0.,0.,1.));
#609=DIRECTION('',(0.,1.,0.));
#610=DIRECTION('',(0.,0.,1.));
#611=DIRECTION('center_axis',(0.,0.,1.));
#612=DIRECTION('ref_axis',(1.,0.,0.));
#613=DIRECTION('',(-1.,0.,0.));
#614=DIRECTION('',(1.,0.,0.));
#615=DIRECTION('',(0.,1.,0.));
#616=DIRECTION('',(0.,1.,0.));
#617=DIRECTION('center_axis',(1.,0.,0.));
#618=DIRECTION('ref_axis',(0.,0.,1.));
#619=DIRECTION('',(0.,-1.,0.));
#620=DIRECTION('',(0.,0.,-1.));
#621=DIRECTION('',(0.,0.,1.));
#622=DIRECTION('center_axis',(0.,0.,-1.));
#623=DIRECTION('ref_axis',(-1.,0.,0.));
#624=DIRECTION('',(1.,0.,0.));
#625=DIRECTION('',(-1.,0.,0.));
#626=DIRECTION('center_axis',(0.,1.,0.));
#627=DIRECTION('ref_axis',(0.,0.,-1.));
#628=DIRECTION('center_axis',(0.,1.,0.));
#629=DIRECTION('ref_axis',(0.,0.,-1.));
#630=DIRECTION('',(0.,1.,0.));
#631=DIRECTION('center_axis',(0.,-1.,0.));
#632=DIRECTION('ref_axis',(0.,0.,-1.));
#633=DIRECTION('center_axis',(0.,1.,0.));
#634=DIRECTION('ref_axis',(0.,0.,-1.));
#635=DIRECTION('center_axis',(0.,1.,0.));
#636=DIRECTION('ref_axis',(0.,0.,-1.));
#637=DIRECTION('',(0.,1.,0.));
#638=DIRECTION('center_axis',(0.,-1.,0.));
#639=DIRECTION('ref_axis',(0.,0.,-1.));
#640=DIRECTION('center_axis',(0.,1.,0.));
#641=DIRECTION('ref_axis',(0.,0.,-1.));
#642=DIRECTION('center_axis',(0.,1.,0.));
#643=DIRECTION('ref_axis',(0.,0.,-1.));
#644=DIRECTION('',(0.,1.,0.));
#645=DIRECTION('center_axis',(0.,-1.,0.));
#646=DIRECTION('ref_axis',(0.,0.,-1.));
#647=DIRECTION('center_axis',(0.,-1.,0.));
#648=DIRECTION('ref_axis',(0.,0.,-1.));
#649=DIRECTION('center_axis',(0.,-1.,0.));
#650=DIRECTION('ref_axis',(0.,0.,-1.));
#651=CARTESIAN_POINT('',(0.,0.,0.));
#652=CARTESIAN_POINT('Origin',(5.334,0.903999937999999,114.3));
#653=CARTESIAN_POINT('',(5.334,-4.096000062,117.05));
#654=CARTESIAN_POINT('Origin',(5.334,-4.096000062,114.3));
#655=CARTESIAN_POINT('',(5.334,3.524,117.05));
#656=CARTESIAN_POINT('',(5.334,0.903999937999999,117.05));
#657=CARTESIAN_POINT('Origin',(5.334,3.524,114.3));
#658=CARTESIAN_POINT('Origin',(0.,-12.5,-4.4));
#659=CARTESIAN_POINT('',(4.5,-12.5,-4.4));
#660=CARTESIAN_POINT('Origin',(0.,-12.5,-4.4));
#661=CARTESIAN_POINT('',(2.1844,-12.5,-4.4));
#662=CARTESIAN_POINT('Origin',(0.,-12.5,-4.4));
#663=CARTESIAN_POINT('Origin',(0.,12.5,-4.4));
#664=CARTESIAN_POINT('',(4.5,12.5,-4.4));
#665=CARTESIAN_POINT('Origin',(0.,12.5,-4.4));
#666=CARTESIAN_POINT('',(2.1844,12.5,-4.4));
#667=CARTESIAN_POINT('Origin',(0.,12.5,-4.4));
#668=CARTESIAN_POINT('Origin',(0.,-12.5,0.));
#669=CARTESIAN_POINT('',(2.1844,-12.5,-9.27));
#670=CARTESIAN_POINT('',(2.1844,-12.5,0.));
#671=CARTESIAN_POINT('Origin',(0.,-12.5,-9.27));
#672=CARTESIAN_POINT('Origin',(0.,12.5,0.));
#673=CARTESIAN_POINT('',(2.1844,12.5,-9.27));
#674=CARTESIAN_POINT('',(2.1844,12.5,0.));
#675=CARTESIAN_POINT('Origin',(0.,12.5,-9.27));
#676=CARTESIAN_POINT('Origin',(0.,-12.5,0.));
#677=CARTESIAN_POINT('',(4.5,-12.5,0.));
#678=CARTESIAN_POINT('Origin',(0.,-12.5,0.));
#679=CARTESIAN_POINT('',(4.5,-12.5,0.));
#680=CARTESIAN_POINT('Origin',(0.,12.5,0.));
#681=CARTESIAN_POINT('',(4.5,12.5,0.));
#682=CARTESIAN_POINT('Origin',(0.,12.5,0.));
#683=CARTESIAN_POINT('',(4.5,12.5,0.));
#684=CARTESIAN_POINT('Origin',(-10.5,-23.,-8.));
#685=CARTESIAN_POINT('',(5.501,-23.,0.));
#686=CARTESIAN_POINT('',(5.501,-23.,-9.27));
#687=CARTESIAN_POINT('',(5.501,-23.,-8.));
#688=CARTESIAN_POINT('',(-5.501,-23.,0.));
#689=CARTESIAN_POINT('',(-10.5,-23.,0.));
#690=CARTESIAN_POINT('',(-5.501,-23.,-9.27));
#691=CARTESIAN_POINT('',(-5.501,-23.,-8.));
#692=CARTESIAN_POINT('',(-10.5,-23.,-9.27));
#693=CARTESIAN_POINT('Origin',(-5.501,-18.001,-8.));
#694=CARTESIAN_POINT('',(-10.5,-18.001,0.));
#695=CARTESIAN_POINT('Origin',(-5.501,-18.001,0.));
#696=CARTESIAN_POINT('',(-10.5,-18.001,-9.27));
#697=CARTESIAN_POINT('',(-10.5,-18.001,-8.));
#698=CARTESIAN_POINT('Origin',(-5.501,-18.001,-9.27));
#699=CARTESIAN_POINT('Origin',(-10.5,-23.,-8.));
#700=CARTESIAN_POINT('',(-10.5,18.001,0.));
#701=CARTESIAN_POINT('',(-10.5,-23.,0.));
#702=CARTESIAN_POINT('',(-10.5,18.001,-9.27));
#703=CARTESIAN_POINT('',(-10.5,18.001,-8.));
#704=CARTESIAN_POINT('',(-10.5,-23.,-9.27));
#705=CARTESIAN_POINT('Origin',(-5.501,18.001,-8.));
#706=CARTESIAN_POINT('',(-5.501,23.,0.));
#707=CARTESIAN_POINT('Origin',(-5.501,18.001,0.));
#708=CARTESIAN_POINT('',(-5.501,23.,-9.27));
#709=CARTESIAN_POINT('',(-5.501,23.,-8.));
#710=CARTESIAN_POINT('Origin',(-5.501,18.001,-9.27));
#711=CARTESIAN_POINT('Origin',(-10.5,23.,-8.));
#712=CARTESIAN_POINT('',(5.501,23.,0.));
#713=CARTESIAN_POINT('',(-10.5,23.,0.));
#714=CARTESIAN_POINT('',(5.501,23.,-9.27));
#715=CARTESIAN_POINT('',(5.501,23.,-8.));
#716=CARTESIAN_POINT('',(-10.5,23.,-9.27));
#717=CARTESIAN_POINT('Origin',(5.501,18.001,-8.));
#718=CARTESIAN_POINT('',(10.5,18.001,0.));
#719=CARTESIAN_POINT('Origin',(5.501,18.001,0.));
#720=CARTESIAN_POINT('',(10.5,18.001,-9.27));
#721=CARTESIAN_POINT('',(10.5,18.001,-8.));
#722=CARTESIAN_POINT('Origin',(5.501,18.001,-9.27));
#723=CARTESIAN_POINT('Origin',(-10.5,-23.,-9.27));
#724=CARTESIAN_POINT('',(10.5,-18.001,-9.27));
#725=CARTESIAN_POINT('',(10.5,-23.,-9.27));
#726=CARTESIAN_POINT('Origin',(5.501,-18.001,-9.27));
#727=CARTESIAN_POINT('Origin',(5.501,-18.001,-8.));
#728=CARTESIAN_POINT('',(10.5,-18.001,0.));
#729=CARTESIAN_POINT('',(10.5,-18.001,-8.));
#730=CARTESIAN_POINT('Origin',(5.501,-18.001,0.));
#731=CARTESIAN_POINT('Origin',(-5.77099999999998,9.381,3.42899999999999));
#732=CARTESIAN_POINT('',(-5.77099999999998,-4.096000062,130.));
#733=CARTESIAN_POINT('',(-5.77099999999998,3.524,130.));
#734=CARTESIAN_POINT('',(-5.77099999999998,9.381,130.));
#735=CARTESIAN_POINT('',(-5.77099999999998,3.524,0.));
#736=CARTESIAN_POINT('',(-5.77099999999998,3.524,3.55599999999999));
#737=CARTESIAN_POINT('',(-5.77099999999998,-4.096000062,0.));
#738=CARTESIAN_POINT('',(-5.77099999999998,-13.5,0.));
#739=CARTESIAN_POINT('',(-5.77099999999998,-4.096000062,3.55599999999999));
#740=CARTESIAN_POINT('Origin',(-10.5,-23.,0.));
#741=CARTESIAN_POINT('',(10.5,-4.096000062,0.));
#742=CARTESIAN_POINT('',(-0.849499999999995,-4.096000062,0.));
#743=CARTESIAN_POINT('',(10.5,3.524,0.));
#744=CARTESIAN_POINT('',(-0.849499999999995,3.524,0.));
#745=CARTESIAN_POINT('',(10.5,-23.,0.));
#746=CARTESIAN_POINT('',(10.5,-23.,0.));
#747=CARTESIAN_POINT('Origin',(10.5,-23.,-8.));
#748=CARTESIAN_POINT('',(10.5,3.524,130.));
#749=CARTESIAN_POINT('',(10.5,-4.096000062,130.));
#750=CARTESIAN_POINT('',(10.5,-6.8095,130.));
#751=CARTESIAN_POINT('',(10.5,-4.096000062,3.42899999999999));
#752=CARTESIAN_POINT('',(10.5,3.524,3.55599999999999));
#753=CARTESIAN_POINT('Origin',(5.37200000000001,9.381,130.));
#754=CARTESIAN_POINT('',(5.37200000000001,3.524,130.));
#755=CARTESIAN_POINT('',(5.37200000000001,-4.096000062,130.));
#756=CARTESIAN_POINT('Origin',(5.334,0.903999937999999,38.1));
#757=CARTESIAN_POINT('',(5.334,-4.096000062,40.85));
#758=CARTESIAN_POINT('Origin',(5.334,-4.096000062,38.1));
#759=CARTESIAN_POINT('',(5.334,3.524,40.85));
#760=CARTESIAN_POINT('',(5.334,0.903999937999999,40.85));
#761=CARTESIAN_POINT('Origin',(5.334,3.524,38.1));
#762=CARTESIAN_POINT('Origin',(5.334,0.903999937999999,63.5));
#763=CARTESIAN_POINT('',(5.334,-4.096000062,66.25));
#764=CARTESIAN_POINT('Origin',(5.334,-4.096000062,63.5));
#765=CARTESIAN_POINT('',(5.334,3.524,66.25));
#766=CARTESIAN_POINT('',(5.334,0.903999937999999,66.25));
#767=CARTESIAN_POINT('Origin',(5.334,3.524,63.5));
#768=CARTESIAN_POINT('Origin',(5.334,0.903999937999999,88.9));
#769=CARTESIAN_POINT('',(5.334,-4.096000062,91.65));
#770=CARTESIAN_POINT('Origin',(5.334,-4.096000062,88.9));
#771=CARTESIAN_POINT('',(5.334,3.524,91.65));
#772=CARTESIAN_POINT('',(5.334,0.903999937999999,91.65));
#773=CARTESIAN_POINT('Origin',(5.334,3.524,88.9));
#774=CARTESIAN_POINT('Origin',(5.37200000000001,-4.096000062,3.42899999999999));
#775=CARTESIAN_POINT('Origin',(5.37200000000001,3.524,3.42899999999999));
#776=UNCERTAINTY_MEASURE_WITH_UNIT(LENGTH_MEASURE(0.01),#780,
'DISTANCE_ACCURACY_VALUE',
'Maximum model space distance between geometric entities at asserted c
onnectivities');
#777=UNCERTAINTY_MEASURE_WITH_UNIT(LENGTH_MEASURE(0.01),#780,
'DISTANCE_ACCURACY_VALUE',
'Maximum model space distance between geometric entities at asserted c
onnectivities');
#778=(
GEOMETRIC_REPRESENTATION_CONTEXT(3)
GLOBAL_UNCERTAINTY_ASSIGNED_CONTEXT((#776))
GLOBAL_UNIT_ASSIGNED_CONTEXT((#780,#782,#783))
REPRESENTATION_CONTEXT('','3D')
);
#779=(
GEOMETRIC_REPRESENTATION_CONTEXT(3)
GLOBAL_UNCERTAINTY_ASSIGNED_CONTEXT((#777))
GLOBAL_UNIT_ASSIGNED_CONTEXT((#780,#782,#783))
REPRESENTATION_CONTEXT('','3D')
);
#780=(
LENGTH_UNIT()
NAMED_UNIT(*)
SI_UNIT(.MILLI.,.METRE.)
);
#781=(
LENGTH_UNIT()
NAMED_UNIT(*)
SI_UNIT($,.METRE.)
);
#782=(
NAMED_UNIT(*)
PLANE_ANGLE_UNIT()
SI_UNIT($,.RADIAN.)
);
#783=(
NAMED_UNIT(*)
SI_UNIT($,.STERADIAN.)
SOLID_ANGLE_UNIT()
);
#784=SHAPE_DEFINITION_REPRESENTATION(#785,#786);
#785=PRODUCT_DEFINITION_SHAPE('',$,#788);
#786=SHAPE_REPRESENTATION('',(#468),#778);
#787=PRODUCT_DEFINITION_CONTEXT('part definition',#792,'design');
#788=PRODUCT_DEFINITION('Surface Adapter','Lens_Mount',#789,#787);
#789=PRODUCT_DEFINITION_FORMATION('',$,#794);
#790=PRODUCT_RELATED_PRODUCT_CATEGORY('Lens_Mount','Lens_Mount',(#794));
#791=APPLICATION_PROTOCOL_DEFINITION('international standard',
'automotive_design',2009,#792);
#792=APPLICATION_CONTEXT(
'Core Data for Automotive Mechanical Design Process');
#793=PRODUCT_CONTEXT('part definition',#792,'mechanical');
#794=PRODUCT('Surface Adapter','Lens_Mount','FreeCAD Model',(#793));
#795=PRESENTATION_STYLE_ASSIGNMENT((#797));
#796=PRESENTATION_STYLE_ASSIGNMENT((#798));
#797=SURFACE_STYLE_USAGE(.BOTH.,#799);
#798=SURFACE_STYLE_USAGE(.BOTH.,#800);
#799=SURFACE_SIDE_STYLE('',(#801));
#800=SURFACE_SIDE_STYLE('',(#802));
#801=SURFACE_STYLE_FILL_AREA(#803);
#802=SURFACE_STYLE_FILL_AREA(#804);
#803=FILL_AREA_STYLE('Steel - Satin',(#805));
#804=FILL_AREA_STYLE('Opaque(153,229,153)',(#806));
#805=FILL_AREA_STYLE_COLOUR('Steel - Satin',#807);
#806=FILL_AREA_STYLE_COLOUR('Opaque(153,229,153)',#808);
#807=COLOUR_RGB('Steel - Satin',0.627450980392157,0.627450980392157,0.627450980392157);
#808=COLOUR_RGB('Opaque(153,229,153)',0.6,0.898039215686275,0.6);
ENDSEC;
END-ISO-10303-21;
