ISO-10303-21;
HEADER;
/* Generated by software containing ST-Developer
 * from STEP Tools, Inc. (www.steptools.com) 
 */

FILE_DESCRIPTION(
/* description */ ('FreeCAD Model'),
/* implementation_level */ '2;1');

FILE_NAME(
/* name */ 'Isolator_Edmund_Adaptor.step',
/* time_stamp */ '2026-07-15T17:06:05-05:00',
/* author */ (''),
/* organization */ (''),
/* preprocessor_version */ 'ST-DEVELOPER v20.1',
/* originating_system */ 'Autodesk Translation Framework v15.8.0.0',
/* authorisation */ '');

FILE_SCHEMA (('AUTOMOTIVE_DESIGN { 1 0 10303 214 3 1 1 }'));
ENDSEC;

DATA;
#10=MECHANICAL_DESIGN_GEOMETRIC_PRESENTATION_REPRESENTATION('',(#13),#659);
#11=SHAPE_REPRESENTATION_RELATIONSHIP('SRR','None',#669,#12);
#12=ADVANCED_BREP_SHAPE_REPRESENTATION('',(#14),#658);
#13=STYLED_ITEM('',(#679),#14);
#14=MANIFOLD_SOLID_BREP('Body1',#375);
#15=FACE_BOUND('',#62,.T.);
#16=FACE_BOUND('',#63,.T.);
#17=FACE_BOUND('',#64,.T.);
#18=FACE_BOUND('',#65,.T.);
#19=FACE_BOUND('',#67,.T.);
#20=FACE_BOUND('',#70,.T.);
#21=FACE_BOUND('',#78,.T.);
#22=FACE_BOUND('',#79,.T.);
#23=FACE_BOUND('',#80,.T.);
#24=FACE_BOUND('',#81,.T.);
#25=FACE_BOUND('',#89,.T.);
#26=FACE_BOUND('',#91,.T.);
#27=PLANE('',#395);
#28=PLANE('',#402);
#29=PLANE('',#406);
#30=PLANE('',#414);
#31=PLANE('',#417);
#32=PLANE('',#418);
#33=PLANE('',#423);
#34=PLANE('',#426);
#35=PLANE('',#431);
#36=PLANE('',#433);
#37=FACE_OUTER_BOUND('',#59,.T.);
#38=FACE_OUTER_BOUND('',#60,.T.);
#39=FACE_OUTER_BOUND('',#61,.T.);
#40=FACE_OUTER_BOUND('',#66,.T.);
#41=FACE_OUTER_BOUND('',#68,.T.);
#42=FACE_OUTER_BOUND('',#69,.T.);
#43=FACE_OUTER_BOUND('',#71,.T.);
#44=FACE_OUTER_BOUND('',#72,.T.);
#45=FACE_OUTER_BOUND('',#73,.T.);
#46=FACE_OUTER_BOUND('',#74,.T.);
#47=FACE_OUTER_BOUND('',#75,.T.);
#48=FACE_OUTER_BOUND('',#76,.T.);
#49=FACE_OUTER_BOUND('',#77,.T.);
#50=FACE_OUTER_BOUND('',#82,.T.);
#51=FACE_OUTER_BOUND('',#83,.T.);
#52=FACE_OUTER_BOUND('',#84,.T.);
#53=FACE_OUTER_BOUND('',#85,.T.);
#54=FACE_OUTER_BOUND('',#86,.T.);
#55=FACE_OUTER_BOUND('',#87,.T.);
#56=FACE_OUTER_BOUND('',#88,.T.);
#57=FACE_OUTER_BOUND('',#90,.T.);
#58=FACE_OUTER_BOUND('',#92,.T.);
#59=EDGE_LOOP('',(#245,#246,#247,#248));
#60=EDGE_LOOP('',(#249,#250,#251,#252));
#61=EDGE_LOOP('',(#253,#254,#255,#256,#257,#258,#259,#260));
#62=EDGE_LOOP('',(#261));
#63=EDGE_LOOP('',(#262));
#64=EDGE_LOOP('',(#263));
#65=EDGE_LOOP('',(#264));
#66=EDGE_LOOP('',(#265));
#67=EDGE_LOOP('',(#266));
#68=EDGE_LOOP('',(#267,#268,#269,#270));
#69=EDGE_LOOP('',(#271));
#70=EDGE_LOOP('',(#272));
#71=EDGE_LOOP('',(#273,#274,#275,#276));
#72=EDGE_LOOP('',(#277,#278,#279,#280));
#73=EDGE_LOOP('',(#281,#282,#283,#284));
#74=EDGE_LOOP('',(#285,#286,#287,#288));
#75=EDGE_LOOP('',(#289,#290,#291,#292));
#76=EDGE_LOOP('',(#293,#294,#295,#296));
#77=EDGE_LOOP('',(#297,#298,#299,#300,#301,#302,#303,#304));
#78=EDGE_LOOP('',(#305));
#79=EDGE_LOOP('',(#306));
#80=EDGE_LOOP('',(#307));
#81=EDGE_LOOP('',(#308));
#82=EDGE_LOOP('',(#309,#310,#311,#312));
#83=EDGE_LOOP('',(#313,#314,#315,#316));
#84=EDGE_LOOP('',(#317,#318,#319,#320));
#85=EDGE_LOOP('',(#321,#322,#323,#324));
#86=EDGE_LOOP('',(#325,#326,#327,#328));
#87=EDGE_LOOP('',(#329,#330,#331,#332));
#88=EDGE_LOOP('',(#333));
#89=EDGE_LOOP('',(#334));
#90=EDGE_LOOP('',(#335));
#91=EDGE_LOOP('',(#336));
#92=EDGE_LOOP('',(#337,#338,#339,#340));
#93=LINE('',#558,#117);
#94=LINE('',#564,#118);
#95=LINE('',#571,#119);
#96=LINE('',#575,#120);
#97=LINE('',#579,#121);
#98=LINE('',#582,#122);
#99=LINE('',#592,#123);
#100=LINE('',#601,#124);
#101=LINE('',#604,#125);
#102=LINE('',#607,#126);
#103=LINE('',#610,#127);
#104=LINE('',#613,#128);
#105=LINE('',#614,#129);
#106=LINE('',#617,#130);
#107=LINE('',#621,#131);
#108=LINE('',#622,#132);
#109=LINE('',#626,#133);
#110=LINE('',#629,#134);
#111=LINE('',#636,#135);
#112=LINE('',#637,#136);
#113=LINE('',#639,#137);
#114=LINE('',#644,#138);
#115=LINE('',#648,#139);
#116=LINE('',#655,#140);
#117=VECTOR('',#441,0.086);
#118=VECTOR('',#448,0.177165354330709);
#119=VECTOR('',#455,0.393700787401575);
#120=VECTOR('',#458,0.393700787401575);
#121=VECTOR('',#461,0.393700787401575);
#122=VECTOR('',#464,0.393700787401575);
#123=VECTOR('',#475,0.0681102362204724);
#124=VECTOR('',#486,0.0681102362204724);
#125=VECTOR('',#491,0.177165354330709);
#126=VECTOR('',#494,0.0393700787401575);
#127=VECTOR('',#497,0.0393700787401575);
#128=VECTOR('',#500,0.393700787401575);
#129=VECTOR('',#501,0.0393700787401575);
#130=VECTOR('',#504,0.393700787401575);
#131=VECTOR('',#509,0.393700787401575);
#132=VECTOR('',#510,0.0393700787401575);
#133=VECTOR('',#513,0.0393700787401575);
#134=VECTOR('',#516,0.0393700787401575);
#135=VECTOR('',#525,0.0393700787401575);
#136=VECTOR('',#526,0.0393700787401575);
#137=VECTOR('',#529,0.0393700787401575);
#138=VECTOR('',#536,0.177165354330709);
#139=VECTOR('',#541,0.177165354330709);
#140=VECTOR('',#552,0.086);
#141=CIRCLE('',#390,0.086);
#142=CIRCLE('',#391,0.086);
#143=CIRCLE('',#393,0.177165354330709);
#144=CIRCLE('',#394,0.177165354330709);
#145=CIRCLE('',#396,0.196811023622047);
#146=CIRCLE('',#397,0.196811023622047);
#147=CIRCLE('',#398,0.196811023622047);
#148=CIRCLE('',#399,0.196811023622047);
#149=CIRCLE('',#400,0.177165354330709);
#150=CIRCLE('',#401,0.086);
#151=CIRCLE('',#403,0.0681102362204724);
#152=CIRCLE('',#405,0.0681102362204724);
#153=CIRCLE('',#407,0.177165354330709);
#154=CIRCLE('',#408,0.0681102362204724);
#155=CIRCLE('',#410,0.0681102362204724);
#156=CIRCLE('',#413,0.196811023622047);
#157=CIRCLE('',#416,0.196811023622047);
#158=CIRCLE('',#419,0.196811023622047);
#159=CIRCLE('',#420,0.196811023622047);
#160=CIRCLE('',#421,0.177165354330709);
#161=CIRCLE('',#422,0.177165354330709);
#162=CIRCLE('',#428,0.177165354330709);
#163=CIRCLE('',#430,0.177165354330709);
#164=CIRCLE('',#432,0.086);
#165=VERTEX_POINT('',#555);
#166=VERTEX_POINT('',#557);
#167=VERTEX_POINT('',#561);
#168=VERTEX_POINT('',#563);
#169=VERTEX_POINT('',#567);
#170=VERTEX_POINT('',#568);
#171=VERTEX_POINT('',#570);
#172=VERTEX_POINT('',#572);
#173=VERTEX_POINT('',#574);
#174=VERTEX_POINT('',#576);
#175=VERTEX_POINT('',#578);
#176=VERTEX_POINT('',#580);
#177=VERTEX_POINT('',#583);
#178=VERTEX_POINT('',#585);
#179=VERTEX_POINT('',#588);
#180=VERTEX_POINT('',#591);
#181=VERTEX_POINT('',#595);
#182=VERTEX_POINT('',#597);
#183=VERTEX_POINT('',#600);
#184=VERTEX_POINT('',#606);
#185=VERTEX_POINT('',#608);
#186=VERTEX_POINT('',#612);
#187=VERTEX_POINT('',#616);
#188=VERTEX_POINT('',#620);
#189=VERTEX_POINT('',#624);
#190=VERTEX_POINT('',#625);
#191=VERTEX_POINT('',#627);
#192=VERTEX_POINT('',#631);
#193=VERTEX_POINT('',#633);
#194=VERTEX_POINT('',#643);
#195=VERTEX_POINT('',#647);
#196=VERTEX_POINT('',#651);
#197=EDGE_CURVE('',#165,#165,#141,.T.);
#198=EDGE_CURVE('',#165,#166,#93,.T.);
#199=EDGE_CURVE('',#166,#166,#142,.T.);
#200=EDGE_CURVE('',#167,#167,#143,.T.);
#201=EDGE_CURVE('',#167,#168,#94,.T.);
#202=EDGE_CURVE('',#168,#168,#144,.T.);
#203=EDGE_CURVE('',#169,#170,#145,.T.);
#204=EDGE_CURVE('',#171,#169,#95,.T.);
#205=EDGE_CURVE('',#172,#171,#146,.T.);
#206=EDGE_CURVE('',#173,#172,#96,.T.);
#207=EDGE_CURVE('',#174,#173,#147,.T.);
#208=EDGE_CURVE('',#175,#174,#97,.T.);
#209=EDGE_CURVE('',#176,#175,#148,.T.);
#210=EDGE_CURVE('',#170,#176,#98,.T.);
#211=EDGE_CURVE('',#177,#177,#149,.T.);
#212=EDGE_CURVE('',#178,#178,#150,.T.);
#213=EDGE_CURVE('',#179,#179,#151,.T.);
#214=EDGE_CURVE('',#179,#180,#99,.T.);
#215=EDGE_CURVE('',#180,#180,#152,.T.);
#216=EDGE_CURVE('',#181,#181,#153,.T.);
#217=EDGE_CURVE('',#182,#182,#154,.T.);
#218=EDGE_CURVE('',#182,#183,#100,.T.);
#219=EDGE_CURVE('',#183,#183,#155,.T.);
#220=EDGE_CURVE('',#177,#181,#101,.T.);
#221=EDGE_CURVE('',#173,#184,#102,.T.);
#222=EDGE_CURVE('',#184,#185,#156,.T.);
#223=EDGE_CURVE('',#174,#185,#103,.T.);
#224=EDGE_CURVE('',#186,#172,#104,.T.);
#225=EDGE_CURVE('',#186,#184,#105,.T.);
#226=EDGE_CURVE('',#187,#171,#106,.T.);
#227=EDGE_CURVE('',#186,#187,#157,.T.);
#228=EDGE_CURVE('',#188,#169,#107,.T.);
#229=EDGE_CURVE('',#187,#188,#108,.T.);
#230=EDGE_CURVE('',#189,#190,#109,.T.);
#231=EDGE_CURVE('',#190,#191,#158,.T.);
#232=EDGE_CURVE('',#185,#191,#110,.T.);
#233=EDGE_CURVE('',#188,#189,#159,.T.);
#234=EDGE_CURVE('',#192,#192,#160,.T.);
#235=EDGE_CURVE('',#193,#193,#161,.T.);
#236=EDGE_CURVE('',#176,#190,#111,.T.);
#237=EDGE_CURVE('',#170,#189,#112,.T.);
#238=EDGE_CURVE('',#175,#191,#113,.T.);
#239=EDGE_CURVE('',#192,#194,#114,.T.);
#240=EDGE_CURVE('',#194,#194,#162,.T.);
#241=EDGE_CURVE('',#193,#195,#115,.T.);
#242=EDGE_CURVE('',#195,#195,#163,.T.);
#243=EDGE_CURVE('',#196,#196,#164,.T.);
#244=EDGE_CURVE('',#196,#178,#116,.T.);
#245=ORIENTED_EDGE('',*,*,#197,.F.);
#246=ORIENTED_EDGE('',*,*,#198,.T.);
#247=ORIENTED_EDGE('',*,*,#199,.T.);
#248=ORIENTED_EDGE('',*,*,#198,.F.);
#249=ORIENTED_EDGE('',*,*,#200,.F.);
#250=ORIENTED_EDGE('',*,*,#201,.T.);
#251=ORIENTED_EDGE('',*,*,#202,.T.);
#252=ORIENTED_EDGE('',*,*,#201,.F.);
#253=ORIENTED_EDGE('',*,*,#203,.F.);
#254=ORIENTED_EDGE('',*,*,#204,.F.);
#255=ORIENTED_EDGE('',*,*,#205,.F.);
#256=ORIENTED_EDGE('',*,*,#206,.F.);
#257=ORIENTED_EDGE('',*,*,#207,.F.);
#258=ORIENTED_EDGE('',*,*,#208,.F.);
#259=ORIENTED_EDGE('',*,*,#209,.F.);
#260=ORIENTED_EDGE('',*,*,#210,.F.);
#261=ORIENTED_EDGE('',*,*,#199,.F.);
#262=ORIENTED_EDGE('',*,*,#200,.T.);
#263=ORIENTED_EDGE('',*,*,#211,.T.);
#264=ORIENTED_EDGE('',*,*,#212,.F.);
#265=ORIENTED_EDGE('',*,*,#202,.F.);
#266=ORIENTED_EDGE('',*,*,#213,.T.);
#267=ORIENTED_EDGE('',*,*,#213,.F.);
#268=ORIENTED_EDGE('',*,*,#214,.T.);
#269=ORIENTED_EDGE('',*,*,#215,.F.);
#270=ORIENTED_EDGE('',*,*,#214,.F.);
#271=ORIENTED_EDGE('',*,*,#216,.F.);
#272=ORIENTED_EDGE('',*,*,#217,.F.);
#273=ORIENTED_EDGE('',*,*,#217,.T.);
#274=ORIENTED_EDGE('',*,*,#218,.T.);
#275=ORIENTED_EDGE('',*,*,#219,.F.);
#276=ORIENTED_EDGE('',*,*,#218,.F.);
#277=ORIENTED_EDGE('',*,*,#211,.F.);
#278=ORIENTED_EDGE('',*,*,#220,.T.);
#279=ORIENTED_EDGE('',*,*,#216,.T.);
#280=ORIENTED_EDGE('',*,*,#220,.F.);
#281=ORIENTED_EDGE('',*,*,#207,.T.);
#282=ORIENTED_EDGE('',*,*,#221,.T.);
#283=ORIENTED_EDGE('',*,*,#222,.T.);
#284=ORIENTED_EDGE('',*,*,#223,.F.);
#285=ORIENTED_EDGE('',*,*,#206,.T.);
#286=ORIENTED_EDGE('',*,*,#224,.F.);
#287=ORIENTED_EDGE('',*,*,#225,.T.);
#288=ORIENTED_EDGE('',*,*,#221,.F.);
#289=ORIENTED_EDGE('',*,*,#205,.T.);
#290=ORIENTED_EDGE('',*,*,#226,.F.);
#291=ORIENTED_EDGE('',*,*,#227,.F.);
#292=ORIENTED_EDGE('',*,*,#224,.T.);
#293=ORIENTED_EDGE('',*,*,#204,.T.);
#294=ORIENTED_EDGE('',*,*,#228,.F.);
#295=ORIENTED_EDGE('',*,*,#229,.F.);
#296=ORIENTED_EDGE('',*,*,#226,.T.);
#297=ORIENTED_EDGE('',*,*,#230,.T.);
#298=ORIENTED_EDGE('',*,*,#231,.T.);
#299=ORIENTED_EDGE('',*,*,#232,.F.);
#300=ORIENTED_EDGE('',*,*,#222,.F.);
#301=ORIENTED_EDGE('',*,*,#225,.F.);
#302=ORIENTED_EDGE('',*,*,#227,.T.);
#303=ORIENTED_EDGE('',*,*,#229,.T.);
#304=ORIENTED_EDGE('',*,*,#233,.T.);
#305=ORIENTED_EDGE('',*,*,#215,.T.);
#306=ORIENTED_EDGE('',*,*,#219,.T.);
#307=ORIENTED_EDGE('',*,*,#234,.T.);
#308=ORIENTED_EDGE('',*,*,#235,.T.);
#309=ORIENTED_EDGE('',*,*,#210,.T.);
#310=ORIENTED_EDGE('',*,*,#236,.T.);
#311=ORIENTED_EDGE('',*,*,#230,.F.);
#312=ORIENTED_EDGE('',*,*,#237,.F.);
#313=ORIENTED_EDGE('',*,*,#209,.T.);
#314=ORIENTED_EDGE('',*,*,#238,.T.);
#315=ORIENTED_EDGE('',*,*,#231,.F.);
#316=ORIENTED_EDGE('',*,*,#236,.F.);
#317=ORIENTED_EDGE('',*,*,#203,.T.);
#318=ORIENTED_EDGE('',*,*,#237,.T.);
#319=ORIENTED_EDGE('',*,*,#233,.F.);
#320=ORIENTED_EDGE('',*,*,#228,.T.);
#321=ORIENTED_EDGE('',*,*,#208,.T.);
#322=ORIENTED_EDGE('',*,*,#223,.T.);
#323=ORIENTED_EDGE('',*,*,#232,.T.);
#324=ORIENTED_EDGE('',*,*,#238,.F.);
#325=ORIENTED_EDGE('',*,*,#234,.F.);
#326=ORIENTED_EDGE('',*,*,#239,.T.);
#327=ORIENTED_EDGE('',*,*,#240,.T.);
#328=ORIENTED_EDGE('',*,*,#239,.F.);
#329=ORIENTED_EDGE('',*,*,#235,.F.);
#330=ORIENTED_EDGE('',*,*,#241,.T.);
#331=ORIENTED_EDGE('',*,*,#242,.T.);
#332=ORIENTED_EDGE('',*,*,#241,.F.);
#333=ORIENTED_EDGE('',*,*,#240,.F.);
#334=ORIENTED_EDGE('',*,*,#243,.T.);
#335=ORIENTED_EDGE('',*,*,#242,.F.);
#336=ORIENTED_EDGE('',*,*,#197,.T.);
#337=ORIENTED_EDGE('',*,*,#243,.F.);
#338=ORIENTED_EDGE('',*,*,#244,.T.);
#339=ORIENTED_EDGE('',*,*,#212,.T.);
#340=ORIENTED_EDGE('',*,*,#244,.F.);
#341=CYLINDRICAL_SURFACE('',#389,0.086);
#342=CYLINDRICAL_SURFACE('',#392,0.177165354330709);
#343=CYLINDRICAL_SURFACE('',#404,0.0681102362204724);
#344=CYLINDRICAL_SURFACE('',#409,0.0681102362204724);
#345=CYLINDRICAL_SURFACE('',#411,0.177165354330709);
#346=CYLINDRICAL_SURFACE('',#412,0.196811023622047);
#347=CYLINDRICAL_SURFACE('',#415,0.196811023622047);
#348=CYLINDRICAL_SURFACE('',#424,0.196811023622047);
#349=CYLINDRICAL_SURFACE('',#425,0.196811023622047);
#350=CYLINDRICAL_SURFACE('',#427,0.177165354330709);
#351=CYLINDRICAL_SURFACE('',#429,0.177165354330709);
#352=CYLINDRICAL_SURFACE('',#434,0.086);
#353=ADVANCED_FACE('',(#37),#341,.F.);
#354=ADVANCED_FACE('',(#38),#342,.F.);
#355=ADVANCED_FACE('',(#39,#15,#16,#17,#18),#27,.F.);
#356=ADVANCED_FACE('',(#40,#19),#28,.F.);
#357=ADVANCED_FACE('',(#41),#343,.F.);
#358=ADVANCED_FACE('',(#42,#20),#29,.F.);
#359=ADVANCED_FACE('',(#43),#344,.F.);
#360=ADVANCED_FACE('',(#44),#345,.F.);
#361=ADVANCED_FACE('',(#45),#346,.T.);
#362=ADVANCED_FACE('',(#46),#30,.F.);
#363=ADVANCED_FACE('',(#47),#347,.T.);
#364=ADVANCED_FACE('',(#48),#31,.F.);
#365=ADVANCED_FACE('',(#49,#21,#22,#23,#24),#32,.T.);
#366=ADVANCED_FACE('',(#50),#33,.T.);
#367=ADVANCED_FACE('',(#51),#348,.T.);
#368=ADVANCED_FACE('',(#52),#349,.T.);
#369=ADVANCED_FACE('',(#53),#34,.T.);
#370=ADVANCED_FACE('',(#54),#350,.F.);
#371=ADVANCED_FACE('',(#55),#351,.F.);
#372=ADVANCED_FACE('',(#56,#25),#35,.F.);
#373=ADVANCED_FACE('',(#57,#26),#36,.F.);
#374=ADVANCED_FACE('',(#58),#352,.F.);
#375=CLOSED_SHELL('',(#353,#354,#355,#356,#357,#358,#359,#360,#361,#362,
#363,#364,#365,#366,#367,#368,#369,#370,#371,#372,#373,#374));
#376=DERIVED_UNIT_ELEMENT(#378,1.);
#377=DERIVED_UNIT_ELEMENT(#663,-3.);
#378=(
MASS_UNIT()
NAMED_UNIT(*)
SI_UNIT(.KILO.,.GRAM.)
);
#379=DERIVED_UNIT((#376,#377));
#380=MEASURE_REPRESENTATION_ITEM('density measure',
POSITIVE_RATIO_MEASURE(7850.),#379);
#381=PROPERTY_DEFINITION_REPRESENTATION(#386,#383);
#382=PROPERTY_DEFINITION_REPRESENTATION(#387,#384);
#383=REPRESENTATION('material name',(#385),#658);
#384=REPRESENTATION('density',(#380),#658);
#385=DESCRIPTIVE_REPRESENTATION_ITEM('Steel','Steel');
#386=PROPERTY_DEFINITION('material property','material name',#671);
#387=PROPERTY_DEFINITION('material property','density of part',#671);
#388=AXIS2_PLACEMENT_3D('',#553,#435,#436);
#389=AXIS2_PLACEMENT_3D('',#554,#437,#438);
#390=AXIS2_PLACEMENT_3D('',#556,#439,#440);
#391=AXIS2_PLACEMENT_3D('',#559,#442,#443);
#392=AXIS2_PLACEMENT_3D('',#560,#444,#445);
#393=AXIS2_PLACEMENT_3D('',#562,#446,#447);
#394=AXIS2_PLACEMENT_3D('',#565,#449,#450);
#395=AXIS2_PLACEMENT_3D('',#566,#451,#452);
#396=AXIS2_PLACEMENT_3D('',#569,#453,#454);
#397=AXIS2_PLACEMENT_3D('',#573,#456,#457);
#398=AXIS2_PLACEMENT_3D('',#577,#459,#460);
#399=AXIS2_PLACEMENT_3D('',#581,#462,#463);
#400=AXIS2_PLACEMENT_3D('',#584,#465,#466);
#401=AXIS2_PLACEMENT_3D('',#586,#467,#468);
#402=AXIS2_PLACEMENT_3D('',#587,#469,#470);
#403=AXIS2_PLACEMENT_3D('',#589,#471,#472);
#404=AXIS2_PLACEMENT_3D('',#590,#473,#474);
#405=AXIS2_PLACEMENT_3D('',#593,#476,#477);
#406=AXIS2_PLACEMENT_3D('',#594,#478,#479);
#407=AXIS2_PLACEMENT_3D('',#596,#480,#481);
#408=AXIS2_PLACEMENT_3D('',#598,#482,#483);
#409=AXIS2_PLACEMENT_3D('',#599,#484,#485);
#410=AXIS2_PLACEMENT_3D('',#602,#487,#488);
#411=AXIS2_PLACEMENT_3D('',#603,#489,#490);
#412=AXIS2_PLACEMENT_3D('',#605,#492,#493);
#413=AXIS2_PLACEMENT_3D('',#609,#495,#496);
#414=AXIS2_PLACEMENT_3D('',#611,#498,#499);
#415=AXIS2_PLACEMENT_3D('',#615,#502,#503);
#416=AXIS2_PLACEMENT_3D('',#618,#505,#506);
#417=AXIS2_PLACEMENT_3D('',#619,#507,#508);
#418=AXIS2_PLACEMENT_3D('',#623,#511,#512);
#419=AXIS2_PLACEMENT_3D('',#628,#514,#515);
#420=AXIS2_PLACEMENT_3D('',#630,#517,#518);
#421=AXIS2_PLACEMENT_3D('',#632,#519,#520);
#422=AXIS2_PLACEMENT_3D('',#634,#521,#522);
#423=AXIS2_PLACEMENT_3D('',#635,#523,#524);
#424=AXIS2_PLACEMENT_3D('',#638,#527,#528);
#425=AXIS2_PLACEMENT_3D('',#640,#530,#531);
#426=AXIS2_PLACEMENT_3D('',#641,#532,#533);
#427=AXIS2_PLACEMENT_3D('',#642,#534,#535);
#428=AXIS2_PLACEMENT_3D('',#645,#537,#538);
#429=AXIS2_PLACEMENT_3D('',#646,#539,#540);
#430=AXIS2_PLACEMENT_3D('',#649,#542,#543);
#431=AXIS2_PLACEMENT_3D('',#650,#544,#545);
#432=AXIS2_PLACEMENT_3D('',#652,#546,#547);
#433=AXIS2_PLACEMENT_3D('',#653,#548,#549);
#434=AXIS2_PLACEMENT_3D('',#654,#550,#551);
#435=DIRECTION('axis',(0.,0.,1.));
#436=DIRECTION('refdir',(1.,0.,0.));
#437=DIRECTION('center_axis',(0.,0.,-1.));
#438=DIRECTION('ref_axis',(-1.,0.,0.));
#439=DIRECTION('center_axis',(0.,0.,-1.));
#440=DIRECTION('ref_axis',(-1.,0.,0.));
#441=DIRECTION('',(0.,0.,-1.));
#442=DIRECTION('center_axis',(0.,0.,-1.));
#443=DIRECTION('ref_axis',(-1.,0.,0.));
#444=DIRECTION('center_axis',(0.,0.,1.));
#445=DIRECTION('ref_axis',(-1.,0.,0.));
#446=DIRECTION('center_axis',(0.,0.,1.));
#447=DIRECTION('ref_axis',(-1.,0.,0.));
#448=DIRECTION('',(0.,0.,1.));
#449=DIRECTION('center_axis',(0.,0.,1.));
#450=DIRECTION('ref_axis',(-1.,0.,0.));
#451=DIRECTION('center_axis',(0.,0.,1.));
#452=DIRECTION('ref_axis',(1.,0.,0.));
#453=DIRECTION('center_axis',(0.,0.,1.));
#454=DIRECTION('ref_axis',(0.,-1.,0.));
#455=DIRECTION('',(1.,0.,0.));
#456=DIRECTION('center_axis',(0.,0.,1.));
#457=DIRECTION('ref_axis',(-1.,0.,0.));
#458=DIRECTION('',(0.,-1.,0.));
#459=DIRECTION('center_axis',(0.,0.,1.));
#460=DIRECTION('ref_axis',(-1.,0.,0.));
#461=DIRECTION('',(-1.,0.,0.));
#462=DIRECTION('center_axis',(0.,0.,1.));
#463=DIRECTION('ref_axis',(1.,0.,0.));
#464=DIRECTION('',(0.,1.,0.));
#465=DIRECTION('center_axis',(0.,0.,1.));
#466=DIRECTION('ref_axis',(-1.,0.,0.));
#467=DIRECTION('center_axis',(0.,0.,-1.));
#468=DIRECTION('ref_axis',(-1.,0.,0.));
#469=DIRECTION('center_axis',(0.,0.,1.));
#470=DIRECTION('ref_axis',(-1.,0.,0.));
#471=DIRECTION('center_axis',(0.,0.,1.));
#472=DIRECTION('ref_axis',(-1.,0.,0.));
#473=DIRECTION('center_axis',(0.,0.,1.));
#474=DIRECTION('ref_axis',(-1.,0.,0.));
#475=DIRECTION('',(0.,0.,1.));
#476=DIRECTION('center_axis',(0.,0.,-1.));
#477=DIRECTION('ref_axis',(-1.,0.,0.));
#478=DIRECTION('center_axis',(0.,0.,1.));
#479=DIRECTION('ref_axis',(-1.,0.,0.));
#480=DIRECTION('center_axis',(0.,0.,1.));
#481=DIRECTION('ref_axis',(-1.,0.,0.));
#482=DIRECTION('center_axis',(0.,0.,-1.));
#483=DIRECTION('ref_axis',(-1.,0.,0.));
#484=DIRECTION('center_axis',(0.,0.,1.));
#485=DIRECTION('ref_axis',(-1.,0.,0.));
#486=DIRECTION('',(0.,0.,1.));
#487=DIRECTION('center_axis',(0.,0.,-1.));
#488=DIRECTION('ref_axis',(-1.,0.,0.));
#489=DIRECTION('center_axis',(0.,0.,1.));
#490=DIRECTION('ref_axis',(-1.,0.,0.));
#491=DIRECTION('',(0.,0.,1.));
#492=DIRECTION('center_axis',(0.,0.,1.));
#493=DIRECTION('ref_axis',(-1.,0.,0.));
#494=DIRECTION('',(0.,0.,1.));
#495=DIRECTION('center_axis',(0.,0.,-1.));
#496=DIRECTION('ref_axis',(0.,-1.,0.));
#497=DIRECTION('',(0.,0.,1.));
#498=DIRECTION('center_axis',(1.,0.,0.));
#499=DIRECTION('ref_axis',(0.,0.,1.));
#500=DIRECTION('',(0.,0.,-1.));
#501=DIRECTION('',(0.,1.,0.));
#502=DIRECTION('center_axis',(0.,0.,1.));
#503=DIRECTION('ref_axis',(-1.,0.,0.));
#504=DIRECTION('',(0.,0.,-1.));
#505=DIRECTION('center_axis',(0.,0.,1.));
#506=DIRECTION('ref_axis',(0.,-1.,0.));
#507=DIRECTION('center_axis',(0.,1.,0.));
#508=DIRECTION('ref_axis',(0.,0.,1.));
#509=DIRECTION('',(0.,0.,-1.));
#510=DIRECTION('',(1.,0.,0.));
#511=DIRECTION('center_axis',(0.,0.,1.));
#512=DIRECTION('ref_axis',(1.,0.,0.));
#513=DIRECTION('',(0.,1.,0.));
#514=DIRECTION('center_axis',(0.,0.,1.));
#515=DIRECTION('ref_axis',(0.,-1.,0.));
#516=DIRECTION('',(1.,0.,0.));
#517=DIRECTION('center_axis',(0.,0.,1.));
#518=DIRECTION('ref_axis',(0.,-1.,0.));
#519=DIRECTION('center_axis',(0.,0.,-1.));
#520=DIRECTION('ref_axis',(-1.,0.,0.));
#521=DIRECTION('center_axis',(0.,0.,-1.));
#522=DIRECTION('ref_axis',(-1.,0.,0.));
#523=DIRECTION('center_axis',(1.,0.,0.));
#524=DIRECTION('ref_axis',(0.,0.,1.));
#525=DIRECTION('',(0.,0.,1.));
#526=DIRECTION('',(0.,0.,1.));
#527=DIRECTION('center_axis',(0.,0.,1.));
#528=DIRECTION('ref_axis',(1.,0.,0.));
#529=DIRECTION('',(0.,0.,1.));
#530=DIRECTION('center_axis',(0.,0.,1.));
#531=DIRECTION('ref_axis',(0.,-1.,0.));
#532=DIRECTION('center_axis',(0.,1.,0.));
#533=DIRECTION('ref_axis',(0.,0.,1.));
#534=DIRECTION('center_axis',(0.,0.,-1.));
#535=DIRECTION('ref_axis',(-1.,0.,0.));
#536=DIRECTION('',(0.,0.,-1.));
#537=DIRECTION('center_axis',(0.,0.,-1.));
#538=DIRECTION('ref_axis',(-1.,0.,0.));
#539=DIRECTION('center_axis',(0.,0.,-1.));
#540=DIRECTION('ref_axis',(-1.,0.,0.));
#541=DIRECTION('',(0.,0.,-1.));
#542=DIRECTION('center_axis',(0.,0.,-1.));
#543=DIRECTION('ref_axis',(-1.,0.,0.));
#544=DIRECTION('center_axis',(0.,0.,-1.));
#545=DIRECTION('ref_axis',(-1.,0.,0.));
#546=DIRECTION('center_axis',(0.,0.,-1.));
#547=DIRECTION('ref_axis',(-1.,0.,0.));
#548=DIRECTION('center_axis',(0.,0.,-1.));
#549=DIRECTION('ref_axis',(-1.,0.,0.));
#550=DIRECTION('center_axis',(0.,0.,-1.));
#551=DIRECTION('ref_axis',(-1.,0.,0.));
#552=DIRECTION('',(0.,0.,-1.));
#553=CARTESIAN_POINT('',(0.,0.,0.));
#554=CARTESIAN_POINT('Origin',(0.,0.885826771653543,-0.28740157480315));
#555=CARTESIAN_POINT('',(0.086,0.885826771653543,-0.460629921259843));
#556=CARTESIAN_POINT('Origin',(0.,0.885826771653543,-0.460629921259843));
#557=CARTESIAN_POINT('',(0.086,0.885826771653543,-0.684842519685039));
#558=CARTESIAN_POINT('',(0.086,0.885826771653543,-0.28740157480315));
#559=CARTESIAN_POINT('Origin',(0.,0.885826771653543,-0.684842519685039));
#560=CARTESIAN_POINT('Origin',(2.75916647360091E-16,0.590551181102362,-0.588385826771654));
#561=CARTESIAN_POINT('',(0.177165354330709,0.590551181102362,-0.68484251968504));
#562=CARTESIAN_POINT('Origin',(2.75916647360091E-16,0.590551181102362,-0.68484251968504));
#563=CARTESIAN_POINT('',(0.177165354330709,0.590551181102362,-0.491929133858268));
#564=CARTESIAN_POINT('',(0.177165354330709,0.590551181102362,-0.588385826771654));
#565=CARTESIAN_POINT('Origin',(2.75916647360091E-16,0.590551181102362,-0.491929133858268));
#566=CARTESIAN_POINT('Origin',(-0.610236220472441,-1.10236220472441,-0.684842519685039));
#567=CARTESIAN_POINT('',(0.413425196850394,-1.10236220472441,-0.684842519685039));
#568=CARTESIAN_POINT('',(0.610236220472441,-0.905551181102362,-0.684842519685039));
#569=CARTESIAN_POINT('Origin',(0.413425196850394,-0.905551181102362,-0.684842519685039));
#570=CARTESIAN_POINT('',(-0.413425196850394,-1.10236220472441,-0.684842519685039));
#571=CARTESIAN_POINT('',(-0.610236220472441,-1.10236220472441,-0.68484251968504));
#572=CARTESIAN_POINT('',(-0.610236220472441,-0.905551181102362,-0.684842519685039));
#573=CARTESIAN_POINT('Origin',(-0.413425196850394,-0.905551181102362,-0.684842519685039));
#574=CARTESIAN_POINT('',(-0.610236220472441,0.905551181102362,-0.684842519685039));
#575=CARTESIAN_POINT('',(-0.610236220472441,-1.10236220472441,-0.68484251968504));
#576=CARTESIAN_POINT('',(-0.413425196850394,1.10236220472441,-0.684842519685039));
#577=CARTESIAN_POINT('Origin',(-0.413425196850394,0.905551181102362,-0.684842519685039));
#578=CARTESIAN_POINT('',(0.413425196850394,1.10236220472441,-0.684842519685039));
#579=CARTESIAN_POINT('',(-0.610236220472441,1.10236220472441,-0.68484251968504));
#580=CARTESIAN_POINT('',(0.610236220472441,0.905551181102362,-0.684842519685039));
#581=CARTESIAN_POINT('Origin',(0.413425196850394,0.905551181102362,-0.684842519685039));
#582=CARTESIAN_POINT('',(0.610236220472441,-1.10236220472441,-0.68484251968504));
#583=CARTESIAN_POINT('',(0.177165354330709,-0.590551181102362,-0.684842519685039));
#584=CARTESIAN_POINT('Origin',(-1.31128703695885E-16,-0.590551181102362,
-0.684842519685039));
#585=CARTESIAN_POINT('',(0.086,-0.885826771653544,-0.684842519685039));
#586=CARTESIAN_POINT('Origin',(0.,-0.885826771653543,-0.684842519685039));
#587=CARTESIAN_POINT('Origin',(2.75916647360091E-16,0.590551181102362,-0.491929133858268));
#588=CARTESIAN_POINT('',(0.0681102362204727,0.590551181102362,-0.491929133858268));
#589=CARTESIAN_POINT('Origin',(2.75916647360091E-16,0.590551181102362,-0.491929133858268));
#590=CARTESIAN_POINT('Origin',(2.75916647360091E-16,0.590551181102362,-0.389566929133859));
#591=CARTESIAN_POINT('',(0.0681102362204727,0.590551181102362,-0.28740157480315));
#592=CARTESIAN_POINT('',(0.0681102362204727,0.590551181102362,-0.389566929133859));
#593=CARTESIAN_POINT('Origin',(2.75916647360091E-16,0.590551181102362,-0.28740157480315));
#594=CARTESIAN_POINT('Origin',(-1.31128703695885E-16,-0.590551181102362,
-0.491929133858268));
#595=CARTESIAN_POINT('',(0.177165354330709,-0.590551181102362,-0.491929133858268));
#596=CARTESIAN_POINT('Origin',(-1.31128703695885E-16,-0.590551181102362,
-0.491929133858268));
#597=CARTESIAN_POINT('',(0.0681102362204723,-0.590551181102362,-0.491929133858268));
#598=CARTESIAN_POINT('Origin',(-1.31128703695885E-16,-0.590551181102362,
-0.491929133858268));
#599=CARTESIAN_POINT('Origin',(-1.31128703695885E-16,-0.590551181102362,
-0.314763779527559));
#600=CARTESIAN_POINT('',(0.0681102362204723,-0.590551181102362,-0.28740157480315));
#601=CARTESIAN_POINT('',(0.0681102362204723,-0.590551181102362,-0.314763779527559));
#602=CARTESIAN_POINT('Origin',(-1.31128703695885E-16,-0.590551181102362,
-0.28740157480315));
#603=CARTESIAN_POINT('Origin',(-1.31128703695885E-16,-0.590551181102362,
-0.586417322834646));
#604=CARTESIAN_POINT('',(0.177165354330709,-0.590551181102362,-0.586417322834646));
#605=CARTESIAN_POINT('Origin',(-0.413425196850394,0.905551181102362,-0.602362204724409));
#606=CARTESIAN_POINT('',(-0.610236220472441,0.905551181102362,-0.28740157480315));
#607=CARTESIAN_POINT('',(-0.610236220472441,0.905551181102362,-0.602362204724409));
#608=CARTESIAN_POINT('',(-0.413425196850394,1.10236220472441,-0.28740157480315));
#609=CARTESIAN_POINT('Origin',(-0.413425196850394,0.905551181102362,-0.28740157480315));
#610=CARTESIAN_POINT('',(-0.413425196850394,1.10236220472441,-0.602362204724409));
#611=CARTESIAN_POINT('Origin',(-0.610236220472441,-1.10236220472441,-0.602362204724409));
#612=CARTESIAN_POINT('',(-0.610236220472441,-0.905551181102362,-0.28740157480315));
#613=CARTESIAN_POINT('',(-0.610236220472441,-0.905551181102362,-0.602362204724409));
#614=CARTESIAN_POINT('',(-0.610236220472441,-1.10236220472441,-0.28740157480315));
#615=CARTESIAN_POINT('Origin',(-0.413425196850394,-0.905551181102362,-0.602362204724409));
#616=CARTESIAN_POINT('',(-0.413425196850394,-1.10236220472441,-0.28740157480315));
#617=CARTESIAN_POINT('',(-0.413425196850394,-1.10236220472441,-0.602362204724409));
#618=CARTESIAN_POINT('Origin',(-0.413425196850394,-0.905551181102362,-0.28740157480315));
#619=CARTESIAN_POINT('Origin',(-0.610236220472441,-1.10236220472441,-0.602362204724409));
#620=CARTESIAN_POINT('',(0.413425196850394,-1.10236220472441,-0.28740157480315));
#621=CARTESIAN_POINT('',(0.413425196850394,-1.10236220472441,-0.602362204724409));
#622=CARTESIAN_POINT('',(-0.610236220472441,-1.10236220472441,-0.28740157480315));
#623=CARTESIAN_POINT('Origin',(-0.610236220472441,-1.10236220472441,-0.28740157480315));
#624=CARTESIAN_POINT('',(0.610236220472441,-0.905551181102362,-0.28740157480315));
#625=CARTESIAN_POINT('',(0.610236220472441,0.905551181102362,-0.28740157480315));
#626=CARTESIAN_POINT('',(0.610236220472441,-1.10236220472441,-0.28740157480315));
#627=CARTESIAN_POINT('',(0.413425196850394,1.10236220472441,-0.28740157480315));
#628=CARTESIAN_POINT('Origin',(0.413425196850394,0.905551181102362,-0.28740157480315));
#629=CARTESIAN_POINT('',(-0.610236220472441,1.10236220472441,-0.28740157480315));
#630=CARTESIAN_POINT('Origin',(0.413425196850394,-0.905551181102362,-0.28740157480315));
#631=CARTESIAN_POINT('',(0.177165354330709,-0.885826771653543,-0.28740157480315));
#632=CARTESIAN_POINT('Origin',(0.,-0.885826771653543,-0.28740157480315));
#633=CARTESIAN_POINT('',(0.177165354330709,0.885826771653543,-0.28740157480315));
#634=CARTESIAN_POINT('Origin',(0.,0.885826771653543,-0.28740157480315));
#635=CARTESIAN_POINT('Origin',(0.610236220472441,-1.10236220472441,-0.602362204724409));
#636=CARTESIAN_POINT('',(0.610236220472441,0.905551181102362,-0.602362204724409));
#637=CARTESIAN_POINT('',(0.610236220472441,-0.905551181102362,-0.602362204724409));
#638=CARTESIAN_POINT('Origin',(0.413425196850394,0.905551181102362,-0.602362204724409));
#639=CARTESIAN_POINT('',(0.413425196850394,1.10236220472441,-0.602362204724409));
#640=CARTESIAN_POINT('Origin',(0.413425196850394,-0.905551181102362,-0.602362204724409));
#641=CARTESIAN_POINT('Origin',(-0.610236220472441,1.10236220472441,-0.602362204724409));
#642=CARTESIAN_POINT('Origin',(0.,-0.885826771653543,-0.28740157480315));
#643=CARTESIAN_POINT('',(0.177165354330709,-0.885826771653543,-0.460629921259843));
#644=CARTESIAN_POINT('',(0.177165354330709,-0.885826771653543,-0.28740157480315));
#645=CARTESIAN_POINT('Origin',(0.,-0.885826771653543,-0.460629921259843));
#646=CARTESIAN_POINT('Origin',(0.,0.885826771653543,-0.28740157480315));
#647=CARTESIAN_POINT('',(0.177165354330709,0.885826771653543,-0.460629921259843));
#648=CARTESIAN_POINT('',(0.177165354330709,0.885826771653543,-0.28740157480315));
#649=CARTESIAN_POINT('Origin',(0.,0.885826771653543,-0.460629921259843));
#650=CARTESIAN_POINT('Origin',(0.,-0.885826771653543,-0.460629921259843));
#651=CARTESIAN_POINT('',(0.086,-0.885826771653543,-0.460629921259843));
#652=CARTESIAN_POINT('Origin',(0.,-0.885826771653543,-0.460629921259843));
#653=CARTESIAN_POINT('Origin',(0.,0.885826771653543,-0.460629921259843));
#654=CARTESIAN_POINT('Origin',(0.,-0.885826771653543,-0.28740157480315));
#655=CARTESIAN_POINT('',(0.086,-0.885826771653543,-0.28740157480315));
#656=UNCERTAINTY_MEASURE_WITH_UNIT(LENGTH_MEASURE(0.000393700787401575),
#661,'DISTANCE_ACCURACY_VALUE',
'Maximum model space distance between geometric entities at asserted c
onnectivities');
#657=UNCERTAINTY_MEASURE_WITH_UNIT(LENGTH_MEASURE(0.000393700787401575),
#661,'DISTANCE_ACCURACY_VALUE',
'Maximum model space distance between geometric entities at asserted c
onnectivities');
#658=(
GEOMETRIC_REPRESENTATION_CONTEXT(3)
GLOBAL_UNCERTAINTY_ASSIGNED_CONTEXT((#656))
GLOBAL_UNIT_ASSIGNED_CONTEXT((#661,#665,#666))
REPRESENTATION_CONTEXT('','3D')
);
#659=(
GEOMETRIC_REPRESENTATION_CONTEXT(3)
GLOBAL_UNCERTAINTY_ASSIGNED_CONTEXT((#657))
GLOBAL_UNIT_ASSIGNED_CONTEXT((#661,#665,#666))
REPRESENTATION_CONTEXT('','3D')
);
#660=DIMENSIONAL_EXPONENTS(1.,0.,0.,0.,0.,0.,0.);
#661=(
CONVERSION_BASED_UNIT('inch',#664)
LENGTH_UNIT()
NAMED_UNIT(#660)
);
#662=(
LENGTH_UNIT()
NAMED_UNIT(*)
SI_UNIT(.MILLI.,.METRE.)
);
#663=(
LENGTH_UNIT()
NAMED_UNIT(*)
SI_UNIT($,.METRE.)
);
#664=LENGTH_MEASURE_WITH_UNIT(LENGTH_MEASURE(25.4),#662);
#665=(
NAMED_UNIT(*)
PLANE_ANGLE_UNIT()
SI_UNIT($,.RADIAN.)
);
#666=(
NAMED_UNIT(*)
SI_UNIT($,.STERADIAN.)
SOLID_ANGLE_UNIT()
);
#667=SHAPE_DEFINITION_REPRESENTATION(#668,#669);
#668=PRODUCT_DEFINITION_SHAPE('',$,#671);
#669=SHAPE_REPRESENTATION('',(#388),#658);
#670=PRODUCT_DEFINITION_CONTEXT('part definition',#675,'design');
#671=PRODUCT_DEFINITION('2026-07-08-16-54-38-676',
'Isolator_Edmund_Adaptor',#672,#670);
#672=PRODUCT_DEFINITION_FORMATION('',$,#677);
#673=PRODUCT_RELATED_PRODUCT_CATEGORY('Isolator_Edmund_Adaptor',
'Isolator_Edmund_Adaptor',(#677));
#674=APPLICATION_PROTOCOL_DEFINITION('international standard',
'automotive_design',2009,#675);
#675=APPLICATION_CONTEXT(
'Core Data for Automotive Mechanical Design Process');
#676=PRODUCT_CONTEXT('part definition',#675,'mechanical');
#677=PRODUCT('2026-07-08-16-54-38-676','Isolator_Edmund_Adaptor',
'FreeCAD Model',(#676));
#678=PRESENTATION_STYLE_ASSIGNMENT((#680));
#679=PRESENTATION_STYLE_ASSIGNMENT((#681));
#680=SURFACE_STYLE_USAGE(.BOTH.,#682);
#681=SURFACE_STYLE_USAGE(.BOTH.,#683);
#682=SURFACE_SIDE_STYLE('',(#684));
#683=SURFACE_SIDE_STYLE('',(#685));
#684=SURFACE_STYLE_FILL_AREA(#686);
#685=SURFACE_STYLE_FILL_AREA(#687);
#686=FILL_AREA_STYLE('Plate',(#688));
#687=FILL_AREA_STYLE('Opaque(153,229,153)',(#689));
#688=FILL_AREA_STYLE_COLOUR('Plate',#690);
#689=FILL_AREA_STYLE_COLOUR('Opaque(153,229,153)',#691);
#690=COLOUR_RGB('Plate',0.6,0.6,0.6);
#691=COLOUR_RGB('Opaque(153,229,153)',0.6,0.898039215686275,0.6);
ENDSEC;
END-ISO-10303-21;
